<svg xmlns="http://www.w3.org/2000/svg" width="92" height="22" fill="none"><mask id="c" width="92" height="22" x="0" y="0" maskUnits="userSpaceOnUse" style="mask-type:alpha"><g clip-path="url(#a)"><mask id="b" width="92" height="22" x="0" y="0" maskUnits="userSpaceOnUse" style="mask-type:luminance"><path fill="#fff" d="M91.624 0H.156v22h91.468z"/></mask><g fill="#57201F" mask="url(#b)"><path d="M.154 19.908V16.8h.123c1.662 2.492 3.908 3.538 6.154 3.538 2.492 0 4.8-1.415 4.8-3.938 0-1.723-.984-2.646-3.2-3.662l-3.046-1.354C2.062 10.061.708 8.215.708 5.877.708 2.646 3.508 0 7.57 0c2.122 0 4.123.677 5.323 1.477V4.46h-.124c-1.292-2-3.23-2.83-5.2-2.83-2.676 0-4.676 1.477-4.676 3.876 0 1.693.954 2.8 3.077 3.754l3.077 1.385c2.83 1.292 4.369 2.8 4.369 5.385 0 3.507-3.077 5.969-6.985 5.969-2.215 0-4.523-.739-6.277-2.092Zm16.059-6.832V5.015c0-2.277-.215-3.57-.985-4.616V.307h4.154V.4c-.77 1.046-.985 2.339-.985 4.616v8.092c0 4.37 2.37 6.954 6.34 6.954 3.968 0 6.369-2.584 6.369-6.923V5.015c0-2.277-.216-3.538-.985-4.616V.307h3.723V.4c-.77 1.078-.985 2.339-.985 4.646v8.031c0 5.416-2.984 8.924-8.307 8.924-5.293 0-8.339-3.477-8.339-8.924ZM35.935 21.6c.8-1.047.985-2.37.985-4.647V5.045c0-2.277-.215-3.569-.985-4.646V.307h7.385c4.77 0 7.323 2.061 7.323 5.138 0 2.616-2.03 4.462-5.015 4.985v.123c3.815.4 6.092 2.462 6.092 5.261 0 3.354-2.769 5.877-7.816 5.877h-7.969zm7.078-11.847c3.2 0 5.292-1.354 5.292-4.123 0-2.338-1.846-3.754-5.231-3.754h-3.97v7.877zm-3.908 1.6v8.738h4.246c3.784 0 6.03-1.538 6.03-4.4 0-2.953-2.492-4.338-6.307-4.338zM59.011 21.6c.893-1.078 1.108-2.37 1.108-4.647V1.907h-2.585c-2.738 0-4 .492-4.8 1.57h-.123V.306h17.231v3.17h-.123c-.769-1.078-2.03-1.57-4.77-1.57h-2.614v15.046c0 2.277.246 3.57 1.107 4.646v.093h-4.43v-.093Zm13.289 0c.74-1.016.986-2.34.986-4.431V5.014c0-2.245-.185-3.538-.985-4.615V.307h4.154V.4c-.831 1.077-.985 2.339-.985 4.615v15.047h5.938c2.524 0 3.908-.37 4.708-2.123h.154v3.754H72.3zm15.784-1.354c0-.954.8-1.754 1.754-1.754.984 0 1.784.8 1.784 1.754 0 .953-.8 1.754-1.784 1.754-.954 0-1.754-.8-1.754-1.754"/></g></g></mask><g mask="url(#c)"><path fill="#000" d="M-2-4h98v33H-2z"/></g><defs><clipPath id="a"><path fill="#fff" d="M0 0h92v22H0z"/></clipPath></defs></svg>