<svg xmlns="http://www.w3.org/2000/svg" width="128" height="32" fill="none"><path fill="#000" d="M7.303 7.296H7.25c-3.026 0-5.199 1.888-5.199 4.615v.046c0 2.93 1.829 3.932 5.07 4.75 2.817.68 3.438 1.296 3.438 2.431v.046c0 1.206-1.043 2-2.697 2-1.89 0-3.346-.748-4.802-2.061l-1.595 1.984-.007.007c1.737 1.645 4 2.55 6.345 2.539 3.2 0 5.441-1.774 5.441-4.75v-.046c0-2.637-1.673-3.843-4.895-4.66-2.918-.726-3.613-1.274-3.613-2.5v-.046c0-1.047.932-1.887 2.484-1.887 1.39 0 2.755.558 4.124 1.622L12.77 9.29a8.22 8.22 0 0 0-5.466-1.995Zm52.68.228.006.012v15.89h2.61V12.108h.019l4.78 7.48h.018l4.824-7.525h.018v11.349h2.654V7.523h-2.834l-4.622 7.504h-.018l-4.622-7.503h-2.834Zm-31.806 3.638c-1.735 0-2.955.836-3.886 2.101h-.019c-.62-1.265-1.766-2.098-3.414-2.098-1.748 0-2.747.986-3.486 2.043h-.019v-1.774h-2.61l.065.01v11.972h2.61v-6.742c0-1.864 1-3 2.459-3s2.328 1.055 2.328 2.92v6.822h2.61v-6.765c0-1.932.978-2.976 2.459-2.976 1.48 0 2.328 1.008 2.328 2.918v6.81h2.61v-7.65c0-2.931-1.533-4.591-4.035-4.591m23.413.007c-3.38 0-5.73 2.765-5.73 6.19 0 3.612 2.452 6.303 5.73 6.303 1.769 0 2.998-.85 3.538-1.835h.019v1.297c0 2.594-1.161 3.849-3.483 3.849a2.9 2.9 0 0 1-1.729-.5 3.1 3.1 0 0 1-1.142-1.446v-.016h-.016l-.022.02-2.454 1.414v.015c.86 1.852 2.827 3.195 5.422 3.195 4.619 0 6.102-3.19 6.102-6.618v-11.61h-2.6v1.576h-.02c-.542-1.037-1.896-1.834-3.615-1.834m42.97 0c-3.38 0-5.73 2.765-5.73 6.19 0 3.612 2.452 6.303 5.73 6.303 1.769 0 2.998-.85 3.538-1.835h.02v1.297c0 2.594-1.162 3.849-3.484 3.849a2.9 2.9 0 0 1-1.728-.5 3.1 3.1 0 0 1-1.143-1.446v-.016h-.015l-.022.02-2.455 1.414v.015c.86 1.852 2.827 3.195 5.422 3.195 4.619 0 6.103-3.19 6.103-6.618v-11.61h-2.601v1.576h-.019c-.543-1.037-1.897-1.834-3.616-1.834m-52.745.262v6.609c0 1.864-.893 2.934-2.461 2.934h-.28c-1.567 0-2.46-1.07-2.46-2.934v-6.596H34v6.914c0 1.41.535 2.764 1.489 3.763a5 5 0 0 0 3.598 1.567h.292a5 5 0 0 0 3.598-1.567 5.45 5.45 0 0 0 1.49-3.763v-6.914zm42.918 0v6.609c0 1.864-.894 2.934-2.462 2.934h-.304c-1.567 0-2.461-1.07-2.461-2.934v-6.596h-2.614v6.914c0 1.408.534 2.76 1.485 3.759a5 5 0 0 0 3.59 1.571h.31a5 5 0 0 0 3.599-1.567 5.46 5.46 0 0 0 1.489-3.763v-6.914zm-32.874 2.494c1.903 0 3.306 1.297 3.306 3.498s-1.347 3.567-3.306 3.567c-2.008 0-3.355-1.297-3.355-3.567 0-2.188 1.4-3.498 3.355-3.498m42.971 0c1.903 0 3.306 1.297 3.306 3.498s-1.347 3.567-3.306 3.567c-2.008 0-3.355-1.297-3.355-3.567 0-2.188 1.4-3.498 3.355-3.498m16.299-7.414c2.095-.032 3.104-1.326 2.967-2.503-.112-.973-1.021-1.884-2.75-1.9a2.4 2.4 0 0 0-1.641.612 2.6 2.6 0 0 0-.842 1.593c-.14 1.112.518 2.228 2.278 2.198m10.246-.265c2.011-.12 2.89-1.174 2.902-2.23 0-1.191-1.074-2.378-2.88-2.225-1.45.123-2.3 1.173-2.428 2.224-.142 1.167.606 2.335 2.406 2.228m-7.76 16.349c-6.977 0-6.025-8.596-4.851-8.645 8.11-.34 10.177-.626 13.076-.69 2.983-.069-2.712 9.312-8.225 9.335m8.893-11.95c-4.945.52-5.187.571-14.278.792-3.837.016-3.061 13.79 5.131 13.79 7.797.01 17.242-15.285 9.147-14.581Z"/></svg>