<svg xmlns="http://www.w3.org/2000/svg" width="620" height="124" fill="none"><g fill="#000" clip-path="url(#a)"><path d="M109.12 49.62c-1.163-13.524-7.401-26.137-17.496-35.321C81.55 5.096 68.355 0 54.657 0a54.9 54.9 0 0 0-36.968 14.28C7.614 23.462 1.356 36.075.194 49.62A53 53 0 0 0 0 54.27 54 54 0 0 0 11.858 88c7.672 9.59 18.406 16.333 30.438 19.104L54.656 124l12.362-16.895c12.032-2.771 22.766-9.513 30.438-19.104a53.9 53.9 0 0 0 11.858-33.732c0-1.569-.058-3.119-.194-4.65M50.763 82.072c0 .232-.059.445-.175.658a1.45 1.45 0 0 1-.484.485 1.34 1.34 0 0 1-1.318 0l-20.17-11.567a5.35 5.35 0 0 1-1.898-1.88 5 5 0 0 1-.697-2.577v-22.61c0-.233.058-.446.174-.659.116-.194.271-.349.484-.484a1.34 1.34 0 0 1 1.317 0l20.17 11.567a5.2 5.2 0 0 1 1.899 1.879c.465.775.698 1.666.698 2.596zm3.894-33.093c-.91 0-1.802-.252-2.596-.697l-20.635-11.82a1.25 1.25 0 0 1-.465-.484 1.24 1.24 0 0 1-.174-.658c0-.252.058-.446.174-.64.117-.194.272-.348.465-.484l20.635-11.819a5.1 5.1 0 0 1 2.596-.697c.91 0 1.802.252 2.596.697l20.635 11.819c.193.116.348.271.465.484q.174.29.174.64c0 .232-.058.445-.174.658a1.6 1.6 0 0 1-.465.485l-20.635 11.82a5.1 5.1 0 0 1-2.596.697m28.636 18.174c0 .91-.232 1.802-.697 2.596a5.35 5.35 0 0 1-1.9 1.88L60.529 83.195a1.34 1.34 0 0 1-1.318 0 1.45 1.45 0 0 1-.484-.484 1.24 1.24 0 0 1-.175-.659v-22.61c0-.911.252-1.802.698-2.597a5.35 5.35 0 0 1 1.898-1.88L81.318 43.4a1.34 1.34 0 0 1 1.317 0c.194.116.35.271.485.484.116.194.174.407.174.66zm101.951-26.912c-1.666-1.899-3.836-3.546-6.471-4.902-3.468-1.763-7.576-2.655-12.226-2.655-5.056 0-9.687.989-13.775 2.965-4.069 1.957-7.556 4.553-10.405 7.711-2.809 3.139-5.037 6.685-6.568 10.52-1.53 3.837-2.325 7.731-2.325 11.587s.737 8.002 2.19 11.877a32.8 32.8 0 0 0 6.335 10.462c2.752 3.081 6.162 5.6 10.153 7.518 4.01 1.918 8.641 2.906 13.775 2.906 4.302 0 8.312-.852 11.935-2.519 2.926-1.337 5.406-3.1 7.402-5.212v6.123h14.88V33.867h-14.88v6.375zm-.93 32.57c-.949 2.247-2.286 4.242-3.952 5.89-1.666 1.665-3.643 3.002-5.832 4.01-2.17.988-4.534 1.472-6.975 1.472s-4.96-.504-7.169-1.492a19.7 19.7 0 0 1-5.89-4.01c-1.666-1.647-3.003-3.643-3.952-5.89-.95-2.248-1.434-4.728-1.434-7.343s.484-5.096 1.434-7.343a18.5 18.5 0 0 1 3.952-5.91c1.666-1.666 3.643-3.003 5.89-4.01 2.209-.989 4.631-1.492 7.169-1.492s4.805.503 6.975 1.472a19.7 19.7 0 0 1 5.832 4.01c1.666 1.648 3.003 3.643 3.952 5.91.95 2.248 1.434 4.708 1.434 7.343s-.484 5.096-1.434 7.343zm349.797-59.869c-2.287 0-4.263.814-5.871 2.422s-2.441 3.565-2.441 5.851.814 4.224 2.441 5.832c1.608 1.608 3.584 2.422 5.871 2.422 2.286 0 4.243-.814 5.87-2.422 1.608-1.608 2.442-3.565 2.442-5.851s-.814-4.224-2.442-5.851c-1.608-1.608-3.584-2.422-5.87-2.422zm7.924 21.117h-15.113v62.524h15.113zm75.776 19.278a33.8 33.8 0 0 0-6.355-10.52c-2.752-3.08-6.181-5.619-10.192-7.556-4.01-1.938-8.68-2.926-13.833-2.926-4.321 0-8.274.814-11.8 2.402a24.4 24.4 0 0 0-7.42 5.212v-5.987h-15.094v83.429h15.094V90.771c1.646 1.821 3.758 3.39 6.316 4.689 3.487 1.763 7.614 2.673 12.264 2.673 5.076 0 9.726-1.007 13.834-2.983 4.088-1.957 7.595-4.573 10.443-7.73 2.829-3.16 5.057-6.705 6.588-10.56 1.55-3.856 2.344-7.77 2.344-11.625s-.736-8.022-2.209-11.916h.02zM602.659 72.54a19.2 19.2 0 0 1-3.991 5.87c-1.666 1.648-3.623 2.984-5.851 3.992-2.209.988-4.553 1.472-6.995 1.472a16.9 16.9 0 0 1-6.936-1.472 19.5 19.5 0 0 1-5.793-3.991 18.4 18.4 0 0 1-3.933-5.87c-.949-2.23-1.414-4.69-1.414-7.286s.484-5.057 1.414-7.285c.949-2.247 2.267-4.224 3.933-5.87a20.1 20.1 0 0 1 5.793-3.992 16.9 16.9 0 0 1 6.936-1.472c2.442 0 4.805.503 6.995 1.472a19.2 19.2 0 0 1 5.851 3.991c1.666 1.647 3.003 3.624 3.991 5.871.988 2.228 1.492 4.689 1.492 7.285s-.504 5.057-1.492 7.285M232.481 23.52c0-3.894 3.003-8.35 8.021-8.35 1.879 0 3.235.232 4.805.852l7.556-12.729-.814-.29c-2.77-.989-7.013-1.648-10.54-1.648-7.672 0-13.969 2.48-18.232 7.189-3.7 4.088-5.754 9.765-5.754 15.984v9.532h-8.641v14.745h8.835v47.992h14.744V48.805h13.543V34.06h-13.543V23.52zm167.787 10.833c-2.092-1.357-4.689-2.035-7.711-2.035s-5.503.814-7.75 2.442a15 15 0 0 0-2.945 2.79v-3.527H367.04v62.601h14.803V55.452c0-2.48 1.085-4.398 2.673-5.89 1.628-1.492 3.468-2.228 5.658-2.228.562 0 1.259.136 2.112.446.329.116.639.252.93.387l7.672-13.214.058-.155-.678-.426zm53.223 40.319c-1.22-5.328-4.611-9.339-10.036-11.954-3.875-1.86-8.215-2.713-12.381-3.546-3.177-.64-6.548-1.22-8.893-2.17-1.705-.698-2.712-1.453-3.429-2.655-1.201-2.034-.058-3.952.077-4.165 1.492-2.364 4.863-3.836 8.177-3.836 3.642 0 6.878 1.104 9.61 3.255 1.685 1.337 2.731 2.77 2.983 3.216l.485.814 13.252-7.247-.484-.794c-.795-1.318-2.577-3.894-5.58-6.452-3.817-3.235-10.424-7.091-20.286-7.091-4.495 0-8.835 1.027-12.555 3.003-3.584 1.88-6.529 4.573-8.544 7.789-3.681 5.87-3.856 12.807-.446 18.522 2.054 3.468 5.096 6.007 9.261 7.789 3.585 1.511 7.557 2.267 11.083 2.926.717.135 1.395.252 2.073.387 3.933.775 7.227 1.628 9.009 2.519 1.182.581 1.88 1.434 2.093 2.5.291 1.452-.388 2.925-.814 3.39-2.364 2.557-5.948 3.546-10.21 3.003-2.945-.368-6.084-1.84-8.797-4.01-2.441-1.957-3.972-4.399-3.972-4.399L402.729 81.9l-.853.445.485.795c.503.852 2.46 3.894 5.967 6.936 8.002 6.917 16.488 7.75 20.131 7.75h.484c4.224 0 8.138-.659 11.625-1.976 3.526-1.318 6.491-3.255 8.758-5.735 3.952-4.32 5.425-9.823 4.107-15.539zM325.5 32.086c-18.348 0-33.209 14.783-33.209 33.034s14.861 33.034 33.209 33.034c11.625 0 21.855-5.948 27.784-14.957l-12.439-7.15c-3.429 4.748-9.009 7.847-15.345 7.847a18.87 18.87 0 0 1-17.844-12.651h50.472c.368-1.977.581-4.03.581-6.142 0-18.232-14.861-33.035-33.209-33.035zM307.346 60.49c.31-1.24 1.143-3.41 1.298-3.817 0-.059.039-.097.058-.136A18.9 18.9 0 0 1 325.5 46.346h.097c8.816 0 16.197 6.025 18.271 14.144zm183.055-28.094c-5.832 0-9.765 1.24-13.95 4.224V13.176h-14.725v83.351h14.725v-38.75c0-6.878 7.226-11.102 13.891-10.966 4.321.097 10.599 4.379 11.083 11.315v38.382h15.035V59.656c0-15.732-10.269-27.28-26.079-27.28h.02zM277.373 96.527V48.981h11.024V34.198h-11.024V21.643h-14.706v12.555h-9.145V48.98h9.145v47.604l14.706-.077z"/></g><defs><clipPath id="a"><path fill="#fff" d="M0 0h620v124H0z"/></clipPath></defs></svg>