<svg xmlns="http://www.w3.org/2000/svg" width="513" height="73" fill="none"><path fill="#101820" d="m42.17 32.82-.004 6.41 6.412.003-.004 6.41-6.411-.003-.004 6.41-6.411-.003.003-6.41-6.411-.004.003-6.41 6.412.003.003-6.41z"/><path fill="#101820" fill-rule="evenodd" d="M77.624 57.154c.42.765.402 1.694-.05 2.442L70.258 71.76a2.46 2.46 0 0 1-2.104 1.19L9.75 72.924a2.46 2.46 0 0 1-2.104-1.189L.342 59.564a2.45 2.45 0 0 1-.047-2.442L30.448 2.221a2.46 2.46 0 0 1 2.15-1.27L45.36.953c.894 0 1.72.487 2.15 1.274L77.62 57.15l.004.003Zm-5.045 7.905L38.984 2.018 5.336 65.034z" clip-rule="evenodd"/><path fill="#101820" d="M147.554 15.198 136.917 56.53a.28.28 0 0 1-.267.207h-6.124a.28.28 0 0 1-.267-.207l-7.86-29.744-7.995 29.744a.28.28 0 0 1-.267.207h-6.056a.276.276 0 0 1-.267-.207L97.177 15.198a.275.275 0 0 1 .267-.346h6.387c.128 0 .238.086.27.21l7.522 30.628 7.932-30.627a.28.28 0 0 1 .267-.207h5.301c.124 0 .235.085.267.207l7.86 30.627 7.522-30.627a.28.28 0 0 1 .267-.21h6.248c.181 0 .313.17.267.345m33.235-.068v5.723a.28.28 0 0 1-.278.278h-20.124v11.051h18.209a.28.28 0 0 1 .281.282v5.641a.28.28 0 0 1-.281.281h-18.209v12.01h20.124c.153 0 .278.124.278.277v5.79a.28.28 0 0 1-.278.278h-19.327a2.07 2.07 0 0 1-1.392-.537l-5.685-5.143a2.1 2.1 0 0 1-.683-1.541V15.126c0-.152.124-.277.278-.277h26.809c.153 0 .278.124.278.277zm34.731 30.421c0 7.642-6.483 11.87-15.012 11.87-4.945 0-9.253-1.278-12.211-2.99a2.19 2.19 0 0 1-1.096-1.904v-5.122c0-.455.512-.7.879-.434 3.635 2.655 7.885 4.168 12.428 4.168 4.773 0 8.12-1.705 8.12-5.46 0-3.274-2.115-4.57-5.867-6.004l-6.073-2.182c-5.596-2.047-9.826-5.05-9.826-11.938 0-7.367 6.415-11.393 14.126-11.393 4.176 0 8.028.965 11.178 2.705.712.395 1.171 1.128 1.171 1.94v4.976a.55.55 0 0 1-.875.441c-3.247-2.306-6.835-3.858-11.339-3.858-4.229 0-7.369 1.637-7.369 5.05 0 3.072 1.98 4.3 5.461 5.528l6.753 2.456c6.551 2.388 9.552 6.072 9.552 12.144zm262.525 0c0 7.642-6.483 11.87-15.012 11.87-4.945 0-9.252-1.278-12.211-2.99a2.19 2.19 0 0 1-1.096-1.904v-5.122c0-.455.512-.7.879-.434 3.635 2.655 7.885 4.168 12.428 4.168 4.777 0 8.12-1.705 8.12-5.46 0-3.274-2.115-4.57-5.867-6.004l-6.073-2.182c-5.596-2.047-9.825-5.05-9.825-11.938 0-7.367 6.415-11.393 14.125-11.393 4.176 0 8.028.965 11.178 2.705.712.395 1.172 1.128 1.172 1.943v4.976c0 .452-.509.701-.876.442-3.247-2.307-6.835-3.859-11.338-3.859-4.23 0-7.369 1.638-7.369 5.05 0 3.072 1.979 4.3 5.46 5.528l6.754 2.456c6.55 2.389 9.554 6.072 9.554 12.144zM254.009 15.13v5.723a.28.28 0 0 1-.278.278H240.09v35.333a.28.28 0 0 1-.278.277h-6.543a.28.28 0 0 1-.277-.277V21.13H219.35a.28.28 0 0 1-.278-.278V15.13c0-.153.125-.278.278-.278h34.381c.154 0 .278.125.278.278"/><path fill="#101820" fill-rule="evenodd" d="M328.547 56.086a.417.417 0 0 1-.339.655h-7.105a.27.27 0 0 1-.228-.12l-11.584-16.868h-5.048v16.71a.28.28 0 0 1-.277.278h-6.544a.28.28 0 0 1-.277-.277V15.127c0-.154.124-.278.277-.278h15.895c8.665 0 14.261 4.367 14.261 12.553 0 7.026-4.094 11.052-10.711 12.077l11.687 16.604zM313.175 33.82c4.706 0 7.369-2.524 7.369-6.414s-2.663-6.414-7.369-6.414h-8.939v12.824h8.939z" clip-rule="evenodd"/><path fill="#101820" d="M370.087 15.13v41.337a.28.28 0 0 1-.278.278h-5.037a.28.28 0 0 1-.228-.118L343.199 26.25v30.218a.28.28 0 0 1-.278.278h-6.269a.277.277 0 0 1-.277-.278V15.13c0-.153.124-.278.277-.278h6.266c.089 0 .174.047.228.118l20.117 28.944V15.127c0-.154.124-.278.277-.278h6.269c.154 0 .278.124.278.278z"/><path fill="#101820" fill-rule="evenodd" d="M426.014 56.303a.28.28 0 0 1-.228.438h-7.373a.28.28 0 0 1-.228-.12l-11.584-16.868h-5.047v16.71a.28.28 0 0 1-.278.278h-6.543a.28.28 0 0 1-.278-.277V15.127c0-.154.125-.278.278-.278h15.895c8.668 0 14.261 4.367 14.261 12.553 0 7.026-4.094 11.052-10.712 12.077l11.84 16.825h-.003Zm-15.525-22.487c4.71 0 7.369-2.523 7.369-6.414s-2.663-6.413-7.369-6.413h-8.939v12.824h8.939z" clip-rule="evenodd"/><path fill="#101820" d="M440.787 15.13v41.337a.28.28 0 0 1-.278.278h-6.543a.28.28 0 0 1-.278-.278V15.13c0-.153.125-.278.278-.278h6.543c.153 0 .278.125.278.278m-152.723 0v5.723a.28.28 0 0 1-.278.278h-20.124v11.051h18.209a.28.28 0 0 1 .281.282v5.641a.28.28 0 0 1-.281.281h-18.209v12.01h20.124c.153 0 .278.124.278.277v5.79a.28.28 0 0 1-.278.278H268.63a2.5 2.5 0 0 1-1.687-.651l-5.415-4.898a2.5 2.5 0 0 1-.826-1.865V15.13c0-.153.125-.278.278-.278h26.809c.154 0 .278.125.278.278zm204.178 6.001v11.051h18.209a.28.28 0 0 1 .281.282v5.641a.28.28 0 0 1-.281.281h-18.209v12.01h20.124c.153 0 .277.124.277.277v5.79a.28.28 0 0 1-.277.278H493.21a2.5 2.5 0 0 1-1.687-.651l-5.415-4.898a2.52 2.52 0 0 1-.829-1.865V15.13c0-.153.124-.278.277-.278h26.81c.153 0 .277.125.277.278v5.723a.277.277 0 0 1-.277.278z"/></svg>