<svg xmlns="http://www.w3.org/2000/svg" width="100" height="40" fill="none"><path fill="#000" fill-rule="evenodd" d="M56.853 8.733c0 5.425.092 9.062.242 9.601.429 1.547 2.203 2.173 4.013 1.417.73-.306.8-.407.661-.97-.225-.91-.357-.972-1.46-.676-.928.25-1.02.232-1.426-.268-.409-.505-.434-1.03-.434-9.186V0h-1.598zm-44.24 2.626.059 10.902h1.368l.06-10.902.06-10.902h-1.608zm-9.298-6.2C1.402 5.86.299 7.578.518 9.518c.193 1.716 1.405 2.632 4.66 3.52 2.138.584 3.398 1.19 3.719 1.79.983 1.836-1.324 3.706-4.1 3.324-1.294-.177-2.345-.776-2.89-1.644-.219-.351-.42-.672-.447-.713-.116-.18-1.46.686-1.46.941 0 .587 1.493 2.065 2.61 2.585 2.657 1.238 6.459.425 7.604-1.625.995-1.783.503-3.91-1.136-4.91-.778-.476-1.07-.581-3.76-1.362-2.05-.595-3.035-1.365-3.035-2.374 0-2.161 3.074-3.212 5.403-1.847.544.319.992.653.993.742.003.089.092.3.2.47.162.256.302.241.796-.083.756-.495.753-.807-.02-1.725C8.313 5.01 5.488 4.365 3.316 5.16Zm16.823.227c-.652.324-1.386.844-1.63 1.154l-.443.564-.071-.983c-.07-.959-.092-.984-.87-.984h-.8v14.84h1.6l.114-5.029c.11-4.817.139-5.077.69-6.15.788-1.528 2.104-2.248 3.891-2.126 1.747.119 2.61.763 3.063 2.286.265.893.347 2.355.347 6.153v4.981h1.598l.002-4.053c.002-6.256.427-7.916 2.278-8.895 1.889-.999 4.192-.505 5.14 1.101.413.699.468 1.305.572 6.253l.114 5.48h1.598l.064-5.366c.071-6.02-.041-6.648-1.48-8.24-2.031-2.248-6.538-1.98-8.3.494l-.498.7-.397-.643c-1.276-2.069-4.162-2.743-6.581-1.537Zm25.64-.393c-1.24.325-2.483 1.029-3.35 1.895l-.852.853-.068-1.302-.068-1.302h-1.598v17.124h1.598l.064-2.634.064-2.634 1.104 1.064c1.469 1.416 2.907 1.898 5.246 1.758 1.958-.117 3.153-.617 4.599-1.922 1.978-1.788 2.8-5.188 1.924-7.97-.535-1.7-2.357-3.722-3.987-4.424-1.253-.538-3.588-.791-4.676-.506m21.462.121c-2.178.689-3.679 1.987-4.647 4.019-.804 1.69-.855 4.787-.104 6.433.726 1.593 2.144 2.998 3.781 3.747 1.221.559 1.705.652 3.367.644 2.334-.011 3.726-.541 5.194-1.978 1.118-1.095 1.213-1.585.378-1.965-.545-.248-.664-.196-1.475.64-.627.645-1.258 1.018-2.18 1.286-3.341.971-6.6-.606-7.512-3.636l-.32-1.062h12.993v-.75c0-2.278-1.47-5.245-3.187-6.435-1.712-1.187-4.294-1.574-6.288-.943m-22.388 2.05c-1.333.62-2.742 2.146-3.07 3.324-1.112 4.005 1.573 7.659 5.594 7.612 2.66-.031 4.78-1.62 5.51-4.132 1.374-4.722-3.55-8.893-8.034-6.805Zm22.416-.207c-1.546.55-2.96 2.215-3.351 3.945l-.168.742h5.57c3.416 0 5.57-.085 5.57-.22 0-.12-.211-.782-.468-1.47-.502-1.341-1.588-2.48-2.876-3.019-.955-.399-3.129-.388-4.277.022M23.704 23.59c-2.425 1.022-4.073 2.786-4.884 5.225-.588 1.771-.372 4.702.471 6.409.802 1.62 2.444 3.194 4.176 4.001 1.108.516 1.617.609 3.36.61 1.828.003 2.22-.075 3.54-.703 1.919-.913 3.181-2.167 4.138-4.11.695-1.412.769-1.751.76-3.51-.015-3.425-1.522-5.96-4.485-7.548-1.298-.696-1.656-.78-3.61-.846-1.877-.064-2.344 0-3.466.472M0 31.75v8.232l1.084-.07 1.085-.07.061-6.036.06-6.037 2.354 3.868c1.605 2.638 2.493 3.885 2.793 3.923.347.044.95-.792 2.837-3.934l2.398-3.99.06 6.16.061 6.16h2.048V23.517h-2.247l-2.442 4.113c-1.343 2.262-2.514 4.157-2.603 4.212s-1.027-1.332-2.086-3.081c-1.058-1.75-2.207-3.645-2.553-4.212-.61-1.001-.66-1.031-1.769-1.031H0zm38.13.01V40l4.052-.082c3.811-.076 4.13-.117 5.342-.683 1.695-.792 3.047-2.178 3.898-3.996.602-1.286.69-1.729.69-3.46.001-2.719-.603-4.28-2.32-5.997-1.971-1.971-2.982-2.265-7.79-2.265h-3.873v8.241Zm18.036-.023v8.229l4.852-.062 4.852-.061v-2.056l-3.825-.063-3.824-.063V32.65H65.3v-2.055h-7.078v-5.012l3.824-.063 3.825-.063v-1.826l-4.852-.062-4.852-.061v8.228Zm14.613 0v8.22h2.055v-6.41l2.078.065 2.078.066 1.838 3.14 1.837 3.139h1.093c.602 0 1.144-.08 1.205-.178.06-.098-.743-1.612-1.786-3.365l-1.895-3.186.6-.365c.33-.2.928-.739 1.33-1.196 2.063-2.35 1.332-5.999-1.512-7.547-1.073-.584-1.224-.602-5.014-.602H70.78v8.22Zm15.857-7.932c-.06.157-.082 3.83-.05 8.162l.06 7.876h2.056l.114-6.031.114-6.03 1.714 2.605a558 558 0 0 0 4.096 6.099l2.381 3.493.928-.068.927-.068.06-8.175.06-8.174-1.201.069-1.202.069-.115 5.745-.114 5.745-3.995-5.792-3.996-5.793-.863-.01c-.49-.005-.911.115-.974.278m-61.535 1.61c-2.694.76-4.42 3.15-4.396 6.094.013 1.771.415 2.817 1.575 4.101 1.114 1.233 2.36 1.856 4.012 2.006 3.475.315 6.314-2.033 6.733-5.57.293-2.479-1.263-5.288-3.476-6.274-1.26-.561-3.177-.715-4.448-.357M40.184 31.6v6.073h2.542c2.908 0 3.945-.243 5.102-1.197 1.335-1.1 2.03-2.712 2.042-4.739.013-1.982-.487-3.323-1.682-4.518-1.33-1.33-1.902-1.51-5.093-1.605l-2.911-.087zm32.65-3.06v2.969h2.404c2.804 0 3.764-.306 4.44-1.413a2.94 2.94 0 0 0-.977-4.076c-.61-.372-1.154-.446-3.299-.446l-2.569-.001v2.968Z" clip-rule="evenodd"/></svg>