<svg xmlns="http://www.w3.org/2000/svg" width="561" height="102" fill="none"><mask id="b" width="561" height="102" x="0" y="0" maskUnits="userSpaceOnUse" style="mask-type:alpha"><g fill="#EEE" clip-path="url(#a)"><path d="M130.901 57.359h26.437v33.877h15.48V12.77h-15.48v31.169h-26.437v-31.17h-15.48v78.468h15.48zm54.854 33.877h47.562V77.834h-32.082V57.362h28.754V43.94h-28.754V26.305h32.082V12.771h-47.564zm71.231 0 14.49-26.708 14.583 26.708h16.696l-21.557-40.472 19.238-37.995H283.74l-12.264 25.017-12.171-25.017h-16.808l19.128 37.995-21.447 40.472zm77.477-66.066c7.479 0 11.722 4.558 13.086 11.94h14.809c-2.545-17.169-12.825-25.361-28.045-25.361-17.144 0-29.204 10.46-29.204 34.61v11.153c0 23.997 12.06 34.61 29.204 34.61 15.705 0 25.315-7.693 27.857-25.363h-14.621c-1.664 7.961-5.422 11.942-13.086 11.942-8.957 0-13.724-6.71-13.724-21.267V46.281c-.075-14.843 4.695-21.111 13.724-21.111m38.755-12.401v78.467h47.543V77.834h-32.063V12.771zm105.481 78.489h16.546l-26.547-78.49h-14.806l-26.55 78.487h16.583l4.582-14.9h25.538zM452.62 62.934l8.619-27.535 8.619 27.632zm79.066-50.165h-27.092v78.486h27.092c17.257 0 29.295-9.207 29.295-34.127V46.936c0-24.995-12.038-34.167-29.295-34.167m13.815 44.36c0 13.458-3.532 20.705-13.815 20.705h-11.612V26.305h11.612c10.283 0 13.815 7.057 13.815 20.593zM0 25.502V76.51l45.632 25.502L91.263 76.51V25.5L45.632 0 0 25.503Zm82.754 46.254L45.632 92.479 8.509 71.757V30.313L45.632 9.585l37.122 20.722v41.45Z"/><path d="M32.892 45.398H22.88V25.946l-11.09 6.19v37.826l11.09 6.203V56.479h10.012v25.28l11.091 6.203v-73.83l-11.09 6.204zm46.582 24.564V58.785L58.54 69.742V31.926l20.937 11.65v-11.44l-23.72-13.25-8.477-4.75v73.826l8.348-4.67z"/></g></mask><g mask="url(#b)"><path fill="#000" d="M-27-50h619v184H-27z"/></g><defs><clipPath id="a"><path fill="#fff" d="M0 0h561v102H0z"/></clipPath></defs></svg>