<svg xmlns="http://www.w3.org/2000/svg" width="145" height="33" fill="none"><path fill="#122023" d="M20.227 12.105c-1.554-1.712-3.64-2.561-6.233-2.561q-2.678-.002-4.76 1.297a7 7 0 0 0-1.473 1.214 7.2 7.2 0 0 0-1.091 1.55V8.532c0-4.528-3.41-6.048-6.004-6.048v29.739h6.003V20.367c0-1.899.469-3.326 1.38-4.31.913-.985 2.133-1.484 3.676-1.484 1.545 0 2.7.474 3.557 1.404l.003.003c.857.905 1.3 2.2 1.3 3.912v12.33h5.962V19.258c0-3.046-.765-5.44-2.32-7.152Zm97.2-10.682C116.747.8 115.859.5 114.789.5a4.5 4.5 0 0 0-1.467.228 3.4 3.4 0 0 0-1.169.693l-.004.003c-.68.595-1.018 1.376-1.018 2.325q0 .695.255 1.278c.255.583.424.737.763 1.048l.004.002c.68.594 1.565.882 2.636.882 1.07 0 1.956-.288 2.636-.88l.002-.004a3.02 3.02 0 0 0 1.019-2.326c0-.926-.339-1.732-1.019-2.326m-11.688 25.61c-.989 0-1.64-.208-2.01-.577-.368-.367-.579-1.04-.579-2.083V14.97h4.933V9.861h-4.933V4.427h-6.004V9.86h-3.064v5.108h3.064v9.324c0 2.8.655 4.85 2.013 6.094 1.374 1.233 3.326 1.836 5.823 1.836h3.14v-5.19h-2.383ZM85.297 9.861v3.848a7.3 7.3 0 0 0-2.522-2.786c-1.364-.896-2.994-1.34-4.884-1.34-1.888 0-3.597.458-5.116 1.377-1.52.92-2.712 2.259-3.574 4.007-.84 1.724-1.254 3.752-1.254 6.074s.414 4.363 1.252 6.114l.002.002q1.296 2.586 3.574 3.967 2.281 1.377 5.116 1.376c1.89 0 3.52-.444 4.884-1.341a7.55 7.55 0 0 0 2.522-2.823v3.887h5.962V9.86zm-1.618 15.687c-1.048 1.095-2.388 1.644-4.036 1.644-1.649 0-3.057-.539-4.077-1.604-1.017-1.092-1.537-2.6-1.537-4.547s.52-3.454 1.538-4.546c1.02-1.094 2.372-1.644 4.076-1.644s2.987.561 4.035 1.682l.004.004c1.07 1.094 1.616 2.587 1.616 4.504 0 1.919-.545 3.387-1.617 4.507zM111.77 9.86v22.36h6.002V9.863h-6.002zm-45.618-.317q-2.556-.001-4.636 1.256h-.002a9 9 0 0 0-1.636 1.234 9.7 9.7 0 0 0-1.33 1.582V9.86h-6.002v22.36h6.002V21.436c0-1.87.504-3.237 1.48-4.14.978-.907 2.463-1.376 4.492-1.376h1.827V9.543zm-18.678 5.413a10 10 0 0 0-4.136-4.003q-2.597-1.37-5.862-1.37c-3.265 0-4.146.456-5.901 1.37a10 10 0 0 0-2.324 1.69 10.4 10.4 0 0 0-1.773 2.312c-1 1.728-1.498 3.76-1.498 6.086 0 2.328.498 4.36 1.499 6.087a10.4 10.4 0 0 0 4.095 4h.002q2.634 1.373 5.902 1.372 3.267 0 5.861-1.37a10.37 10.37 0 0 0 4.137-4q1.499-2.594 1.498-6.089c0-2.328-.496-4.36-1.498-6.085zm-6.159 10.747c-1.05 1.045-2.325 1.568-3.84 1.568-1.513 0-2.79-.523-3.84-1.568-1.04-1.063-1.575-2.607-1.575-4.663s.534-3.585 1.574-4.621h.002c1.051-1.075 2.327-1.61 3.84-1.61s2.787.535 3.838 1.608l.002.003c1.04 1.035 1.574 2.564 1.574 4.62s-.534 3.6-1.575 4.663m101.523-10.747a10.3 10.3 0 0 0-1.784-2.315 10 10 0 0 0-2.354-1.688 11.4 11.4 0 0 0-2.764-1.029 13.6 13.6 0 0 0-3.097-.343q-3.266 0-5.9 1.371-2.599 1.377-4.099 4.001a10.7 10.7 0 0 0-1.125 2.819 13.7 13.7 0 0 0-.373 3.268q-.002 3.496 1.498 6.087a10.43 10.43 0 0 0 4.095 4h.004q2.634 1.373 5.9 1.372c3.266-.001 4.132-.456 5.861-1.371a10.35 10.35 0 0 0 4.136-4q1.501-2.594 1.499-6.088c0-2.328-.496-4.36-1.497-6.085zm-6.159 10.747c-1.051 1.045-2.327 1.568-3.84 1.568s-2.791-.523-3.84-1.568c-1.04-1.063-1.575-2.607-1.575-4.663s.534-3.585 1.574-4.621H129c1.051-1.075 2.326-1.61 3.839-1.61s2.789.535 3.84 1.608l.001.003c1.04 1.035 1.574 2.564 1.574 4.62s-.534 3.6-1.575 4.663"/></svg>