<svg xmlns="http://www.w3.org/2000/svg" width="800" height="357" fill="none"><path fill="#0C0C0C" stroke="#343434" d="M333 38.5h392c8.56 0 15.5 6.94 15.5 15.5v287c0 8.56-6.94 15.5-15.5 15.5H333c-8.56 0-15.5-6.94-15.5-15.5V54c0-8.56 6.94-15.5 15.5-15.5Z"/><path fill="#343434" d="M375 68a6 6 0 0 1 6-6h297a6 6 0 1 1 0 12H381a6 6 0 0 1-6-6m49 24a6 6 0 0 1 6-6h199a6 6 0 1 1 0 12H430a6 6 0 0 1-6-6m165 101a6 6 0 0 1 6-6h100a6 6 0 1 1 0 12H595a6 6 0 0 1-6-6m40 28a6 6 0 0 1 6-6h60a6 6 0 1 1 0 12h-60a6 6 0 0 1-6-6"/><path fill="#fff" d="m678.199 252.274 2.296-2.506h-4.256V248.2h6.566v1.092l-2.618 2.786c1.526-.014 2.702 1.176 2.702 2.772 0 1.918-1.47 3.29-3.486 3.29-1.862 0-3.276-1.162-3.43-2.842h1.638c.14.7.784 1.246 1.792 1.246 1.05 0 1.806-.714 1.806-1.736 0-1.344-1.428-1.89-3.01-1.456zm5.603 5.726v-1.19l3.416-3.374c1.008-.994 1.498-1.568 1.498-2.338 0-.84-.686-1.442-1.596-1.442-1.106 0-1.792.756-1.75 1.96h-1.652c-.07-2.142 1.4-3.556 3.43-3.556 1.876 0 3.248 1.246 3.248 2.996 0 1.218-.798 2.268-2.016 3.416l-1.932 1.932h4.018V258zm11.774-7.868c0 1.204-.854 2.1-2.002 2.1-1.162 0-2.002-.896-2.002-2.1 0-1.19.84-2.072 2.002-2.072 1.148 0 2.002.882 2.002 2.072m2.926-1.932h1.26l-6.51 9.8h-1.26zm-3.976 1.932c0-.63-.364-1.092-.952-1.092-.602 0-.966.462-.966 1.092 0 .644.364 1.106.966 1.106.588 0 .952-.462.952-1.106m5.656 5.908c0 1.218-.854 2.1-2.016 2.1-1.148 0-2.002-.882-2.002-2.1 0-1.19.854-2.072 2.002-2.072 1.162 0 2.016.882 2.016 2.072m-1.05 0c0-.63-.378-1.078-.966-1.078s-.966.448-.966 1.078c0 .644.378 1.106.966 1.106s.966-.462.966-1.106"/><path fill="#FE7DC2" stroke="#0C0C0C" stroke-width="2" d="M454.5 130a97.495 97.495 0 0 1 90.078 60.188 97.5 97.5 0 0 1-21.135 106.255l-19.304-19.304A70.2 70.2 0 0 0 454.5 157.3z"/><path fill="#FECCE9" stroke="#0C0C0C" stroke-width="2" d="M454.5 325a97.5 97.5 0 0 1-48.75-13.063l13.65-23.642a70.2 70.2 0 0 0 35.1 9.405z"/><path fill="#FEE5F3" stroke="#0C0C0C" stroke-width="2" d="M405.75 311.937A97.5 97.5 0 0 1 357 227.5h27.3a70.2 70.2 0 0 0 35.1 60.795z"/><path fill="#D82A79" stroke="#0C0C0C" stroke-width="2" d="M357 227.5a97.5 97.5 0 0 1 28.557-68.943l19.304 19.304A70.2 70.2 0 0 0 384.3 227.5z"/><path fill="#EF459B" stroke="#0C0C0C" stroke-width="2" d="M385.557 158.557A97.5 97.5 0 0 1 454.5 130v27.3a70.2 70.2 0 0 0-49.639 20.561z"/><path fill="#FFA2D6" stroke="#0C0C0C" stroke-width="2" d="M523.443 296.443A97.5 97.5 0 0 1 454.5 325v-27.3a70.2 70.2 0 0 0 49.639-20.561z"/><path fill="#343434" d="M701 240a1 1 0 0 0 0-2zm-169.333-1a5.33 5.33 0 0 0 5.333 5.333 5.33 5.33 0 0 0 5.333-5.333 5.33 5.33 0 0 0-5.333-5.333 5.33 5.33 0 0 0-5.333 5.333M701 238H537v2h164z"/><path fill="#0C0C0C" stroke="#343434" d="M74 .5h251c8.56 0 15.5 6.94 15.5 15.5v278c0 8.56-6.94 15.5-15.5 15.5H74c-8.56 0-15.5-6.94-15.5-15.5V16C58.5 7.44 65.44.5 74 .5Z"/><path fill="#BFBFBF" d="m86.608 34-.864-2.24h-4.736l-.88 2.24h-1.984l4.464-11.2h1.568L88.64 34zm-4.912-4.032h3.344l-1.664-4.288zm9.805-7.168V34h-1.776V22.8zm3.656 0V34h-1.775V22.8zm9.044 11.36c-2.288 0-4.048-1.744-4.048-4.064s1.76-4.08 4.048-4.08c1.888 0 3.504 1.264 3.744 2.96h-1.824c-.192-.72-.992-1.248-1.92-1.248-1.296 0-2.288 1.024-2.288 2.368 0 1.328.992 2.352 2.288 2.352.928 0 1.744-.528 1.936-1.312h1.824c-.208 1.776-1.856 3.024-3.76 3.024m11.199-7.984h1.792V34H115.4v-1.376c-.56.976-1.52 1.536-2.768 1.536-2.08 0-3.744-1.824-3.744-4.08s1.664-4.064 3.744-4.064c1.248 0 2.208.56 2.768 1.536zm-2.384 6.288c1.36 0 2.384-1.024 2.384-2.384 0-1.344-1.024-2.368-2.384-2.368a2.353 2.353 0 0 0-2.368 2.368c0 1.328 1.04 2.384 2.368 2.384m10.645-4.592h-2.048v3.152c0 .992.608 1.392 1.472 1.392.192 0 .4-.016.576-.064V34a5 5 0 0 1-.96.096c-1.728 0-2.88-1.056-2.88-3.04v-3.184h-1.488v-1.696h1.488V24.08h1.792v2.096h2.048zm8.442 2.048c0 .208-.016.608-.048.752h-6c.224 1.152 1.024 1.872 2.288 1.872.96 0 1.712-.448 1.872-1.12h1.792c-.288 1.648-1.776 2.736-3.696 2.736-2.288 0-4.064-1.776-4.064-4.112 0-2.272 1.776-4.032 4.032-4.032 2.112 0 3.824 1.616 3.824 3.904m-6-.768h4.064c-.16-.896-.912-1.52-1.984-1.52-1.056 0-1.824.56-2.08 1.52m13.437-2.992h1.792v7.552c0 2.192-1.712 3.552-3.984 3.552-1.568 0-3.824-.656-3.92-2.848h1.776c.048.864.976 1.36 2.096 1.36 1.232 0 2.24-.8 2.24-2v-1.344c-.56.96-1.52 1.504-2.768 1.504-2.08 0-3.744-1.776-3.744-3.968s1.664-3.952 3.744-3.952c1.248 0 2.208.544 2.768 1.488zm-2.384 6.112c1.36 0 2.384-.976 2.384-2.304 0-1.312-1.024-2.304-2.384-2.304-1.328 0-2.368 1.024-2.368 2.304 0 1.296 1.04 2.304 2.368 2.304m9.717-6.256c2.288 0 4.064 1.76 4.064 4.08s-1.776 4.064-4.064 4.064-4.048-1.744-4.048-4.064 1.76-4.08 4.048-4.08m0 1.712c-1.296 0-2.288 1.024-2.288 2.368 0 1.328.992 2.352 2.288 2.352s2.304-1.024 2.304-2.352c0-1.344-1.008-2.368-2.304-2.368m9.443-1.712c.24 0 .496.048.736.096v1.632a3.3 3.3 0 0 0-.784-.112c-1.136 0-2.064.784-2.064 2.192V34h-1.776v-7.824h1.776v1.04c.464-.752 1.184-1.2 2.112-1.2m2.915-3.472c.624 0 1.152.528 1.152 1.136 0 .64-.528 1.152-1.152 1.152a1.144 1.144 0 0 1-1.136-1.152 1.15 1.15 0 0 1 1.136-1.136m-.896 3.632h1.776V34h-1.776zm11.112 3.744c0 .208-.016.608-.048.752h-6c.224 1.152 1.024 1.872 2.288 1.872.96 0 1.712-.448 1.872-1.12h1.792c-.288 1.648-1.776 2.736-3.696 2.736-2.288 0-4.064-1.776-4.064-4.112 0-2.272 1.776-4.032 4.032-4.032 2.112 0 3.824 1.616 3.824 3.904m-6-.768h4.064c-.16-.896-.912-1.52-1.984-1.52-1.056 0-1.824.56-2.08 1.52m10.378 5.008c-1.92 0-3.264-.992-3.424-2.672h1.712c.064.688.736 1.136 1.616 1.136.864 0 1.376-.368 1.376-.912 0-1.68-4.528-.32-4.528-3.296 0-1.36 1.136-2.4 2.96-2.4 1.616 0 3.024.864 3.2 2.448h-1.792c-.08-.528-.624-.96-1.44-.96-.704 0-1.2.304-1.2.8 0 1.584 4.544.128 4.544 3.392 0 1.408-1.296 2.464-3.024 2.464m12.57-8.144c2.08 0 3.728 1.808 3.728 4.064s-1.648 4.08-3.728 4.08c-1.264 0-2.224-.576-2.784-1.568V34h-1.776V22.8h1.776v4.784c.56-.992 1.52-1.568 2.784-1.568m-.384 6.448c1.328 0 2.368-1.056 2.368-2.384a2.353 2.353 0 0 0-2.368-2.368c-1.376 0-2.4 1.024-2.4 2.368 0 1.36 1.024 2.384 2.4 2.384m10.59-6.288h1.92l-4.416 10.576h-1.92l1.408-3.168-3.104-7.408h1.92l2.096 5.328zm11.153 1.696h-2.048v3.152c0 .992.608 1.392 1.472 1.392.192 0 .4-.016.576-.064V34a5 5 0 0 1-.96.096c-1.728 0-2.88-1.056-2.88-3.04v-3.184h-1.488v-1.696h1.488V24.08h1.792v2.096h2.048zm2.305-5.328c.624 0 1.152.528 1.152 1.136 0 .64-.528 1.152-1.152 1.152a1.144 1.144 0 0 1-1.136-1.152 1.15 1.15 0 0 1 1.136-1.136m-.896 3.632h1.776V34h-1.776zm7.304 7.984c-2.288 0-4.048-1.744-4.048-4.064s1.76-4.08 4.048-4.08c1.888 0 3.504 1.264 3.744 2.96h-1.824c-.192-.72-.992-1.248-1.92-1.248-1.296 0-2.288 1.024-2.288 2.368 0 1.328.992 2.352 2.288 2.352.928 0 1.744-.528 1.936-1.312h1.824c-.208 1.776-1.856 3.024-3.76 3.024m12.541-.16h-2.304l-3.328-3.696V34H221.6V22.8h1.776v6.752l3.168-3.376h2.224l-3.6 3.76zm7.892-4.08c0 .208-.016.608-.048.752h-6c.224 1.152 1.024 1.872 2.288 1.872.96 0 1.712-.448 1.872-1.12h1.792c-.288 1.648-1.776 2.736-3.696 2.736-2.288 0-4.064-1.776-4.064-4.112 0-2.272 1.776-4.032 4.032-4.032 2.112 0 3.824 1.616 3.824 3.904m-6-.768h4.064c-.16-.896-.912-1.52-1.984-1.52-1.056 0-1.824.56-2.08 1.52m11.839-1.28h-2.048v3.152c0 .992.608 1.392 1.472 1.392.192 0 .4-.016.576-.064V34a5 5 0 0 1-.96.096c-1.728 0-2.88-1.056-2.88-3.04v-3.184h-1.488v-1.696h1.488V24.08h1.792v2.096h2.048zm12.268-1.696L251.727 34h-1.536l-3.28-7.824h1.936l2.112 5.44 2.096-5.44zm4.398-.16c2.288 0 4.064 1.76 4.064 4.08s-1.776 4.064-4.064 4.064-4.048-1.744-4.048-4.064 1.76-4.08 4.048-4.08m0 1.712c-1.296 0-2.288 1.024-2.288 2.368 0 1.328.992 2.352 2.288 2.352s2.304-1.024 2.304-2.352c0-1.344-1.008-2.368-2.304-2.368m7.237-4.928V34h-1.776V22.8zm7.48 3.376h1.792V34h-1.792v-1.232c-.496.88-1.312 1.392-2.352 1.392-2.016 0-3.248-1.344-3.248-3.536v-4.448h1.776v4.24c0 1.232.752 2.032 1.904 2.032s1.92-.8 1.92-2.032zm12.738-.16c1.888 0 3.2 1.232 3.2 3.2V34h-1.808v-4.384c0-1.168-.64-1.888-1.696-1.888-.88 0-1.744.56-1.744 1.888V34h-1.792v-4.384c0-1.184-.656-1.888-1.712-1.888-.864 0-1.744.544-1.744 1.888V34h-1.776v-7.824h1.776v1.104c.576-.96 1.568-1.264 2.384-1.264 1.136 0 1.936.432 2.416 1.376.448-.848 1.424-1.376 2.496-1.376m12.524 3.904c0 .208-.016.608-.048.752h-6c.224 1.152 1.024 1.872 2.288 1.872.96 0 1.712-.448 1.872-1.12h1.792c-.288 1.648-1.776 2.736-3.696 2.736-2.288 0-4.064-1.776-4.064-4.112 0-2.272 1.776-4.032 4.032-4.032 2.112 0 3.824 1.616 3.824 3.904m-6-.768h4.064c-.16-.896-.912-1.52-1.984-1.52-1.056 0-1.824.56-2.08 1.52"/><path fill="#1A1A1A" d="M82 68a6 6 0 0 1 6-6h223a6 6 0 0 1 6 6v20a6 6 0 0 1-6 6H88a6 6 0 0 1-6-6z"/><path fill="#BBE600" d="M82 68a6 6 0 0 1 6-6h165a6 6 0 0 1 6 6v20a6 6 0 0 1-6 6H88a6 6 0 0 1-6-6z"/><path fill="#000" d="M98.4 84h-1.988l-2.436-3.934h-1.442V84h-1.638v-9.8h3.682c1.638 0 3.01 1.274 3.01 2.912 0 1.358-.714 2.38-1.862 2.772zm-5.866-8.218v2.716h1.988c.812 0 1.414-.588 1.414-1.386 0-.77-.602-1.33-1.414-1.33zm12.8 4.648c0 .182-.014.532-.042.658h-5.25c.196 1.008.896 1.638 2.002 1.638.84 0 1.498-.392 1.638-.98h1.568c-.252 1.442-1.554 2.394-3.234 2.394-2.002 0-3.556-1.554-3.556-3.598 0-1.988 1.554-3.528 3.528-3.528 1.848 0 3.346 1.414 3.346 3.416m-5.25-.672h3.556c-.14-.784-.798-1.33-1.736-1.33-.924 0-1.596.49-1.82 1.33m9.081 4.382c-1.68 0-2.856-.868-2.996-2.338h1.498c.056.602.644.994 1.414.994.756 0 1.204-.322 1.204-.798 0-1.47-3.962-.28-3.962-2.884 0-1.19.994-2.1 2.59-2.1 1.414 0 2.646.756 2.8 2.142h-1.568c-.07-.462-.546-.84-1.26-.84-.616 0-1.05.266-1.05.7 0 1.386 3.976.112 3.976 2.968 0 1.232-1.134 2.156-2.646 2.156m10.402-3.71c0 .182-.014.532-.042.658h-5.25c.196 1.008.896 1.638 2.002 1.638.84 0 1.498-.392 1.638-.98h1.568c-.252 1.442-1.554 2.394-3.234 2.394-2.002 0-3.556-1.554-3.556-3.598 0-1.988 1.554-3.528 3.528-3.528 1.848 0 3.346 1.414 3.346 3.416m-5.25-.672h3.556c-.14-.784-.798-1.33-1.736-1.33-.924 0-1.596.49-1.82 1.33m10.359-1.12h-1.792v2.758c0 .868.532 1.218 1.288 1.218.168 0 .35-.014.504-.056V84a4 4 0 0 1-.84.084c-1.512 0-2.52-.924-2.52-2.66v-2.786h-1.302v-1.484h1.302V75.32h1.568v1.834h1.792zm7.5-1.624c2.002 0 3.556 1.54 3.556 3.57s-1.554 3.556-3.556 3.556-3.542-1.526-3.542-3.556 1.54-3.57 3.542-3.57m0 1.498c-1.134 0-2.002.896-2.002 2.072 0 1.162.868 2.058 2.002 2.058s2.016-.896 2.016-2.058c0-1.176-.882-2.072-2.016-2.072m8.57-3.108c-.756 0-1.288.35-1.288 1.218v.532h1.778v1.484h-1.778V84h-1.568v-5.362h-1.302v-1.484h1.302v-.56c0-1.736 1.008-2.66 2.52-2.66.252 0 .602.028.826.084v1.442a1.8 1.8 0 0 0-.49-.056m8.716 1.61c1.82 0 3.262 1.596 3.262 3.57s-1.442 3.556-3.262 3.556c-1.106 0-1.946-.504-2.436-1.372v3.626h-1.554v-9.24h1.554v1.232c.49-.868 1.33-1.372 2.436-1.372m-.336 5.642a2.06 2.06 0 0 0 2.072-2.072c0-1.162-.91-2.086-2.072-2.086-1.204 0-2.1.896-2.1 2.086 0 1.176.896 2.072 2.1 2.072m10.13-5.502h1.568V84h-1.568v-1.204c-.49.854-1.33 1.344-2.422 1.344-1.82 0-3.276-1.596-3.276-3.57s1.456-3.556 3.276-3.556c1.092 0 1.932.49 2.422 1.344zm-2.086 5.502c1.19 0 2.086-.896 2.086-2.086 0-1.176-.896-2.072-2.086-2.072a2.06 2.06 0 0 0-2.072 2.072c0 1.162.91 2.086 2.072 2.086m7.858 1.484c-1.68 0-2.856-.868-2.996-2.338h1.498c.056.602.644.994 1.414.994.756 0 1.204-.322 1.204-.798 0-1.47-3.962-.28-3.962-2.884 0-1.19.994-2.1 2.59-2.1 1.414 0 2.646.756 2.8 2.142h-1.568c-.07-.462-.546-.84-1.26-.84-.616 0-1.05.266-1.05.7 0 1.386 3.976.112 3.976 2.968 0 1.232-1.134 2.156-2.646 2.156m6.399 0c-1.68 0-2.856-.868-2.996-2.338h1.498c.056.602.644.994 1.414.994.756 0 1.204-.322 1.204-.798 0-1.47-3.962-.28-3.962-2.884 0-1.19.994-2.1 2.59-2.1 1.414 0 2.646.756 2.8 2.142h-1.568c-.07-.462-.546-.84-1.26-.84-.616 0-1.05.266-1.05.7 0 1.386 3.976.112 3.976 2.968 0 1.232-1.134 2.156-2.646 2.156m5.547-.14-2.478-6.846h1.68l1.428 4.452 1.61-4.452h1.232l1.624 4.452 1.428-4.452h1.68L182.7 84h-1.246l-1.624-4.438L178.206 84zm12.091-6.986c2.002 0 3.556 1.54 3.556 3.57s-1.554 3.556-3.556 3.556-3.542-1.526-3.542-3.556 1.54-3.57 3.542-3.57m0 1.498c-1.134 0-2.002.896-2.002 2.072 0 1.162.868 2.058 2.002 2.058s2.016-.896 2.016-2.058c0-1.176-.882-2.072-2.016-2.072m8.263-1.498c.21 0 .434.042.644.084v1.428a3 3 0 0 0-.686-.098c-.994 0-1.806.686-1.806 1.918V84h-1.554v-6.846h1.554v.91c.406-.658 1.036-1.05 1.848-1.05m6.58-2.814h1.568V84h-1.568v-1.204c-.49.854-1.33 1.344-2.422 1.344-1.82 0-3.276-1.596-3.276-3.57s1.456-3.556 3.276-3.556c1.092 0 1.932.49 2.422 1.344zm-2.086 8.456c1.19 0 2.086-.896 2.086-2.086 0-1.176-.896-2.072-2.086-2.072a2.06 2.06 0 0 0-2.072 2.072c0 1.162.91 2.086 2.072 2.086"/><path fill="#fff" d="M287.112 80.416V81.9h-1.162V84h-1.638v-2.1h-4.872v-1.12l3.486-6.58h1.862l-3.304 6.216h2.828v-2.758h1.638v2.758zm4.407-2.856c1.792 0 3.136 1.372 3.136 3.234 0 1.834-1.54 3.346-3.416 3.346s-3.416-1.512-3.416-3.346c0-.672.252-1.554.784-2.408l2.604-4.186h1.876l-2.198 3.458c.21-.056.42-.098.63-.098m-.28 5.026c1.036 0 1.834-.798 1.834-1.806a1.826 1.826 0 0 0-1.848-1.834c-1.008 0-1.806.812-1.806 1.834 0 1.008.798 1.806 1.82 1.806m8.337-6.454c0 1.204-.854 2.1-2.002 2.1-1.162 0-2.002-.896-2.002-2.1 0-1.19.84-2.072 2.002-2.072 1.148 0 2.002.882 2.002 2.072m2.926-1.932h1.26l-6.51 9.8h-1.26zm-3.976 1.932c0-.63-.364-1.092-.952-1.092-.602 0-.966.462-.966 1.092 0 .644.364 1.106.966 1.106.588 0 .952-.462.952-1.106m5.656 5.908c0 1.218-.854 2.1-2.016 2.1-1.148 0-2.002-.882-2.002-2.1 0-1.19.854-2.072 2.002-2.072 1.162 0 2.016.882 2.016 2.072m-1.05 0c0-.63-.378-1.078-.966-1.078s-.966.448-.966 1.078c0 .644.378 1.106.966 1.106s.966-.462.966-1.106"/><path fill="#1A1A1A" d="M82 116a6 6 0 0 1 6-6h223a6 6 0 0 1 6 6v20a6 6 0 0 1-6 6H88a6 6 0 0 1-6-6z"/><path fill="#D8FF0F" d="M82 116a6 6 0 0 1 6-6h148a6 6 0 0 1 6 6v20a6 6 0 0 1-6 6H88a6 6 0 0 1-6-6z"/><path fill="#000" d="M94.648 122.2c1.806 0 3.136 1.274 3.136 2.996 0 1.75-1.33 3.024-3.136 3.024h-2.114V132h-1.638v-9.8zm0 4.452c.854 0 1.484-.63 1.484-1.456 0-.812-.63-1.428-1.484-1.428h-2.114v2.884zm7.674-1.638c.21 0 .434.042.644.084v1.428a3 3 0 0 0-.686-.098c-.994 0-1.806.686-1.806 1.918V132H98.92v-6.846h1.554v.91c.406-.658 1.036-1.05 1.848-1.05m4.425 0c2.002 0 3.556 1.54 3.556 3.57s-1.554 3.556-3.556 3.556-3.542-1.526-3.542-3.556 1.54-3.57 3.542-3.57m0 1.498c-1.134 0-2.002.896-2.002 2.072 0 1.162.868 2.058 2.002 2.058s2.016-.896 2.016-2.058c0-1.176-.882-2.072-2.016-2.072m8.768-1.498c1.82 0 3.262 1.582 3.262 3.556s-1.442 3.57-3.262 3.57c-1.106 0-1.946-.504-2.436-1.372V132h-1.554v-9.8h1.554v4.186c.49-.868 1.33-1.372 2.436-1.372m-.336 5.642a2.06 2.06 0 0 0 2.072-2.086c0-1.148-.91-2.072-2.072-2.072-1.204 0-2.1.896-2.1 2.072 0 1.19.896 2.086 2.1 2.086m6.39-8.456v9.8h-1.554v-9.8zm8.047 6.23c0 .182-.014.532-.042.658h-5.25c.196 1.008.896 1.638 2.002 1.638.84 0 1.498-.392 1.638-.98h1.568c-.252 1.442-1.554 2.394-3.234 2.394-2.002 0-3.556-1.554-3.556-3.598 0-1.988 1.554-3.528 3.528-3.528 1.848 0 3.346 1.414 3.346 3.416m-5.25-.672h3.556c-.14-.784-.798-1.33-1.736-1.33-.924 0-1.596.49-1.82 1.33m14.484-2.744c1.652 0 2.8 1.078 2.8 2.8V132h-1.582v-3.836c0-1.022-.56-1.652-1.484-1.652-.77 0-1.526.49-1.526 1.652V132h-1.568v-3.836c0-1.036-.574-1.652-1.498-1.652-.756 0-1.526.476-1.526 1.652V132h-1.554v-6.846h1.554v.966c.504-.84 1.372-1.106 2.086-1.106.994 0 1.694.378 2.114 1.204.392-.742 1.246-1.204 2.184-1.204m6.983 7.126c-1.68 0-2.856-.868-2.996-2.338h1.498c.056.602.644.994 1.414.994.756 0 1.204-.322 1.204-.798 0-1.47-3.962-.28-3.962-2.884 0-1.19.994-2.1 2.59-2.1 1.414 0 2.646.756 2.8 2.142h-1.568c-.07-.462-.546-.84-1.26-.84-.616 0-1.05.266-1.05.7 0 1.386 3.976.112 3.976 2.968 0 1.232-1.134 2.156-2.646 2.156m8.829-.14-2.478-6.846h1.68l1.428 4.452 1.61-4.452h1.232l1.624 4.452 1.428-4.452h1.68L160.388 132h-1.246l-1.624-4.438-1.624 4.438zm9.997-10.024c.546 0 1.008.462 1.008.994 0 .56-.462 1.008-1.008 1.008a1 1 0 0 1 0-2.002m-.784 3.178h1.554V132h-1.554zm7.203 1.484h-1.792v2.758c0 .868.532 1.218 1.288 1.218.168 0 .35-.014.504-.056V132a4 4 0 0 1-.84.084c-1.512 0-2.52-.924-2.52-2.66v-2.786h-1.302v-1.484h1.302v-1.834h1.568v1.834h1.792zm4.858-1.624c1.75 0 2.842 1.176 2.842 3.08V132h-1.568v-3.71c0-1.078-.658-1.778-1.652-1.778-1.022 0-1.694.7-1.694 1.778V132h-1.554v-9.8h1.554v4.032c.434-.77 1.162-1.218 2.072-1.218m12.458.14h1.568V132h-1.568v-1.078c-.434.77-1.148 1.218-2.058 1.218-1.764 0-2.842-1.176-2.842-3.094v-3.892h1.554v3.71c0 1.078.658 1.778 1.666 1.778s1.68-.7 1.68-1.778zm7.197-.14c1.82 0 3.262 1.596 3.262 3.57s-1.442 3.556-3.262 3.556c-1.106 0-1.946-.504-2.436-1.372v3.626h-1.554v-9.24h1.554v1.232c.49-.868 1.33-1.372 2.436-1.372m-.336 5.642a2.06 2.06 0 0 0 2.072-2.072c0-1.162-.91-2.086-2.072-2.086-1.204 0-2.1.896-2.1 2.086 0 1.176.896 2.072 2.1 2.072m6.391-8.456v9.8h-1.554v-9.8zm4.714 2.814c2.002 0 3.556 1.54 3.556 3.57s-1.554 3.556-3.556 3.556-3.542-1.526-3.542-3.556 1.54-3.57 3.542-3.57m0 1.498c-1.134 0-2.002.896-2.002 2.072 0 1.162.868 2.058 2.002 2.058s2.016-.896 2.016-2.058c0-1.176-.882-2.072-2.016-2.072m10.072-1.358H218V132h-1.568v-1.204c-.49.854-1.33 1.344-2.422 1.344-1.82 0-3.276-1.596-3.276-3.57s1.456-3.556 3.276-3.556c1.092 0 1.932.49 2.422 1.344zm-2.086 5.502c1.19 0 2.086-.896 2.086-2.086 0-1.176-.896-2.072-2.086-2.072a2.06 2.06 0 0 0-2.072 2.072c0 1.162.91 2.086 2.072 2.086m10.658-8.456h1.568v9.8h-1.568v-1.204c-.49.854-1.33 1.344-2.422 1.344-1.82 0-3.276-1.596-3.276-3.57s1.456-3.556 3.276-3.556c1.092 0 1.932.49 2.422 1.344zm-2.086 8.456c1.19 0 2.086-.896 2.086-2.086 0-1.176-.896-2.072-2.086-2.072a2.06 2.06 0 0 0-2.072 2.072c0 1.162.91 2.086 2.072 2.086m7.858 1.484c-1.68 0-2.856-.868-2.996-2.338h1.498c.056.602.644.994 1.414.994.756 0 1.204-.322 1.204-.798 0-1.47-3.962-.28-3.962-2.884 0-1.19.994-2.1 2.59-2.1 1.414 0 2.646.756 2.8 2.142h-1.568c-.07-.462-.546-.84-1.26-.84-.616 0-1.05.266-1.05.7 0 1.386 3.976.112 3.976 2.968 0 1.232-1.134 2.156-2.646 2.156"/><path fill="#fff" d="M287.399 128.416v1.484h-1.162v2.1h-1.638v-2.1h-4.872v-1.12l3.486-6.58h1.862l-3.304 6.216h2.828v-2.758h1.638v2.758zm2.757-2.142 2.296-2.506h-4.256V122.2h6.566v1.092l-2.618 2.786c1.526-.014 2.702 1.176 2.702 2.772 0 1.918-1.47 3.29-3.486 3.29-1.862 0-3.276-1.162-3.43-2.842h1.638c.14.7.784 1.246 1.792 1.246 1.05 0 1.806-.714 1.806-1.736 0-1.344-1.428-1.89-3.01-1.456zm9.42-2.142c0 1.204-.854 2.1-2.002 2.1-1.162 0-2.002-.896-2.002-2.1 0-1.19.84-2.072 2.002-2.072 1.148 0 2.002.882 2.002 2.072m2.926-1.932h1.26l-6.51 9.8h-1.26zm-3.976 1.932c0-.63-.364-1.092-.952-1.092-.602 0-.966.462-.966 1.092 0 .644.364 1.106.966 1.106.588 0 .952-.462.952-1.106m5.656 5.908c0 1.218-.854 2.1-2.016 2.1-1.148 0-2.002-.882-2.002-2.1 0-1.19.854-2.072 2.002-2.072 1.162 0 2.016.882 2.016 2.072m-1.05 0c0-.63-.378-1.078-.966-1.078s-.966.448-.966 1.078c0 .644.378 1.106.966 1.106s.966-.462.966-1.106"/><path fill="#1A1A1A" d="M82 164a6 6 0 0 1 6-6h223a6 6 0 0 1 6 6v20a6 6 0 0 1-6 6H88a6 6 0 0 1-6-6z"/><path fill="#E9FF50" d="M82 164a6 6 0 0 1 6-6h133a6 6 0 0 1 6 6v20a6 6 0 0 1-6 6H88a6 6 0 0 1-6-6z"/><path fill="#000" fill-opacity=".2" d="M92 174a6 6 0 0 1 6-6h60a6 6 0 1 1 0 12H98a6 6 0 0 1-6-6"/><path fill="#fff" d="m282.199 174.274 2.296-2.506h-4.256V170.2h6.566v1.092l-2.618 2.786c1.526-.014 2.702 1.176 2.702 2.772 0 1.918-1.47 3.29-3.486 3.29-1.862 0-3.276-1.162-3.43-2.842h1.638c.14.7.784 1.246 1.792 1.246 1.05 0 1.806-.714 1.806-1.736 0-1.344-1.428-1.89-3.01-1.456zm5.603 5.726v-1.19l3.416-3.374c1.008-.994 1.498-1.568 1.498-2.338 0-.84-.686-1.442-1.596-1.442-1.106 0-1.792.756-1.75 1.96h-1.652c-.07-2.142 1.4-3.556 3.43-3.556 1.876 0 3.248 1.246 3.248 2.996 0 1.218-.798 2.268-2.016 3.416l-1.932 1.932h4.018V180zm11.774-7.868c0 1.204-.854 2.1-2.002 2.1-1.162 0-2.002-.896-2.002-2.1 0-1.19.84-2.072 2.002-2.072 1.148 0 2.002.882 2.002 2.072m2.926-1.932h1.26l-6.51 9.8h-1.26zm-3.976 1.932c0-.63-.364-1.092-.952-1.092-.602 0-.966.462-.966 1.092 0 .644.364 1.106.966 1.106.588 0 .952-.462.952-1.106m5.656 5.908c0 1.218-.854 2.1-2.016 2.1-1.148 0-2.002-.882-2.002-2.1 0-1.19.854-2.072 2.002-2.072 1.162 0 2.016.882 2.016 2.072m-1.05 0c0-.63-.378-1.078-.966-1.078s-.966.448-.966 1.078c0 .644.378 1.106.966 1.106s.966-.462.966-1.106"/><path fill="#1A1A1A" d="M82 212a6 6 0 0 1 6-6h223a6 6 0 0 1 6 6v20a6 6 0 0 1-6 6H88a6 6 0 0 1-6-6z"/><path fill="#F5FF90" d="M82 212a6 6 0 0 1 6-6h103a6 6 0 0 1 6 6v20a6 6 0 0 1-6 6H88a6 6 0 0 1-6-6z"/><path fill="#000" fill-opacity=".2" d="M92 222a6 6 0 0 1 6-6h43a6 6 0 1 1 0 12H98a6 6 0 0 1-6-6"/><path fill="#fff" d="M280.282 228v-1.19l3.416-3.374c1.008-.994 1.498-1.568 1.498-2.338 0-.84-.686-1.442-1.596-1.442-1.106 0-1.792.756-1.75 1.96h-1.652c-.07-2.142 1.4-3.556 3.43-3.556 1.876 0 3.248 1.246 3.248 2.996 0 1.218-.798 2.268-2.016 3.416l-1.932 1.932h4.018V228zm10.984.112c-1.96 0-3.36-1.218-3.36-2.912 0-1.092.714-2.072 1.764-2.478-.826-.364-1.386-1.204-1.386-2.044 0-1.512 1.232-2.576 2.982-2.576 1.722 0 2.968 1.064 2.968 2.576 0 .854-.56 1.694-1.386 2.044 1.05.392 1.764 1.358 1.764 2.478 0 1.694-1.4 2.912-3.346 2.912m0-6.16c.812 0 1.386-.504 1.386-1.19 0-.7-.574-1.204-1.386-1.204s-1.4.504-1.4 1.204c0 .686.588 1.19 1.4 1.19m0 4.648c.994 0 1.722-.644 1.722-1.498 0-.868-.728-1.498-1.722-1.498-1.008 0-1.736.63-1.736 1.498 0 .854.728 1.498 1.736 1.498m8.31-6.468c0 1.204-.854 2.1-2.002 2.1-1.162 0-2.002-.896-2.002-2.1 0-1.19.84-2.072 2.002-2.072 1.148 0 2.002.882 2.002 2.072m2.926-1.932h1.26l-6.51 9.8h-1.26zm-3.976 1.932c0-.63-.364-1.092-.952-1.092-.602 0-.966.462-.966 1.092 0 .644.364 1.106.966 1.106.588 0 .952-.462.952-1.106m5.656 5.908c0 1.218-.854 2.1-2.016 2.1-1.148 0-2.002-.882-2.002-2.1 0-1.19.854-2.072 2.002-2.072 1.162 0 2.016.882 2.016 2.072m-1.05 0c0-.63-.378-1.078-.966-1.078s-.966.448-.966 1.078c0 .644.378 1.106.966 1.106s.966-.462.966-1.106"/><path fill="#1A1A1A" d="M82 260a6 6 0 0 1 6-6h223a6 6 0 0 1 6 6v20a6 6 0 0 1-6 6H88a6 6 0 0 1-6-6z"/><path fill="#FBFFC4" d="M82 260a6 6 0 0 1 6-6h75a6 6 0 0 1 6 6v20a6 6 0 0 1-6 6H88a6 6 0 0 1-6-6z"/><path fill="#000" fill-opacity=".2" d="M92 270a6 6 0 0 1 6-6h32a6 6 0 1 1 0 12H98a6 6 0 0 1-6-6"/><path fill="#fff" d="M280.651 276v-1.19l3.416-3.374c1.008-.994 1.498-1.568 1.498-2.338 0-.84-.686-1.442-1.596-1.442-1.106 0-1.792.756-1.75 1.96h-1.652c-.07-2.142 1.4-3.556 3.43-3.556 1.876 0 3.248 1.246 3.248 2.996 0 1.218-.798 2.268-2.016 3.416l-1.932 1.932h4.018V276zm9.505-5.726 2.296-2.506h-4.256V266.2h6.566v1.092l-2.618 2.786c1.526-.014 2.702 1.176 2.702 2.772 0 1.918-1.47 3.29-3.486 3.29-1.862 0-3.276-1.162-3.43-2.842h1.638c.14.7.784 1.246 1.792 1.246 1.05 0 1.806-.714 1.806-1.736 0-1.344-1.428-1.89-3.01-1.456zm9.42-2.142c0 1.204-.854 2.1-2.002 2.1-1.162 0-2.002-.896-2.002-2.1 0-1.19.84-2.072 2.002-2.072 1.148 0 2.002.882 2.002 2.072m2.926-1.932h1.26l-6.51 9.8h-1.26zm-3.976 1.932c0-.63-.364-1.092-.952-1.092-.602 0-.966.462-.966 1.092 0 .644.364 1.106.966 1.106.588 0 .952-.462.952-1.106m5.656 5.908c0 1.218-.854 2.1-2.016 2.1-1.148 0-2.002-.882-2.002-2.1 0-1.19.854-2.072 2.002-2.072 1.162 0 2.016.882 2.016 2.072m-1.05 0c0-.63-.378-1.078-.966-1.078s-.966.448-.966 1.078c0 .644.378 1.106.966 1.106s.966-.462.966-1.106"/></svg>