<svg xmlns="http://www.w3.org/2000/svg" width="89" height="44" fill="none"><path fill="#000" d="M0 5.434v5.401h7.47V9.121H1.911V6.206h5.038V4.492H1.911V1.748h5.386V.034H0zM10.252.085c0 .034.938 2.452 2.067 5.366l2.085 5.298h1.79l2.12-5.315L20.432.12 19.58.068c-.469-.034-.955-.017-1.06.017-.121.052-.868 1.818-1.667 3.943-.8 2.143-1.512 3.84-1.564 3.79-.052-.052-.712-1.8-1.476-3.892L12.423.119 11.329.068c-.59-.034-1.077-.017-1.077.017m12.68 5.349v5.401h7.644V9.121h-5.733V6.206h5.038V4.492h-5.038V1.748h5.385V.034h-7.296zm11.295 0v5.401h2.084V6.377h.591c.573 0 .626.052 1.859 2.23l1.286 2.21 1.181.018c.643 0 1.164-.034 1.164-.069 0-.051-.66-1.114-1.442-2.366l-1.46-2.28.643-.274c1.86-.823 2.328-3.532.852-4.903-.8-.755-1.425-.875-4.187-.892L34.227.034zm4.934-3.497c.816.377.955 1.8.225 2.297-.26.172-.816.258-1.72.258h-1.355V1.748h1.217c.66 0 1.39.086 1.633.189M43.781.12c0 .051.904 1.44 1.998 3.103l1.998 3v4.612h1.911V6.377l2.085-3.086C52.92 1.594 53.858.171 53.858.12c0-.052-.504-.086-1.13-.086H51.6l-.643.977c-.347.549-.973 1.526-1.39 2.178l-.764 1.165-1.338-2.16L46.127.051 44.963.034c-.66 0-1.182.034-1.182.086m13.031 5.315v5.417l2.763-.05 2.745-.052 1.198-.6c1.963-.995 2.954-2.658 2.919-4.887C66.385 3.19 65.29 1.406 63.484.55 62.702.172 62.389.12 59.73.069L56.812 0zm4.865-3.498c2.206.463 3.422 2.966 2.45 5.04-.643 1.372-1.755 1.973-3.962 2.11l-1.442.085V1.75h1.043c.556 0 1.424.086 1.91.188Zm8.511 3.343c-1.285 2.88-2.362 5.315-2.397 5.4-.035.086.434.155 1.042.155h1.095l1.65-4.012c.904-2.211 1.703-3.977 1.772-3.909.052.069.834 1.869 1.703 4.012l1.616 3.909h2.189l-.539-1.252a992 992 0 0 1-2.31-5.349L74.235.12l-.851-.052-.851-.051-2.346 5.263Zm9.1-4.303c.347.514 1.285 1.92 2.102 3.12l1.477 2.195v4.543h1.911v-2.28c0-2.109.034-2.315.417-2.88.226-.326 1.164-1.732 2.084-3.12L88.947.033h-2.345l-1.373 2.143c-.764 1.183-1.442 2.092-1.494 2.023-.07-.086-.677-1.046-1.372-2.16L81.112.034H78.68zM35.096 15.018c-4.57.96-7.922 4.08-9.138 8.504-.487 1.732-.417 4.989.121 6.772.626 2.023 1.564 3.583 3.093 5.058 3.544 3.463 9.12 4.269 13.916 2.023 1.181-.566 1.754-.977 2.884-2.092 2.362-2.349 3.353-4.612 3.492-7.99.07-1.61.017-2.245-.278-3.497-1.008-4.166-3.927-7.218-8.096-8.503-1.564-.463-4.413-.6-5.994-.275m5.212 3.96c2.085.824 3.735 2.47 4.534 4.51.452 1.2.643 3.806.348 5.195-.504 2.417-2.137 4.508-4.309 5.52-1.129.531-1.268.549-3.353.549-2.12 0-2.206-.018-3.353-.566-4.134-2.006-5.698-7.44-3.387-11.71.92-1.714 2.936-3.291 4.777-3.754 1.025-.24 3.84-.086 4.743.257Zm19.019-3.651c-.053.12-1.147 2.95-2.433 6.275s-2.345 6.12-2.345 6.224c0 .085.92.154 2.172.154 1.285 0 2.171.069 2.171.171 0 .086-.747 3.532-1.65 7.647-.904 4.132-1.599 7.543-1.546 7.595.069.051.138.034.173-.069.052-.103 2.328-4.303 5.09-9.343s4.987-9.224 4.934-9.31c-.034-.069-1.163-.12-2.501-.12-1.32 0-2.415-.034-2.415-.068 0-.035.782-2.11 1.737-4.578.956-2.486 1.738-4.578 1.738-4.663 0-.069-1.13-.12-2.52-.12-1.858 0-2.553.051-2.605.205M0 26.695V38.13l5.177-.069c5.855-.085 6.202-.154 8.86-1.44 2.92-1.406 5.039-4.012 5.855-7.183.365-1.458.348-4.184-.07-5.778-.781-3.035-2.953-5.812-5.437-6.978-2.415-1.131-3.318-1.251-9.12-1.354L0 15.259zm10.32-7.373c2.171.463 3.909 1.784 4.882 3.755 1.806 3.686.66 8.075-2.606 9.978-1.616.926-2.589 1.132-5.681 1.234l-2.92.07V19.064h2.572c1.564 0 3.023.103 3.753.257Zm62.944-3.909c-.07.051-.121 5.194-.121 11.4v11.282h15.809v-3.772H77.138v-6h10.424V24.55H77.138v-5.487h11.31l-.052-1.851-.052-1.835-7.488-.051c-4.117-.017-7.54.017-7.592.086Z"/></svg>