<svg xmlns="http://www.w3.org/2000/svg" width="631" height="486" fill="none"><mask id="a" width="529" height="374" x="49" y="56" maskUnits="userSpaceOnUse" style="mask-type:alpha"><path fill="#0032A0" d="M207.39 249.992c-8.02 0-14.04 5.52-17.05 15.55-.74 2.71-2.21 7.61-3.51 11.89v-25.93h-36.11v13.54s10.03 2.51 10.03 10.03v47.64c0 8.02-10.03 10.53-10.03 10.53v13.54h52.16v-13.54s-15.05-2.51-15.05-10.53v-37.11h17.55c14.54 0 20.56-8.53 20.56-17.05 0-9.03-7.02-18.56-18.55-18.56m210.63-35.11c-2.01 1-4.51 1.5-6.52 1.5-5.02 0-8.53-3.01-8.53-10.53v-39.12h23.07v-23.57h-23.07v-23.06h-13.04c-5.01 13.04-14.04 21.57-14.04 23.07v72.22c0 15.05 12.04 24.57 26.58 24.57 8.03 0 16.05-2.51 23.57-8.53zm45.14 111.84h-23.07l44.13-53.66v-21.56h-76.23v30.59h13.54s3.01-10.53 10.53-10.53h17.55l-42.63 52.16v23.07h80.24v-30.09h-13.54c.01-.01-2.5 10.02-10.52 10.02m-195.59-58.18c7.52 0 13.04 7.02 13.04 17.55l-27.53 5.84c.04-14.91 7.46-23.39 14.49-23.39m12.03 57.18c-11.64 0-21.66-5.61-25.46-17.15l56.05-10.94v-4.51c0-29.09-18.56-43.13-40.62-43.13-30.59 0-47.14 25.08-47.14 49.65s16.55 48.65 49.65 48.65c13.54 0 29.09-4.01 39.12-15.05l-9.53-16.05c-6.02 5.52-14.54 8.53-22.07 8.53m79.24-57.18c7.52 0 13.04 7.02 13.04 17.55l-27.53 5.84c.05-14.91 7.46-23.39 14.49-23.39m12.04 57.18c-11.64 0-21.66-5.61-25.46-17.15l56.05-10.94v-4.51c0-29.09-18.56-43.13-40.62-43.13-30.59 0-47.14 25.08-47.14 49.65s16.55 48.65 49.65 48.65c13.54 0 29.09-4.01 39.12-15.05l-9.53-16.05c-6.02 5.52-14.55 8.53-22.07 8.53m-270.82 3.51c-4.01 0-9.53-1-13.04-3.51v-44.13c4.01-5.52 8.53-9.03 15.04-9.03 11.03 0 20.06 10.53 20.06 27.08.01 13.54-6.01 29.59-22.06 29.59m10.03-79.74c-9.53 0-17.05 3.51-23.07 8.03v-49.65H49.91v13.54s10.03 3.01 10.03 10.53v109.83c9.03 3.51 21.56 7.02 35.11 7.02 33.6 0 55.17-21.57 55.17-52.16-.01-28.59-18.06-47.14-40.13-47.14m143.43-47.65c0 10.03-11.53 17.05-19.56 17.05-5.52 0-10.03-2.51-10.03-8.53 0-9.03 9.53-12.04 19.06-12.04 3.51 0 7.02.5 10.53 1zm-16.04-19.56c-32.1 0-41.12 19.06-41.12 31.09 0 14.04 11.53 26.58 30.09 26.58 13.09 0 23.28-5.81 28.08-14.16v12.65h34.1v-13.54s-8.02-3.01-8.02-11.03v-32.1c0-33.1-24.07-40.12-43.13-40.12-25.58 0-39.62 11.03-39.62 24.07 0 9.53 8.02 15.55 16.05 15.55 9.03 0 18.56-7.02 18.56-22.07 11.03-1 21.06 7.02 21.06 20.56v4.51c-4.52-1.48-11.04-1.99-16.05-1.99m107.82 42.63s-14.54-3.01-14.54-11.03v-36.61h17.55c14.54 0 20.56-8.53 20.56-17.55 0-9.03-6.52-18.05-18.05-18.05-9.03 0-14.04 6.52-17.05 15.04-1 2.76-2.63 7.9-4.01 12.35v-25.89h-36.11v13.54s10.03 2.51 10.03 10.03v47.14c0 8.03-10.03 11.03-10.03 11.03v13.54h51.65zm188.57 43.63c7.52 0 13.04 7.02 13.04 17.55l-27.53 5.84c.04-14.91 7.46-23.39 14.49-23.39m34.1 48.65c-6.02 5.52-14.54 8.53-22.07 8.53-11.64 0-21.66-5.61-25.46-17.15l56.06-10.94v-4.51c0-29.09-18.56-43.13-40.62-43.13-30.59 0-47.14 25.08-47.14 49.65s16.55 48.65 49.65 48.65c13.54 0 29.09-4.01 39.12-15.05zm-419.76-156.97c8.03 0 13.54 7.02 13.54 17.55l-29.09 6.02c0-15.05 8.03-23.57 15.55-23.57m5.01 79.74c17.05 0 31.59-6.02 39.12-15.05l-9.53-16.05c-6.02 5.52-14.54 8.53-22.57 8.53-12.04 0-22.57-5.52-26.58-17.05l57.67-11.03v-4.51c0-29.09-18.56-43.13-41.12-43.13-30.59 0-48.15 25.07-48.15 49.65.01 24.06 17.06 48.64 51.16 48.64m335.32-14.531v13.54h47.14v-13.54s-9.53-3.01-9.53-11.03v-42.13c0-16.55-11.53-30.09-30.59-30.09-13.09 0-22.58 5.62-29.09 13.7v-57.33h-37.11v13.54s10.03 2.51 10.03 10.03v92.28c0 8.03-10.03 11.03-10.03 11.03v13.54h47.14v-13.54s-10.03-3.01-10.03-11.03v-29.09c0-11.03 8.53-21.56 18.56-21.56 7.52 0 13.54 5.52 13.54 15.55v35.11c0 8.01-10.03 11.02-10.03 11.02m-56.96 129.2c-37.12 38.44-93.81 56.88-153.47 49.38-39.17-4.92-64.85-22.49-90.02-46.44-.55-.51-1.09-1.03-1.64-1.55h-.7c30.1 44.22 77.31 73.27 134.88 73.27 58.19 0 109.44-29.65 139.5-74.67h-28.55z"/><path fill="#00A1E0" d="M188.1 357.58c29.9 27.71 69.91 44.67 113.89 44.67 45.53 0 86.81-18.16 117.02-47.62h12.57c.05-.05.11-.1.16-.16h-31.19v-14.48c.01-.02-36.39 52.14-146.63 44.73-25.81-1.73-58.27-22.83-66.85-28.7h-.62c.54.52 1.11 1.04 1.65 1.56"/><path fill="#0071CE" d="M301.99 402.251c-43.98 0-83.99-16.96-113.89-44.67 25.17 23.94 50.85 41.52 90.02 46.44 59.65 7.49 116.35-10.94 153.47-49.38h-12.57c-30.22 29.45-71.5 47.61-117.03 47.61"/><path fill="#0032A0" d="M336.49 64.88c31.43 0 60.05 10.35 83.13 28.17h.49c-28.14-26.2-63.76-36.34-102.69-36.34-61.29 0-114.89 32.9-144.13 81.991 7.91 3.76 14.27 9.58 18.7 17.12 2.72-6.52 8.28-12.43 16.91-16.48 24.11-39.71 77.94-74.46 127.59-74.46Z"/><path fill="#00A1E0" d="M344.2 73.991c-53.75-1.4-104.13 25.74-134.82 65.11 7.21-3.29 16.52-5.29 28.1-5.29 3.2 0 6.25.18 9.18.51 25.05-31.98 65.88-54.99 109.62-54.99 21.87 0 46.36 6.68 61.86 13.71h.86c-8.69-4.92-35.36-18.02-74.8-19.05"/><path fill="#0071CE" d="M344.2 73.991c39.44 1.03 66.11 14.13 74.8 19.05h.63c-23.07-17.81-51.69-28.17-83.13-28.17-49.65 0-103.48 34.75-127.58 74.46.16-.07.31-.16.47-.23 30.68-39.36 81.06-66.51 134.81-65.11"/><path fill="#0032A0" d="M576.76 254.81c0 2.43-1.94 4.39-4.41 4.39-2.45 0-4.41-1.97-4.41-4.39 0-2.47 1.97-4.41 4.41-4.41 2.47-.01 4.41 1.96 4.41 4.41m-1 0c0-1.92-1.46-3.47-3.41-3.47-1.92 0-3.39 1.55-3.39 3.47s1.46 3.47 3.39 3.47c1.94 0 3.41-1.55 3.41-3.47m-2.51.59 1.22 1.66h-1.29l-1.07-1.6h-.44v1.6h-1.07v-4.65h2.1c1 0 1.62.57 1.62 1.55 0 .82-.4 1.28-1.07 1.44m-1.58-1.93v1.01h.96c.33 0 .55-.15.55-.5 0-.33-.2-.5-.55-.5h-.96z"/></mask><g mask="url(#a)"><path fill="#000" d="M50 57h528v372H50z"/></g></svg>