<svg xmlns="http://www.w3.org/2000/svg" width="131" height="28" fill="none"><mask id="b" width="131" height="28" x="0" y="0" maskUnits="userSpaceOnUse" style="mask-type:alpha"><g clip-path="url(#a)"><path fill="#1D1D1B" d="M42.07 20.653V8.765h-4.225V6.716H48.49V8.77h-4.264v11.888l-2.156-.004Zm12.806-3.233 2.137.29c-.786 2.188-2.463 3.136-4.58 3.136-2.966 0-5.044-2.186-5.044-5.286s2.097-5.284 4.91-5.284 4.99 2.072 4.99 5.944H49.59c.173 1.683 1.309 2.766 2.868 2.766 1.226.002 2.082-.676 2.418-1.567Zm-5.274-2.828h5.41c-.232-1.276-1.195-2.457-2.715-2.457s-2.483 1.181-2.695 2.457m9.343-4.122h2.04v1.199h.038c.405-.774 1.195-1.296 2.406-1.296.255-.001.508.038.75.117v1.975a2.2 2.2 0 0 0-.75-.114c-1.48 0-2.445.967-2.445 2.457v5.847h-2.039zm6.421 0h2.041v1.199h.037c.405-.774 1.194-1.296 2.406-1.296.256-.001.51.038.753.117v1.975a2.2 2.2 0 0 0-.753-.114c-1.48 0-2.443.967-2.443 2.457v5.847h-2.04V10.47Zm14.708 8.674q-.004.758.096 1.509h-2.002c-.039-.33-.076-.988-.076-1.491h-.04c-.785 1.22-2.02 1.684-3.252 1.684-2.214 0-3.504-1.2-3.504-3.097 0-1.975 1.463-2.943 3.292-3.04l3.445-.174v-.484c0-1.298-.923-2.09-2.251-2.09s-2.1.755-2.196 1.82h-2.078c.196-2.073 1.732-3.505 4.321-3.505 2.715 0 4.255 1.606 4.255 4.008zm-2.041-3.02-2.75.153c-1.194.058-1.868.484-1.868 1.452 0 .852.674 1.383 1.829 1.383 1.347 0 2.79-.677 2.79-2.382l-.001-.607Zm16.87 4.529-4.6-6.448-1.179 1.201v5.247h-2.16V6.716h2.16v5.964l5.484-5.964h2.947L91.72 12.74l6.063 7.918-2.881-.004Zm11.853-1.509a11 11 0 0 0 .096 1.509h-2.001c-.039-.33-.079-.988-.079-1.491h-.037c-.786 1.22-2.021 1.684-3.254 1.684-2.214 0-3.502-1.2-3.502-3.097 0-1.975 1.463-2.943 3.291-3.04l3.445-.174v-.484c0-1.298-.923-2.09-2.252-2.09-1.33 0-2.098.755-2.194 1.82h-2.08c.196-2.073 1.734-3.505 4.321-3.505 2.714 0 4.254 1.606 4.254 4.008zm-2.041-3.02-2.749.153c-1.193.058-1.866.484-1.866 1.452 0 .852.673 1.383 1.828 1.383 1.348 0 2.791-.677 2.791-2.382l-.004-.607Zm9.142-8.036a2.3 2.3 0 0 0-.636-.078c-.943 0-1.636.504-1.636 1.666v.79h2.272v1.84h-2.272v8.343h-2.041v-8.344h-1.775V10.47h1.789v-.717c0-2.748 1.752-3.621 3.465-3.621q.43.002.848.097zm6.806 0a2.3 2.3 0 0 0-.634-.078c-.945 0-1.638.504-1.638 1.666v.79h2.272v1.84h-2.272v8.343h-2.039v-8.344h-1.791V10.47h1.791v-.717c0-2.748 1.75-3.621 3.465-3.621q.427.002.846.097zm7.925 9.332 2.135.29c-.786 2.188-2.463 3.136-4.58 3.136-2.964 0-5.044-2.186-5.044-5.286s2.097-5.284 4.91-5.284 4.987 2.072 4.987 5.944h-7.701c.174 1.683 1.31 2.766 2.869 2.766 1.245.002 2.082-.676 2.424-1.567Zm-5.276-2.828h5.409c-.229-1.276-1.192-2.457-2.714-2.457s-2.477 1.181-2.689 2.457z"/><path fill="#DC1915" d="M6.04 12.7a6 6 0 0 0 1.744 4.234A5.9 5.9 0 0 0 12 18.67c3.215 0 5.963-2.633 5.963-5.944a5.92 5.92 0 0 0-1.736-4.275l-.674-.652c-.59-.593-2.542-2.347-2.593-2.999h-1.919c-.025.652-1.944 2.424-2.565 3-.287.26-.493.467-.675.651a5.94 5.94 0 0 0-1.762 4.25Zm9.903.861a4.08 4.08 0 0 1-1.417 2.285 4.04 4.04 0 0 1-2.525.896 4.1 4.1 0 0 1-2.514-.909 4.13 4.13 0 0 1-1.426-2.272zM9.15 9.808c.155-.156.361-.34.62-.573.857-.808 1.66-1.564 2.23-2.295.59.73 1.4 1.46 2.257 2.295l.589.573a4.1 4.1 0 0 1 1.063 1.825H8.113A4.03 4.03 0 0 1 9.15 9.806zM12 0C5.39 0 0 6.282 0 14s5.392 14 12 14c6.61 0 12.004-6.284 12.004-14S18.638 0 12 0m0 1.928c5.574 0 10.084 5.423 10.084 12.072a13.64 13.64 0 0 1-1.572 6.491H3.526A13.66 13.66 0 0 1 1.919 14c0-6.645 4.535-12.068 10.082-12.068v-.004Zm0 24.142c-2.825 0-5.364-1.407-7.207-3.649h14.413c-1.813 2.246-4.38 3.655-7.206 3.655z"/></g></mask><g mask="url(#b)"><path fill="#000" d="M-3-7h149v44H-3z"/></g><defs><clipPath id="a"><path fill="#fff" d="M0 0h131v28H0z"/></clipPath></defs></svg>