<svg xmlns="http://www.w3.org/2000/svg" width="394" height="209" fill="none"><path fill="#000" fill-rule="evenodd" d="M255.822 1.328c-1.086-1.595-3.733-1.798-4.772-.365l-52.329 72.194c-.582.804-.647 1.83-.173 2.772l65.559 130.22c.665 1.319 2.248 2.214 3.904 2.208l122.599-.44c2.753-.01 4.268-2.393 2.848-4.478L255.822 1.329Zm-117.644 0c1.086-1.595 3.733-1.798 4.772-.365l52.329 72.194c.582.804.647 1.83.173 2.772l-65.559 130.22c-.665 1.319-2.248 2.214-3.904 2.208l-122.6-.44c-2.751-.01-4.267-2.393-2.847-4.478L138.178 1.329Z" clip-rule="evenodd"/></svg>