<svg xmlns="http://www.w3.org/2000/svg" width="101" height="33" fill="none"><g fill="#000" clip-path="url(#a)"><path d="M20.87 14.206a6.664 6.664 0 1 0-13.328 0 6.664 6.664 0 0 0 13.328 0m7.542 0c0 7.846-6.36 14.206-14.206 14.206S0 22.052 0 14.206 6.36 0 14.206 0s14.206 6.36 14.206 14.206M88.129 9.58v1.545c.865-.927 2.44-1.916 4.665-1.916 4.264 0 7.849 3.553 7.849 8.373s-3.585 8.374-7.849 8.374c-2.224 0-3.8-.99-4.665-1.916v8.51h-5.747V9.58zm6.797 8.002c0-1.977-1.452-3.522-3.46-3.522s-3.46 1.545-3.46 3.522c0 1.978 1.451 3.523 3.46 3.523s3.46-1.545 3.46-3.523m-31.689 0c0-4.913 4.079-8.373 8.775-8.373s8.775 3.46 8.775 8.373-4.078 8.374-8.775 8.374c-4.696 0-8.775-3.461-8.775-8.374m5.315 0c0 1.978 1.452 3.523 3.46 3.523s3.46-1.545 3.46-3.523c0-1.977-1.451-3.522-3.46-3.522s-3.46 1.545-3.46 3.522m-23.834 0c0-4.913 4.078-8.373 8.775-8.373 4.696 0 8.775 3.46 8.775 8.373s-4.079 8.374-8.775 8.374-8.775-3.461-8.775-8.374m5.314 0c0 1.978 1.452 3.523 3.46 3.523 2.01 0 3.461-1.545 3.461-3.523 0-1.977-1.452-3.522-3.46-3.522s-3.46 1.545-3.46 3.522m-6.932 8.003h-5.746V2.503H43.1z"/></g><defs><clipPath id="a"><path fill="#fff" d="M0 0h101v33H0z"/></clipPath></defs></svg>