<svg xmlns="http://www.w3.org/2000/svg" width="108" height="22" fill="none"><path fill="#000" d="M.736 13.966q0 1.392.457 2.7c.305.886.748 1.69 1.316 2.395.567.72 1.315 1.302 2.243 1.731.914.443 1.924.665 3.046.665 1.343 0 2.492-.29 3.434-.9.941-.595 1.62-1.357 2.022-2.285V21h1.813V1.089h-1.813v8.515q-.624-1.309-2.119-2.284c-.997-.637-2.105-.956-3.337-.956-1.108 0-2.119.222-3.032.679-.928.457-1.676 1.066-2.244 1.8a8.5 8.5 0 0 0-1.315 2.437 7.9 7.9 0 0 0-.47 2.686Zm7.062 4.196c-1.62 0-2.936-.374-3.946-1.136-1.011-.748-1.523-1.745-1.523-2.977s.512-2.23 1.523-2.99q1.516-1.122 3.946-1.122c1.592 0 2.894.373 3.877 1.107.983.748 1.481 1.745 1.481 2.977 0 1.233-.498 2.23-1.481 2.991-.997.762-2.285 1.15-3.877 1.15m10.919-4.251c0 1.329.346 2.575 1.025 3.724a7.7 7.7 0 0 0 2.797 2.783 7.36 7.36 0 0 0 3.807 1.039 7.47 7.47 0 0 0 3.808-1.01 7.4 7.4 0 0 0 2.77-2.742 7.36 7.36 0 0 0 1.024-3.794 7.44 7.44 0 0 0-1.025-3.808 7.6 7.6 0 0 0-2.769-2.742 7.6 7.6 0 0 0-3.808-.997 7.65 7.65 0 0 0-3.821.997 7.55 7.55 0 0 0-2.783 2.742 7.44 7.44 0 0 0-1.025 3.808m1.62 0c0-.582.125-1.094.374-1.551.235-.443.554-.803.941-1.066.374-.264.845-.485 1.385-.665a9.7 9.7 0 0 1 1.62-.346 16 16 0 0 1 1.69-.083c.595 0 1.176.027 1.716.083.54.069 1.08.18 1.634.346q.81.27 1.413.665c.401.263.72.623.969 1.066.25.457.374.969.374 1.55q0 .874-.374 1.537c-.25.458-.568.818-.97 1.08a5.5 5.5 0 0 1-1.412.651 7.8 7.8 0 0 1-1.634.346c-.54.07-1.121.098-1.717.098a13 13 0 0 1-1.689-.098 7.5 7.5 0 0 1-1.62-.346 5 5 0 0 1-1.385-.65 2.9 2.9 0 0 1-.941-1.08q-.374-.666-.374-1.537m29.03 2.838c0 .568-.429.942-1.287 1.136-.873.207-2.202.304-3.988.304-1.066 0-1.994-.083-2.783-.263-.79-.166-1.44-.457-1.939-.872a1.91 1.91 0 0 1-.748-1.551h-1.509c0 1.828.61 3.282 1.814 4.348s2.922 1.606 5.165 1.606q3.053 0 4.943-1.288c1.246-.858 1.87-1.966 1.87-3.31 0-.29-.028-.567-.07-.816a2.2 2.2 0 0 0-.235-.678c-.125-.194-.236-.374-.346-.54a1.8 1.8 0 0 0-.513-.43 13 13 0 0 1-.568-.332 4 4 0 0 0-.706-.25c-.318-.069-.567-.138-.761-.18a17 17 0 0 0-.873-.152c-.373-.041-.678-.083-.886-.11-.208-.014-.54-.042-.97-.084a33 33 0 0 1-1.08-.11c-.151-.014-.36-.042-.636-.07-.498-.055-.928-.11-1.288-.152s-.72-.097-1.094-.166a5 5 0 0 1-.927-.208 3.3 3.3 0 0 1-.679-.277 1.15 1.15 0 0 1-.443-.401 1 1 0 0 1-.152-.54c0-.305.097-.568.277-.79.18-.207.429-.373.72-.498q.435-.187 1.163-.29c.484-.07.955-.111 1.426-.125a56 56 0 0 1 1.717-.028c.734 0 1.398.042 1.966.125a7.7 7.7 0 0 1 1.62.415q.748.312 1.163.872c.277.388.416.859.416 1.426h1.495c-.014-.844-.124-1.606-.346-2.284-.221-.679-.526-1.26-.914-1.73a5.4 5.4 0 0 0-1.426-1.178 6.7 6.7 0 0 0-1.814-.692 9.7 9.7 0 0 0-2.16-.222q-1.64 0-2.99.457c-.9.319-1.607.72-2.133 1.205a5.4 5.4 0 0 0-1.219 1.55c-.29.554-.429 1.095-.429 1.634a4.1 4.1 0 0 0 .36 1.662c.097.208.25.402.443.568.194.18.388.318.568.429.18.125.415.222.706.319.29.096.554.18.79.235q.353.082.913.166c.374.055.679.097.942.125s.609.055 1.038.097q.645.062 1.039.124c.221.028.54.07.969.111.43.042.817.097 1.163.139.346.041.706.096 1.052.152.346.069.637.138.9.207.25.084.471.18.679.291.194.111.346.236.443.388a1 1 0 0 1 .152.526m16.873 0c0 .568-.429.942-1.287 1.136-.873.207-2.202.304-3.988.304-1.066 0-1.994-.083-2.783-.263-.79-.166-1.44-.457-1.939-.872a1.91 1.91 0 0 1-.748-1.551h-1.509c0 1.828.61 3.282 1.814 4.348s2.922 1.606 5.165 1.606q3.053 0 4.943-1.288c1.246-.858 1.87-1.966 1.87-3.31 0-.29-.028-.567-.07-.816a2.2 2.2 0 0 0-.235-.678c-.125-.194-.236-.374-.347-.54a1.8 1.8 0 0 0-.512-.43 13 13 0 0 1-.568-.332 4 4 0 0 0-.706-.25c-.318-.069-.567-.138-.761-.18a17 17 0 0 0-.873-.152c-.373-.041-.678-.083-.886-.11a36 36 0 0 1-.969-.084 33 33 0 0 1-1.08-.11c-.152-.014-.36-.042-.637-.07-.498-.055-.928-.11-1.288-.152s-.72-.097-1.094-.166a5 5 0 0 1-.927-.208 3.3 3.3 0 0 1-.679-.277 1.15 1.15 0 0 1-.443-.401 1 1 0 0 1-.152-.54c0-.305.097-.568.277-.79.18-.207.429-.373.72-.498q.435-.187 1.163-.29c.485-.07.955-.111 1.426-.125a56 56 0 0 1 1.717-.028c.734 0 1.398.042 1.966.125a7.7 7.7 0 0 1 1.62.415q.748.312 1.163.872c.277.388.416.859.416 1.426h1.495c-.014-.844-.124-1.606-.346-2.284-.222-.679-.526-1.26-.914-1.73a5.4 5.4 0 0 0-1.426-1.178 6.7 6.7 0 0 0-1.814-.692 9.7 9.7 0 0 0-2.16-.222q-1.64 0-2.99.457c-.9.319-1.607.72-2.133 1.205a5.4 5.4 0 0 0-1.219 1.55c-.29.554-.429 1.095-.429 1.634a4.1 4.1 0 0 0 .36 1.662c.097.208.25.402.443.568.194.18.388.318.568.429.18.125.415.222.706.319.29.096.554.18.79.235q.353.082.913.166c.374.055.679.097.942.125s.609.055 1.038.097q.645.062 1.039.124c.221.028.54.07.969.111.43.042.817.097 1.163.139.346.041.706.096 1.052.152.347.069.637.138.9.207.25.084.471.18.679.291.194.111.346.236.443.388a1 1 0 0 1 .152.526m4.204-14.262c0 .54.166.97.512 1.316s.775.526 1.302.526c.512 0 .955-.18 1.301-.526s.513-.776.513-1.316c0-.526-.18-.97-.527-1.343a1.7 1.7 0 0 0-1.287-.54c-.526 0-.956.18-1.302.54s-.512.803-.512 1.343m.9 4.334V21h1.814V6.821zm20.625 5.954c0-1.841-.678-3.378-2.049-4.597-1.37-1.205-3.13-1.814-5.29-1.814a7.7 7.7 0 0 0-3.032.596c-.969.401-1.8.927-2.492 1.592a7.4 7.4 0 0 0-1.662 2.41 7.1 7.1 0 0 0-.623 2.949c0 1.315.36 2.561 1.066 3.724a7.8 7.8 0 0 0 2.88 2.783 7.86 7.86 0 0 0 3.947 1.039c2.16 0 3.904-.554 5.234-1.648 1.329-1.094 1.994-2.534 1.994-4.306h-1.565q0 .518-.25.914a1.7 1.7 0 0 1-.72.637 5 5 0 0 1-.996.401 5.6 5.6 0 0 1-1.233.236 28 28 0 0 1-2.464.11 14.4 14.4 0 0 1-2.119-.152 9 9 0 0 1-1.938-.526 3.5 3.5 0 0 1-1.537-1.094c-.402-.485-.623-1.08-.679-1.772H91.97v-1.482Zm-7.283-2.783c.65 0 1.274.042 1.87.11.595.07 1.19.195 1.8.375.609.18 1.107.457 1.48.83q.562.56.624 1.33H78.635c.61-1.759 2.63-2.645 6.051-2.645m21.456 3.863 1.814-1.454v-.332q0-.332-.083-.872a21 21 0 0 0-.263-1.177 5.3 5.3 0 0 0-.582-1.288 6.6 6.6 0 0 0-.983-1.177c-.374-.346-.886-.637-1.523-.858-.637-.222-1.357-.333-2.146-.333-.637 0-1.232.097-1.772.277a4.6 4.6 0 0 0-1.427.79 6.4 6.4 0 0 0-1.744 2.284V6.821h-1.814V21h1.814v-4.708c.041-2.077.498-3.614 1.384-4.625.887-.996 2.077-1.495 3.559-1.495.609 0 1.135.07 1.592.194.457.138.817.318 1.094.526s.499.485.665.803c.152.332.263.665.332 1.01.056.347.083.721.083 1.15"/></svg>