<svg xmlns="http://www.w3.org/2000/svg" width="479" height="115" fill="none"><mask id="b" width="479" height="115" x="0" y="0" maskUnits="userSpaceOnUse" style="mask-type:alpha"><mask id="a" width="478" height="115" x="0" y="0" maskUnits="userSpaceOnUse" style="mask-type:luminance"><path fill="#fff" d="M477.045 0H.813v115h476.232z"/></mask><g fill="#57201F" mask="url(#a)"><path d="M.804 104.062V87.817h.64c8.65 13.029 20.346 18.497 32.04 18.497 12.975 0 24.991-7.4 24.991-20.588 0-9.006-5.126-13.832-16.66-19.139l-15.86-7.078C10.735 52.593 3.687 42.944 3.687 30.72 3.687 13.831 18.267 0 39.413 0c11.05 0 21.465 3.537 27.715 7.719V23.32h-.644C59.757 12.866 49.665 8.524 39.414 8.524c-13.94 0-24.354 7.72-24.354 20.265 0 8.845 4.968 14.637 16.021 19.623l16.021 7.238c14.74 6.754 22.747 14.634 22.747 28.146 0 18.337-16.019 31.202-36.365 31.202-11.533 0-23.55-3.859-32.68-10.936m83.61-35.707V26.214c0-11.902-1.121-18.659-5.126-24.126v-.483h21.627v.483c-4.006 5.467-5.128 12.224-5.128 24.126v42.3c0 22.84 12.337 36.35 33.004 36.35 20.664 0 33.163-13.51 33.163-36.188V26.214c0-11.902-1.124-18.495-5.129-24.126v-.483h19.385v.483c-4.004 5.631-5.128 12.224-5.128 24.286v41.98c0 28.308-15.538 46.644-43.252 46.644-27.555 0-43.416-18.175-43.416-46.644ZM187.1 112.906c4.165-5.47 5.128-12.386 5.128-24.289V26.373c0-11.901-1.124-18.656-5.128-24.286v-.483h38.447c24.831 0 38.129 10.777 38.129 26.86 0 13.672-10.572 23.322-26.113 26.056v.643c19.863 2.091 31.719 12.869 31.719 27.503 0 17.533-14.416 30.72-40.692 30.72H187.1zm36.847-61.924c16.66 0 27.553-7.077 27.553-21.554 0-12.222-9.612-19.623-27.235-19.623h-20.664v41.177zm-20.346 8.362v45.679h22.109c19.702 0 31.398-8.04 31.398-23 0-15.438-12.977-22.68-32.843-22.68zm103.642 53.561c4.648-5.63 5.769-12.385 5.769-24.286V9.969h-13.458c-14.256 0-20.824 2.573-24.99 8.202h-.642V1.605h89.714v16.566h-.641c-4.004-5.63-10.573-8.202-24.834-8.202h-13.615v78.65c0 11.901 1.283 18.656 5.766 24.286v.483h-23.069zm69.193 0c3.847-5.307 5.128-12.224 5.128-23.16V26.21c0-11.737-.963-18.494-5.128-24.123v-.483h21.627v.483c-4.327 5.629-5.125 12.223-5.125 24.123v78.651h30.915c13.14 0 20.349-1.928 24.513-11.095h.8v19.621h-72.73v-.483Zm82.175-7.074c0-4.986 4.166-9.167 9.131-9.167 5.127 0 9.291 4.181 9.291 9.167 0 4.983-4.164 9.167-9.291 9.167-4.965 0-9.131-4.184-9.131-9.167"/></g></mask><g mask="url(#b)"><path fill="#000" d="M-39-73h553v244H-39z"/></g></svg>