<svg xmlns="http://www.w3.org/2000/svg" width="112" height="40" fill="none"><path fill="#122023" d="M30.589 22.545c2-.36 3.965-.194 5.826.652 2.748 1.25 4.383 3.396 4.9 6.362.367 2.114.092 4.155-.965 6.042-1.272 2.274-3.248 3.61-5.771 4.165-.446.097-.907.13-1.36.194-.057.008-.114.025-.17.039h-1.264.001c-.34-.044-.681-.083-1.02-.137-3.94-.63-6.698-3.474-7.25-7.184-.325-2.19-.014-4.278 1.148-6.183 1.356-2.224 3.385-3.494 5.925-3.95M19.062 35.299c.041.033.081.062.117.096.739.738 1.482 1.474 2.215 2.217.38.386.496.852.335 1.37-.16.517-.514.838-1.044.952-.808.174-1.614-.41-1.642-1.25-.037-1.111-.01-2.224-.009-3.337 0-.012.014-.024.028-.05zM2.322 22.584c1.265-.464 2.585.101 3.143 1.357q2.795 6.298 5.587 12.597c.012.028.02.06.039.082q.068.08.138.156c.047-.055.109-.102.137-.165q.774-1.738 1.543-3.478l4.075-9.204c.418-.944 1.311-1.525 2.294-1.503 1.043.023 1.936.627 2.28 1.582.101.284.157.6.159.902.01 3.549.007 7.098.007 10.646 0 .045-.005.089-.01.18-.08-.075-.13-.117-.177-.164-.787-.786-1.578-1.57-2.357-2.364a.55.55 0 0 1-.144-.35c-.009-2.067-.006-4.135-.01-6.203 0-.103-.048-.206-.073-.31-.07.085-.164.16-.207.256-1.75 3.945-3.494 7.893-5.245 11.838-.44.99-1.216 1.519-2.303 1.51-1.067-.01-1.823-.545-2.254-1.517Q6.32 32.515 3.701 26.594c-.021-.049-.033-.103-.064-.143-.033-.043-.084-.072-.126-.107-.03.053-.073.104-.086.162-.015.064-.005.134-.005.202v12.964H.72V25.057c0-1.2.585-2.1 1.601-2.473Zm89.403-.115a2.686 2.686 0 0 1 3.051 1.138c1.236 1.921 2.465 3.846 3.697 5.77l4.629 7.232c.025.038.043.083.076.112.035.033.087.075.124.069.03-.005.063-.074.071-.117.012-.074.005-.15.005-.225V22.683h2.676c.003.076.01.15.01.222v14.278c0 1.331-.773 2.328-2.014 2.609-1.046.236-2.082-.2-2.694-1.126q-1.435-2.172-2.873-4.343-2.884-4.363-5.772-8.723c-.051-.077-.133-.133-.2-.2l-.057.037V39.72h-2.683V25.093c0-1.24.773-2.277 1.954-2.624m-9.918.215c.908.006 1.797.156 2.641.505 1.672.693 2.643 1.953 2.965 3.718a6.94 6.94 0 0 1-.1 3.04c-.434 1.65-1.495 2.72-3.093 3.277-.135.047-.27.097-.409.13-.199.048-.221.127-.1.293.647.887 1.286 1.78 1.927 2.67l2.319 3.22c.038.053.072.109.123.188-.1.005-.172.011-.244.011-.805 0-1.61-.008-2.415.007-.216.004-.334-.072-.454-.241-1.346-1.902-2.703-3.797-4.05-5.698a.44.44 0 0 0-.408-.208c-1.09.008-2.182.004-3.273.004-.281 0-.287.008-.288.294v5.828h-2.694V24.63c0-1.117.835-1.949 1.955-1.95 1.866 0 3.732-.008 5.597.004Zm-9.617 2.614h-9.2q-.31 0-.31.315v4.278h8.084V32.5h-8.07c-.007.09-.014.155-.014.22-.001 1.377.003 2.754-.005 4.13-.002.209.06.268.268.267 2.987-.006 5.976-.005 8.963-.005h.284v2.625H61.95c-1.134 0-1.98-.848-1.98-1.984v-13.04c0-1.192.829-2.03 2.025-2.038.797-.006 1.595-.001 2.393-.001h7.802zm-26.943-2.625c1.444 0 2.89-.016 4.334.013 1.611.033 3.166.341 4.601 1.112 1.764.946 2.936 2.392 3.517 4.297.611 2.004.63 4.034.04 6.043-.795 2.706-2.639 4.368-5.323 5.137-1.04.299-2.107.415-3.187.416q-2.02.003-4.04 0c-1.184-.001-2.001-.815-2.002-1.996V24.727c0-1.256.8-2.055 2.06-2.054m-12.992 2.283c-.235.023-.658.04-1.07.113-1.765.312-3.182 1.179-4.1 2.739-1.03 1.749-1.164 3.625-.588 5.544.541 1.804 1.723 3.053 3.48 3.737 1.185.46 2.417.546 3.662.334 1.879-.322 3.343-1.272 4.271-2.96.723-1.315.907-2.737.716-4.213-.163-1.253-.629-2.38-1.485-3.32-1.259-1.382-2.868-1.945-4.887-1.973zm13.604.1c-.293 0-.294.001-.294.305v11.66c0 .288.006.293.287.293 1.136 0 2.274.03 3.408-.01.739-.027 1.49-.088 2.21-.251 2.036-.464 3.44-1.668 4.011-3.716a7.9 7.9 0 0 0-.047-4.47c-.44-1.45-1.358-2.506-2.743-3.143-.972-.448-2.003-.638-3.063-.656-1.256-.021-2.512-.01-3.769-.012m31.31.223c-.19-.001-.225.078-.224.243.006.872.002 1.744.002 2.616v2.569c0 .305 0 .306.298.306 1.444 0 2.888.014 4.331-.007a7 7 0 0 0 1.45-.175c1.05-.248 1.735-.891 1.934-1.982a4.3 4.3 0 0 0-.023-1.546c-.174-.96-.727-1.586-1.674-1.826a5.4 5.4 0 0 0-1.221-.178c-1.624-.023-3.249-.011-4.873-.02m31.959-2.67c.212-.079.343-.008.45.19.145.268.321.52.504.811.184-.292.363-.549.512-.822.104-.194.239-.248.449-.184v1.915h-.319v-1.255l-.045-.014-.597.942-.591-.936-.039.006v1.253h-.324zm-.283.281h-.554v1.625h-.329v-1.608h-.565v-.305h1.448zM39.41.09c1.189.156 2.002.928 2.195 2.088q.023.144.023.292v14.907H38.94v-.304c0-4.248.002-8.497-.003-12.746 0-.11-.05-.22-.077-.33-.073.093-.17.174-.216.277-1.75 3.946-3.493 7.894-5.244 11.84-.757 1.706-2.995 2.027-4.167.6a2.8 2.8 0 0 1-.38-.634c-1.752-3.945-3.498-7.892-5.25-11.838-.04-.092-.127-.163-.192-.243-.026.1-.076.201-.076.302q-.004 6.384-.003 12.767v.317h-2.7V2.623c0-1.26.77-2.241 1.958-2.494 1.18-.251 2.283.337 2.797 1.495l5.57 12.558c.02.042.031.088.058.123.033.043.08.106.12.106.04-.001.096-.062.118-.11.179-.388.351-.78.524-1.17q2.556-5.777 5.114-11.553C37.346.558 38.377-.047 39.41.09M4.93.23c1.958-.412 3.878-.31 5.691.61 1.352.688 2.283 1.743 2.626 3.256.032.144.05.291.077.444-.07.007-.115.015-.16.015-.781 0-1.564.003-2.347-.004-.07-.001-.188-.054-.203-.106-.297-1.027-1.05-1.521-2.034-1.72-1.195-.242-2.393-.24-3.571.101-.734.213-1.341.607-1.644 1.355-.473 1.175-.023 2.33 1.158 2.77.627.234 1.303.358 1.968.46 1.329.205 2.675.307 3.972.691.733.217 1.43.513 2.027 1.002 1.017.832 1.372 1.948 1.32 3.21-.097 2.28-1.309 3.77-3.37 4.623-.926.384-1.902.549-2.9.594-1.328.06-2.63-.07-3.879-.548-1.282-.49-2.35-1.256-2.981-2.509-.207-.41-.307-.874-.456-1.313l-.045-.147v-.133h2.7c.17.82.635 1.428 1.384 1.782.382.181.798.323 1.213.398 1.266.23 2.532.22 3.764-.2.867-.296 1.542-.813 1.791-1.749.319-1.198-.162-2.115-1.325-2.542-.727-.266-1.49-.346-2.251-.44-1.372-.17-2.747-.33-4.056-.816-.712-.264-1.367-.627-1.894-1.185-.71-.751-.987-1.673-1-2.68C.49 4.07.913 2.846 1.889 1.846 2.727.984 3.766.476 4.93.23m57.237 14.21q0 .33.335.33h9.19v2.624H61.453c-1.138 0-1.994-.84-1.994-1.973q-.003-7.434-.001-14.867c0-.066.006-.132.01-.21h2.699zM85.639 2.955h-9.218q-.3 0-.3.294v4.219h8.142v2.61h-8.13c-.005.097-.012.169-.012.241 0 1.391.005 2.782-.005 4.173-.001.22.067.282.282.281 2.98-.006 5.96-.004 8.939-.004h.304v2.624H75.444c-1.194 0-2.033-.833-2.033-2.025V2.33c0-1.147.836-1.999 1.966-2q5.034-.002 10.068 0h.195zM18.09 17.387h-2.67V.346h2.67v17.04ZM46.086.333c1.836-.008 3.672-.027 5.507.014 1.49.032 2.905.393 4.127 1.302 1.203.896 1.838 2.116 1.988 3.597.12 1.184-.026 2.328-.603 3.386-.742 1.362-1.938 2.143-3.39 2.574-.79.235-1.602.34-2.426.343-1.37.004-2.739 0-4.108 0-.312 0-.313.002-.313.317v5.517h-2.709v-.253l.008-14.843c0-1.08.84-1.949 1.919-1.954m1.05 2.582c-.207-.001-.274.061-.272.27.01.917.004 1.834.004 2.75L46.87 7.3q.001.68-.008 1.363c-.003.233.073.292.297.29 1.399-.009 2.797.002 4.195-.008.367-.002.737-.03 1.1-.084 1.62-.24 2.538-1.267 2.585-2.872.04-1.392-.656-2.436-1.954-2.821a6 6 0 0 0-1.55-.238c-1.467-.032-2.934-.008-4.4-.015Z"/></svg>