<svg xmlns="http://www.w3.org/2000/svg" width="108" height="32" fill="none"><path fill="#000" d="M29.481 20.328c-1.753 0-3.396-.742-4.888-1.95l.363-1.707.016-.063c.324-1.816 1.35-4.865 4.51-4.865a4.3 4.3 0 0 1 4.296 4.296 4.31 4.31 0 0 1-4.297 4.289m0-12.936c-4.035 0-7.163 2.622-8.434 6.934-1.943-2.914-3.412-6.413-4.273-9.359h-4.343V16.27a4.05 4.05 0 0 1-4.044 4.043 4.05 4.05 0 0 1-4.043-4.044v-11.3H0v11.3c-.016 4.629 3.751 8.427 8.38 8.427 4.627 0 8.394-3.798 8.394-8.427v-1.895c.845 1.761 1.88 3.538 3.136 5.118L17.248 32h4.446l1.927-9.074c1.69 1.082 3.633 1.761 5.86 1.761 4.762 0 8.64-3.901 8.64-8.663 0-4.755-3.878-8.632-8.64-8.632m21.899.49 2.804 11.3 3.088-11.3h3.68l-4.746 16.331h-3.68l-2.914-11.372-2.907 11.364h-3.68L38.28 7.874h3.68l3.088 11.3 2.803-11.3h3.53zm18.378-.49c-4.778 0-8.648 3.878-8.648 8.647 0 4.778 3.878 8.648 8.648 8.648 4.778 0 8.655-3.87 8.655-8.648s-3.877-8.647-8.655-8.647m0 13.741a5.083 5.083 0 0 1-5.086-5.085 5.087 5.087 0 0 1 5.086-5.086 5.08 5.08 0 0 1 5.086 5.085 5.09 5.09 0 0 1-5.086 5.086m19.167-9.595a4.47 4.47 0 0 0-4.47 4.47v8.197h-3.704V7.882h3.704v2.511s1.58-2.52 4.825-2.52h1.137v3.665zm12.43 3.87c2.63-1.485 4.415-4.304 4.415-7.534h-3.704a4.94 4.94 0 0 1-4.936 4.936h-.497V0h-3.704v24.205h3.704v-7.692h.442c.363 0 .837.237 1.05.53l5.26 7.162h4.438z"/></svg>