<svg xmlns="http://www.w3.org/2000/svg" width="1302" height="488" fill="none"><path fill="#0A0A0A" fill-rule="evenodd" d="M151.647 109.369c24.399 0 47.5 6.717 65.207 16.586 8.462 4.713 14.893 7.159 27.651 2.941l46.818-14.713c8.697-2.525 14.114.678 12.109 10.962l-16.689 88.901-16.459 131.083c-10.964 90.72-65.801 142.564-174.955 142.565-33.122 0-62.002-3.387-89.37-9.403-3.854-.859-6.433-4.504-5.886-8.41l8.878-64.392c.6-4.323 4.768-7.216 9.038-6.331 32.94 6.927 58.301 10.78 88.793 10.78 47.339 0 74.265-17.939 80.749-64.809.911-6.9 1.614-15.545-2.786-12.03-24.086 19.268-53.094 34.97-87.412 34.971-63.302 0-97.703-45.363-86.246-126.11 12.941-92.231 69.291-132.59 140.56-132.591m11.459 78.248c-50.828.495-73.769 21.923-78.248 53.327-4.973 35.882 9.976 59.315 51.847 59.315 14.789 0 28.044-3.619 40.36-9.426s21.037-20.884 24.448-43.511h-.023l4.14-28.982c3.228-24.241 2.576-26.845-8.673-28.616-11.249-1.77-22.967-2.471-33.851-2.107" clip-rule="evenodd"/><path fill="#0A0A0A" d="M764.646 114.759c5.858 0 10.309 5.257 9.346 11.037l-15.729 128.376c-12.808 114.182-63.717 148.502-141.08 148.503-105.483 0-133.189-51.716-117.072-145.613l15.855-129.782c.859-7.134 6.931-12.498 14.142-12.498h64.237c5.859 0 10.309 5.285 9.347 11.066L583.72 265.757l-.379 3.456c-3.372 35.537 3.458 50.367 36.731 50.367 38.068 0 47.863-21.193 52.423-55.93l16.867-136.318c.835-7.16 6.93-12.573 14.142-12.573zm444.204-5.39c33.01 0 59.19 4.086 81.37 11.168 7.76 2.474 12.99 5.521 11.54 18.202l-7.76 57.888c-.68 5.05-6.04 7.965-10.65 5.778-21.25-9.999-48.95-18.281-90.93-18.281-24.43 0-35.39 6.485-37.39 18.932-2.01 13.462 11.45 18.93 35.88 22.941h-.03c67.78 6.978 110.67 28.905 101.68 92.207-8.46 58.327-66.79 83.249-127.09 83.249-37.29 0-66.66-3.594-94.52-10.494-8.34-2.057-13.91-7.189-12.51-18.67l7.72-53.28c.93-7.472 5.59-10.049 10.02-8.696 30.39 9.245 55.57 16.38 101.26 16.38 27.92 0 39.87-6.981 41.38-17.944 1.49-11.951-9.97-17.939-28.4-21.428-76.77-10.468-115.65-25.91-106.69-91.711 8.46-59.812 68.79-86.241 125.12-86.241m-727.152.937c6.352.001 11.22 5.621 10.363 11.922l-10.602 76.557c-.752 5.546-5.411 9.712-11.009 9.895l.024.028c-.313 0-.625-.002-.937.023-38.642 1.563-68.093 11.537-72.338 49.969l-13.538 122.285c-.964 8.8-8.414 15.467-17.293 15.467H311.74c-10.572 0-18.698-9.378-17.214-19.846l27.108-191.021 4.556-58.384a12.896 12.896 0 0 1 12.864-11.899h51.898a9.46 9.46 0 0 1 9.45 8.935l2.449 42.86c.339 5.596 3.253 4.739 4.556 2.787 22.42-33.851 47.417-59.578 74.212-59.578zm502.328.051c44.864.001 76.764 29.919 65.304 123.113l-18.49 147.435c-1.12 8.879-7.5 15.546-21.3 15.547h-44.292c-19.083 0-22.576-9.713-20.908-20.492l20.753-133.532c5.989-35.882-6.983-45.858-27.918-45.858-11.848.001-23.461 3.83-34.863 10.86-20.335 12.498-33.463 34.008-36.042 57.756h-.024l-12.578 115.433c-.987 9.009-7.339 15.832-19.732 15.833h-48.78c-16.32-.001-19.113-9.557-17.574-20.258l27.033-190.586 4.556-58.248c.523-6.796 6.195-12.03 12.995-12.03h47.337c6.352.001 11.61 4.999 11.922 11.351l2.009 41.821c.154 7.682 2.992 5.987 4.425 4.294 32.367-38.538 68.357-62.439 106.167-62.439M587.185 0c25.96.001 47 19.9 47.001 44.448s-21.041 44.447-47.001 44.448c-25.955 0-47.005-19.9-47.005-44.448C540.181 19.9 561.23 0 587.185 0m129.646 0c25.96 0 47.004 19.9 47.005 44.448 0 24.549-21.045 44.448-47.005 44.448-25.956 0-47.001-19.9-47.001-44.448C669.831 19.901 690.876.001 716.831 0"/></svg>