<svg xmlns="http://www.w3.org/2000/svg" viewBox="0 0 787.1 359.94"><path fill="currentColor" d="M443.25 14.2c0 6.58-5.33 11.91-11.91 11.91s-11.91-5.33-11.91-11.91 5.33-11.91 11.91-11.91 11.91 5.33 11.91 11.91M97.3 223.59v-13.72c-8.42 1.56-16.21 2.8-24.63 2.8-20.89 0-25.88-13.09-25.88-31.5V83.56h48.34V69.22H46.79V22.45l-15.6 3.74v43.04H0v14.34h31.19v98.23c0 27.13 11.23 45.53 40.23 45.53 8.73 0 17.15-1.87 25.88-3.74m159.04 1.56V122.24c0-34.92-19.03-57.07-54.89-57.07-21.83 0-43.97 12.79-52.7 32.75V0h-15.59v225.15h15.59v-77.96c0-33.68 13.41-67.36 51.77-67.36 28.38 0 40.23 16.21 40.23 43.34v101.98h15.6ZM387.96 84.19V68.6c-4.99-.94-10.29-.94-15.28-.94-21.83 0-42.72 11.54-49.58 33.05l-1.87-31.49h-13.72v155.92h15.59V150.3c0-32.75 10.6-67.68 49.58-67.68 4.99 0 10.29.31 15.28 1.56Zm51.64 140.96V69.23h-16.53v155.92zM609.77 69.23h-16.53l-50.2 133.78-52.39-133.78h-17.77l61.74 155.92h15.91l59.25-155.92Zm151.74 71.41c0-39.29-24.64-75.47-66.74-75.47-21.83 0-39.92 9.36-53.01 27.13-12.16 16.53-15.28 35.87-15.28 55.51 0 23.7 7.18 44.28 19.96 59.25 11.23 12.79 27.13 22.14 49.58 22.14 17.77 0 33.37-6.86 44.6-18.09 8.73-8.42 15.28-19.33 17.46-32.74h-16.21c-1.87 9.36-6.24 16.21-11.85 22.14-8.42 8.74-20.27 13.72-33.99 13.72-16.84 0-29-6.24-37.73-16.53-9.98-11.85-15.9-28.69-16.21-46.78h119.13c0-3.74.31-6.55.31-10.29Zm-15.91-4.05H642.38c0-30.87 20.27-56.76 52.39-56.76s50.21 27.13 50.83 56.76M605.17 278.75c-3.37 0-6.09 2.73-6.09 6.09s2.73 6.09 6.09 6.09 6.09-2.73 6.09-6.09-2.73-6.09-6.09-6.09m-537.83 61.3h-9.35c-.43 3.59-1.73 6.08-3.69 8.15-2.17 2.28-5.54 3.69-9.34 3.69-4.24 0-7.18-1.52-9.56-3.59-4.35-3.69-5.55-10.54-5.55-17.28s1.2-13.58 5.55-17.28c2.39-2.06 5.32-3.58 9.56-3.58 3.58 0 6.73 1.3 8.91 3.37 2.06 2.06 3.48 4.78 3.92 8.59h9.34c-.43-5.98-2.82-10.54-6.51-14.13-3.8-3.69-9.13-5.87-15.65-5.87-9.89 0-16.08 4.56-20 10.32-2.93 4.35-4.56 10.33-4.56 18.58s1.63 14.24 4.56 18.58c3.92 5.76 10.22 10.33 20.11 10.33 6.73 0 11.95-2.17 15.86-5.98 3.69-3.59 5.98-8.04 6.41-13.91Zm72.41 17.93v-6.84s-1.42.32-2.4.32c-1.84 0-3.04-.76-3.04-3.69v-26.62c0-3.15-.54-5.98-1.63-8.48-2.61-5.97-8.7-10.54-19.34-10.54-6.73 0-13.26 1.96-16.95 5.87-2.83 2.93-4.67 6.52-4.78 11.52h9.02c0-2.72.98-4.89 2.72-6.63 1.84-1.85 4.99-3.26 9.99-3.26 4.46 0 7.18 1.09 9.02 2.82 2.51 2.28 2.83 5.65 2.83 8.37v4.02l-16.74.98c-15 .87-19.56 10.1-19.56 17.17 0 8.47 6.3 16.95 18.9 16.95 7.72 0 14.56-3.48 17.71-9.02h.22c0 4.68 3.04 8.37 7.93 8.37 2.28 0 4.13-.33 6.09-1.3Zm-14.56-22.71c0 4.56-1.41 9.13-4.67 12.5-2.94 3.04-7.07 4.46-11.3 4.46-7.83 0-10.87-4.56-10.87-9.46 0-6.95 6.52-9.56 12.07-9.89l14.78-.87v3.26Zm81.32 23.25v-54.98h-9.24v28.58c0 5.65-1.09 11.62-4.56 15.21-2.4 2.5-5.43 4.13-9.13 4.13-8.7 0-11.74-4.89-11.74-13.14v-34.77h-9.24v36.08c0 12.71 6.3 20.21 18.8 20.21 6.41 0 13.48-3.37 16.29-9.67l.76 8.37h8.04Zm70.44-15.97c0-8.26-6.19-13.91-14.02-15.21-5.87-.98-10.22-1.41-13.26-1.85-4.56-.65-7.39-2.61-7.39-7.18 0-3.04 2.06-5.97 5.55-7.39 2.61-1.09 4.24-1.09 6.41-1.09 3.69 0 6.73.87 9.02 2.93 1.63 1.41 3.04 4.02 3.15 6.84h9.24c0-4.45-1.53-7.6-3.92-10.54-3.69-4.68-10.22-6.95-17.49-6.95-6.85 0-12.61 2.39-16.19 6.08-2.5 2.5-4.57 6.52-4.57 10.76 0 8.37 5.22 13.48 13.48 14.78 3.8.54 10 1.3 12.39 1.63 5.66.76 8.59 3.69 8.59 7.82 0 2.5-1.2 4.78-2.72 5.98-2.83 2.39-6.3 3.04-10.1 3.04-3.47 0-7.39-.65-9.89-2.5-2.61-1.96-4.34-4.78-4.45-8.59h-9.24c0 4.68 1.95 9.35 5.32 12.61 4.67 4.56 10.98 6.19 17.82 6.19s13.69-1.85 17.93-6.19c2.61-2.72 4.35-6.41 4.35-11.19Zm70.47-14.02c.11-7.39-2.5-14.45-6.95-19.34-4.02-4.34-9.66-7.06-16.73-7.06-9.56 0-16.85 4.89-20.75 11.52-3.05 5.11-4.25 10.98-4.25 17.6 0 7.83 2.28 15.11 6.85 20.43 4.24 5 10.54 8.26 18.26 8.26 5.21 0 10.1-1.52 14.01-4.13 4.46-3.04 7.72-8.15 8.48-13.58h-9.03c-.75 2.93-1.73 4.45-3.26 5.98-2.27 2.39-5.87 3.58-10.21 3.58s-7.61-1.41-10.12-3.91c-3.36-3.37-5.32-8.8-5.32-13.8h38.91l.1-5.54Zm-9.45-2.39h-29.34c.22-8.04 5.1-16.19 15.11-16.19 4.89 0 8.59 1.95 10.86 5 2.17 2.93 3.37 7.06 3.37 11.19m110.94 32.38v-36.19c0-12.17-5.87-20.21-18.37-20.21-6.95 0-14.02 3.58-16.95 10.43-2.4-6.74-8.26-10.43-16.42-10.43-6.19 0-12.49 3.04-15.43 9.23l-.87-7.82h-8.04v54.98h9.24v-29.23c0-4.56.98-10.43 3.69-13.91 2.27-2.93 5.43-4.89 9.34-4.89 8.81 0 11.08 5.32 11.08 13.04v34.99h9.24v-29.23c0-5.76.98-11.3 4.67-15.1 2.17-2.28 4.89-3.69 8.37-3.69 8.7 0 11.19 5.32 11.19 13.04v34.99h9.24Zm73.71-29.99c.11-7.39-2.5-14.45-6.95-19.34-4.02-4.34-9.66-7.06-16.73-7.06-9.56 0-16.85 4.89-20.75 11.52-3.05 5.11-4.25 10.98-4.25 17.6 0 7.83 2.28 15.11 6.85 20.43 4.24 5 10.54 8.26 18.26 8.26 5.21 0 10.1-1.52 14.01-4.13 4.46-3.04 7.72-8.15 8.48-13.58h-9.03c-.75 2.93-1.73 4.45-3.26 5.98-2.27 2.39-5.87 3.58-10.21 3.58s-7.61-1.41-10.12-3.91c-3.36-3.37-5.32-8.8-5.32-13.8h38.91l.1-5.54Zm-9.45-2.39h-29.34c.22-8.04 5.1-16.19 15.11-16.19 4.89 0 8.59 1.95 10.86 5 2.17 2.93 3.37 7.06 3.37 11.19m64.22 31.62v-7.94s-5.55.98-9.45.98c-5.11 0-7.39-2.17-7.39-7.5v-31.84h16.29v-7.93h-16.29v-16.19l-9.24 2.17v14.02h-10.65v7.93h10.65v32.93c0 7.39 3.26 14.89 15.11 14.89 5.1 0 8.47-.87 10.97-1.52m32.5.76v-54.98h-9.45v54.98zm72.39-18.47h-9.35c-.43 3.59-1.73 6.08-3.69 8.15-2.17 2.28-5.54 3.69-9.34 3.69-4.24 0-7.18-1.52-9.56-3.59-4.35-3.69-5.55-10.54-5.55-17.28s1.2-13.58 5.55-17.28c2.39-2.06 5.32-3.58 9.56-3.58 3.58 0 6.73 1.3 8.91 3.37 2.06 2.06 3.48 4.78 3.92 8.59h9.34c-.43-5.98-2.82-10.54-6.51-14.13-3.8-3.69-9.13-5.87-15.65-5.87-9.89 0-16.08 4.56-20 10.32-2.93 4.35-4.56 10.33-4.56 18.58s1.63 14.24 4.56 18.58c3.92 5.76 10.22 10.33 20.11 10.33 6.73 0 11.95-2.17 15.86-5.98 3.69-3.59 5.98-8.04 6.41-13.91Zm67.02 2.5c0-8.26-6.19-13.91-14.02-15.21-5.87-.98-10.22-1.41-13.26-1.85-4.56-.65-7.39-2.61-7.39-7.18 0-3.04 2.06-5.97 5.55-7.39 2.61-1.09 4.24-1.09 6.41-1.09 3.69 0 6.73.87 9.02 2.93 1.63 1.41 3.04 4.02 3.15 6.84H748c0-4.45-1.53-7.6-3.92-10.54-3.69-4.68-10.22-6.95-17.49-6.95-6.85 0-12.61 2.39-16.19 6.08-2.5 2.5-4.57 6.52-4.57 10.76 0 8.37 5.22 13.48 13.48 14.78 3.8.54 10 1.3 12.39 1.63 5.66.76 8.59 3.69 8.59 7.82 0 2.5-1.2 4.78-2.72 5.98-2.83 2.39-6.3 3.04-10.1 3.04-3.47 0-7.39-.65-9.89-2.5-2.61-1.96-4.34-4.78-4.45-8.59h-9.24c0 4.68 1.95 9.35 5.32 12.61 4.67 4.56 10.98 6.19 17.82 6.19 7.17 0 13.69-1.85 17.93-6.19 2.61-2.72 4.35-6.41 4.35-11.19Zm24.99-45.39c1.77 0 3.43.33 4.99 1 1.55.67 2.91 1.58 4.07 2.74s2.07 2.52 2.74 4.07 1 3.22 1 4.99-.33 3.43-1 4.98-1.58 2.9-2.74 4.06-2.52 2.07-4.07 2.74-3.22 1-4.99 1c-1.18 0-2.31-.15-3.4-.45s-2.1-.73-3.05-1.29a13.6 13.6 0 0 1-2.59-2 12.66 12.66 0 0 1-3.75-9.05c0-1.18.15-2.31.45-3.41q.45-1.635 1.29-3.06c.56-.94 1.23-1.8 2.01-2.59s1.64-1.45 2.59-2.01c.94-.56 1.96-.99 3.05-1.29s2.22-.45 3.4-.45Zm0 23.88a10.94 10.94 0 0 0 7.78-3.22c.66-.67 1.23-1.41 1.7-2.24.47-.82.84-1.7 1.09-2.65.26-.94.38-1.93.38-2.97s-.13-2.03-.38-2.99c-.26-.95-.62-1.85-1.09-2.67-.47-.83-1.04-1.58-1.7-2.25-.66-.68-1.4-1.25-2.22-1.74-.82-.48-1.69-.86-2.63-1.12s-1.91-.39-2.93-.39-1.99.13-2.92.39-1.8.63-2.6 1.12c-.8.48-1.54 1.06-2.2 1.74s-1.23 1.43-1.69 2.25q-.705 1.245-1.08 2.67c-.26.95-.38 1.95-.38 2.99s.13 2.01.38 2.96c.26.95.62 1.83 1.08 2.66.47.82 1.03 1.57 1.69 2.24s1.4 1.24 2.2 1.72 1.67.85 2.6 1.11 1.9.39 2.92.39m-.17-18.92c2.04 0 3.55.37 4.53 1.12s1.48 1.83 1.48 3.27q0 1.59-.9 2.76c-.6.78-1.51 1.32-2.72 1.62.21.13.39.29.55.47q.24.285.45.66l3.77 5.71h-2.85c-.42 0-.72-.16-.91-.49l-3.27-5.08c-.1-.16-.23-.29-.38-.37s-.37-.12-.67-.12h-1.27v6.06h-2.99v-15.62h5.17Zm-.3 7.39c.64 0 1.18-.06 1.61-.17.43-.12.78-.29 1.04-.51s.45-.5.56-.83.17-.71.17-1.13-.05-.78-.15-1.08-.27-.56-.51-.76-.55-.35-.94-.45-.88-.15-1.48-.15h-2.18v5.08h1.89Z"/></svg>