<svg xmlns="http://www.w3.org/2000/svg" width="113" height="32"><path fill="#0042E4" fill-rule="evenodd" d="m6.68 4.88 4.122 11.365L15.121 4.88h6.131L10.768 31.198H4.704l3.101-8.155L.352 4.88zm64.757-.403c5.536 0 9.573 4.296 9.573 10.176S76.973 24.83 71.437 24.83c-2.043 0-3.763-.541-5.076-1.584l-.085-.069-.073-.06v8.075h-5.908V4.88h5.224v1.967l.03-.034c1.287-1.468 3.234-2.28 5.64-2.333l.127-.002zm-39.424 0c6.096 0 10.417 4.212 10.417 10.176 0 5.939-4.335 10.177-10.417 10.177-6.116 0-10.458-4.232-10.458-10.177 0-5.97 4.327-10.176 10.458-10.176M52.273.55v4.33h4.86v5.103h-4.86v7.044c0 1.576.765 2.443 2.159 2.496l.068.001.069.001c.945 0 1.661-.248 2.302-.864l.06-.059.159-.163h.044v5.629l-.181.087c-.973.465-1.572.675-3.23.675-4.684 0-7.256-2.55-7.356-7.312l-.002-.145v-.145l-.001-7.245h-2.138V4.88h2.299V.55zM93.92 4.477c6.096 0 10.417 4.212 10.417 10.176 0 5.939-4.335 10.177-10.417 10.177-6.116 0-10.458-4.232-10.458-10.177 0-5.97 4.328-10.176 10.458-10.176m15.233 13.878a3.237 3.237 0 1 1 0 6.475 3.237 3.237 0 0 1 0-6.475M70.552 9.782c-2.662 0-4.47 1.97-4.47 4.871s1.808 4.872 4.47 4.872c2.696 0 4.51-1.964 4.51-4.872s-1.814-4.871-4.51-4.871m-38.54 0c-2.67 0-4.509 1.98-4.509 4.871s1.839 4.872 4.51 4.872c2.636 0 4.47-1.986 4.47-4.872 0-2.885-1.834-4.871-4.47-4.871zm61.908 0c-2.67 0-4.51 1.98-4.51 4.871s1.84 4.872 4.51 4.872c2.636 0 4.47-1.986 4.47-4.872 0-2.885-1.834-4.871-4.47-4.871"/></svg>