<svg xmlns="http://www.w3.org/2000/svg" width="128" height="40" fill="none"><path fill="#000" d="M93.881 24.354q.127-.087.225-.194a.7.7 0 0 0 .146-.234c.031-.084.022-.186-.018-.305q-.024-.041-.004-.049c.013-.004.022-.022.018-.048a.2.2 0 0 1-.031-.097.2.2 0 0 0-.031-.098c-.049-.066-.106-.132-.164-.207a2 2 0 0 0-.185-.208q-.027-.04-.049-.048a.3.3 0 0 1-.07-.049 2 2 0 0 0-.305-.176.7.7 0 0 1-.265-.217 1.5 1.5 0 0 0-.296-.305.9.9 0 0 0-.415-.167.17.17 0 0 1-.115-.04c-.238-.194-.477-.216-.715-.057-.168.105-.314.22-.433.353-.066.075-.12.154-.172.23a23 23 0 0 0-1.74 1.54c-.579.583-1.24 1.087-1.731 1.732-.009.008-.027.004-.035.013a2.3 2.3 0 0 0-.239.322q-.246.273-.486.552-.296.345-.574.676a.6.6 0 0 0-.093.185 1 1 0 0 1-.079.195.5.5 0 0 1-.128.154c-.053.044-.141.07-.256.07q.023.274-.163.394a1.4 1.4 0 0 0-.332.274 6 6 0 0 0-.34.402 1.5 1.5 0 0 0-.243.477 1.2 1.2 0 0 1-.287.41q-.192.193-.397.393a2.9 2.9 0 0 0-.57.685c-.145.247-.27.516-.358.803q.006.04-.048.058a.3.3 0 0 0-.093.057 8 8 0 0 0-.8.976 1.4 1.4 0 0 0-.167.243 2 2 0 0 1-.146.243v-.018a.5.5 0 0 0 .027-.203.5.5 0 0 1 .026-.207 1 1 0 0 1 .04-.177 1 1 0 0 0 .04-.177q.024-.193.044-.38.015-.185.044-.38a2 2 0 0 1 .035-.233c.014-.08.036-.155.058-.234.057-.014.12-.098.177-.257.061-.154.114-.326.163-.507s.093-.354.12-.517q.044-.243.017-.283.112-.218.199-.37c.057-.107.119-.208.18-.314l-.07-.018a2 2 0 0 0-.177.097.14.14 0 0 1-.035-.04q-.014-.02-.035-.04a.5.5 0 0 0 .07-.087q.028-.048.075-.049.16.019.2-.049.04-.066.074-.145a.8.8 0 0 1 .089-.168.4.4 0 0 0 .066-.168.6.6 0 0 0-.01-.194 3 3 0 0 1-.03-.194c0-.014 0-.018.009-.018s.009-.005.009-.018q.044 0 .097-.009c.035-.004.07-.008.097-.008-.133-.142-.168-.243-.115-.305.053-.058.146-.12.27-.186a.6.6 0 0 0-.062-.194q.021 0 .044.009c.013.009.03.009.044.009a.7.7 0 0 1 .088-.106.5.5 0 0 0 .089-.106.11.11 0 0 0 .035-.097.2.2 0 0 1 .013-.098q.165-.332.332-.644.158-.31.375-.627.158-.235.243-.508a.73.73 0 0 1 .38-.429 1 1 0 0 1 .145-.106q.105-.066-.022-.225c-.013 0-.013-.013.009-.04a.4.4 0 0 1 .049-.057c.075-.128.167-.256.278-.37a.7.7 0 0 0 .185-.394q.06-.058.04-.057.171-.06.216-.195c.031-.092.062-.18.097-.273.062-.12.173-.234.323-.354.247-.194.384-.424.402-.684a.06.06 0 0 1 .017-.058.2.2 0 0 0 .04-.057q.06-.079.133-.146a.5.5 0 0 0 .11-.145.5.5 0 0 0 .07-.195q.017-.098.164-.137c.026-.013.049-.044.057-.088a.2.2 0 0 1 .058-.106.8.8 0 0 1 .207-.154q.022-.04.062-.031.048.01.062-.031l.239-.314c.079-.106.159-.207.238-.313.146-.181.283-.367.415-.548.133-.181.26-.366.393-.547q.078-.12.124-.243.045-.127.097-.265a.56.56 0 0 1 .225-.238 1 1 0 0 0 .102-.08.58.58 0 0 0 .017-.517c-.075-.163-.145-.322-.22-.481-.076-.168-2.098-.976-2.164-.875-.12.217-.248.438-.385.654-.136.216-.278.437-.428.653q-.386.618-.773 1.228-.386.616-.772 1.228c-.248.37-.49.746-.738 1.121-.247.38-.481.751-.715 1.127q-.385.614-.751 1.25c-.062.11-.124.211-.19.322a23 23 0 0 0-.79 1.36c-.044.08-.093.154-.133.234q-.182.339-.335.684a5 5 0 0 0-.217.482c0 .004-.004.008-.004.013a15 15 0 0 0-.852 2.429c-.023.092-.058.185-.08.278-.018.066-.022.132-.04.198q-.06.273-.106.544c-.017.101-.044.198-.057.304q-.072.537-.137 1.047c-.12.667-.07 1.316.132 1.956q.12.331.279.636.16.304.512.517a.7.7 0 0 1 .313.274.6.6 0 0 0 .473.33l.004.058q.047 0 .053-.009c.01-.008.027-.008.053-.008q.043-.02.097-.04.053-.02.098-.04h.022a3 3 0 0 0 .313-.216q.143-.118.314-.217l-.009-.08q-.087-.45.11-.79.193-.344.433-.675.18-.233.398-.45.218-.215.304-.469c.044-.141.093-.278.137-.41.049-.129.115-.257.208-.372.145-.167.278-.34.393-.507q.172-.253.37-.526.217-.27.433-.556c.146-.19.287-.376.433-.557q.278-.31.557-.666l.062-.093c.158-.177.304-.358.41-.579.168-.344.406-.613.636-.923.234-.313.384-.697.654-.989a.2.2 0 0 0 .061-.053c.517-.702 1.263-1.24 1.882-1.868.172-.176.357-.33.538-.494q-.185.352-.357.697-.218.431-.442.861-.204.449-.428.88-.226.428-.424.878l-.526 1.351q-.258.663-.503 1.352-.21.57-.402 1.143-.187.576-.38 1.144a9 9 0 0 1-.185.627q-.103.313-.181.645-.078.33-.137.667c-.04.22-.075.441-.115.667a5 5 0 0 1-.062.401 2 2 0 0 0-.04.402 10 10 0 0 0 0 .716c.01.242.027.481.067.715q.059.624.296 1.175c.159.366.45.675.874.94a.34.34 0 0 1 .12.106.25.25 0 0 0 .118.089q.185.06.362.08.18.02.327.154.026.04.137.04.543-.12.49-.703-.114.02-.22.031h-.01a2.3 2.3 0 0 1-.472-.737c0-.027.009-.049.009-.08-.009-.119-.022-.238-.03-.362-.014-.123-.014-.252-.014-.38.004-.066.004-.132.009-.194q.004-.1.022-.194c.017-.146.035-.292.057-.45q.032-.232.058-.451h-.027c.031-.133.07-.26.106-.393.022-.04.053-.07.07-.115a2.4 2.4 0 0 0 .146-.45q.048-.194.102-.389c.124-.353.225-.72.247-1.082.067-.19.142-.375.217-.565.009-.009.026-.009.035-.018.027-.03.031-.093.031-.168.026-.075.057-.145.075-.22.004-.01-.009-.018-.004-.027q.033-.078.066-.163c.004-.01.004-.018.009-.027.057-.185.11-.375.176-.547a10 10 0 0 0 .23-.632c.026-.004.053-.009.048-.03q.04-.06-.008-.098a7 7 0 0 0 .106-.397c.088-.098.176-.2.273-.305q-.005-.08-.004-.155.006-.078.018-.176-.007-.04.026-.08a.14.14 0 0 0 .027-.08.5.5 0 0 1 .119-.41c.093-.106.194-.207.305-.314q.365-.35.485-.741a.27.27 0 0 1 .067-.137 1 1 0 0 0 .088-.137.36.36 0 0 0 .04-.168q.006-.087.066-.128c.11-.066.177-.141.19-.234a.5.5 0 0 1 .12-.256q.08-.098.136-.177.06-.078.12-.177.039-.038.039-.057c-.04-.106-.022-.19.053-.265a.7.7 0 0 0 .168-.225c.26-.393.547-.795.865-1.215a2 2 0 0 1 .217-.282q.121-.126.243-.265a.7.7 0 0 1 .207-.212m32.658 2.062a3 3 0 0 1-.008-.468 1.4 1.4 0 0 0-.053-.468 2.4 2.4 0 0 0-.186-.46 4 4 0 0 1-.207-.458 4 4 0 0 0-.062-.195q-.032-.08-.137-.04a.7.7 0 0 1-.035-.136.15.15 0 0 0-.053-.097l-.296-.31a1.4 1.4 0 0 0-.38-.278 9 9 0 0 1-.618-.331 8 8 0 0 0-.597-.331q-.14-.08-.101-.155.032-.159.097-.291c.044-.093.088-.181.141-.274q.034-.118.049-.216c.009-.067-.049-.128-.172-.195q-.047-.04-.053-.08a.46.46 0 0 0-.212-.273 2.4 2.4 0 0 1-.292-.177 3 3 0 0 0-.238-.176q.04-.039.04-.058a3 3 0 0 0-.248-.03 2 2 0 0 1-.247-.032q-.16-.039-.185-.079a.4.4 0 0 0-.212-.137q-.14-.04-.239.04-.165.157-.305.313a5 5 0 0 1-.304.314c-.15.146-.283.305-.398.49a1.2 1.2 0 0 1-.494.428q.105.18-.014.243a8 8 0 0 1-.22.128 8 8 0 0 1-.455.137q-.218.059-.455.137c-.274.093-.543.181-.808.274l-.826.291c-.026.027-.053.045-.071.058a.4.4 0 0 0-.07.057.8.8 0 0 1-.212.234c-.031.022-.089.018-.128.031l.379-.538q.039-.081.084-.155a.5.5 0 0 0 .062-.155 1.6 1.6 0 0 0 .027-.322q-.007-.164.026-.322a.37.37 0 0 0-.013-.243 2 2 0 0 0-.097-.208 1.5 1.5 0 0 1-.133-.243.3.3 0 0 0-.172-.168q-.325-.158-.34-.33l-.203-.138a1 1 0 0 0-.177-.097l-.3-.145a4 4 0 0 0-.3-.128.42.42 0 0 0-.265.008c-.102.031-.186-.008-.256-.128q-.002-.018-.058-.017a.3.3 0 0 0-.097.017 4 4 0 0 0-.185.146 1.2 1.2 0 0 0-.164.168.5.5 0 0 0-.084.176.26.26 0 0 1-.106.155c-.194.168-.388.331-.587.481l-.614.46a.2.2 0 0 0-.031.04l-.013.013c-.102.066-.19.145-.283.243-.008-.01-.022-.014-.031-.023a16 16 0 0 0-2.901 3.343.4.4 0 0 0-.225.23c-.004.004-.004.009-.009.009a.4.4 0 0 0-.097.137q-.12.159-.225.33a24 24 0 0 1-.592.936 29 29 0 0 0-.848 1.409q-.227.411-.459.822l-1.36 2.584a.3.3 0 0 1-.093.057.6.6 0 0 0-.115.057 5 5 0 0 0 .084-.313q.031-.139.088-.256a.6.6 0 0 1 .115-.195q.079-.1.031-.154-.131-.234-.031-.442a1.2 1.2 0 0 0 .128-.42c.031-.14.093-.29.181-.441q.135-.224.248-.442a.45.45 0 0 1 .128-.185q.094-.087.062-.168-.061-.178.017-.282.08-.108.159-.208c.093-.106.164-.216.212-.345q.073-.184-.079-.401.24-.04.326-.186a1.5 1.5 0 0 0 .137-.322 5 5 0 0 1 .208-.53c.079-.168.221-.314.415-.428a1 1 0 0 0 .181-.186q.078-.106.137-.225.113-.213.212-.46a5 5 0 0 1 .212-.459.28.28 0 0 1 .128-.154.22.22 0 0 0 .106-.155 1.4 1.4 0 0 1 .256-.481l.349-.42a.87.87 0 0 0 .26-.57q.014-.312.08-.604a.6.6 0 0 0-.084-.194 1.3 1.3 0 0 0-.336-.394 17 17 0 0 1-.393-.313 2.3 2.3 0 0 0-.318-.225q-.15-.087-.388-.01l-.018-.176a.4.4 0 0 0-.168-.009q-.098.014-.176.018a.26.26 0 0 1-.159-.03.32.32 0 0 1-.137-.155q-.525.117-.658.547c-.097.22-.203.442-.318.654a4.6 4.6 0 0 0-.292.675q-.125.332-.331.636c-.206.304-.229.42-.282.654a1.7 1.7 0 0 1-.133.37l-.176.372q-.181.449-.363.878-.183.43-.362.88-.16.41-.313.83a13 13 0 0 0-.124.357q-.161.2-.322.406c-.08.062-.142.142-.203.221h-.005c-.022.022-.035.04-.053.062q-.002.001-.004-.004l-.119.154a.7.7 0 0 1-.142.137q-.285.272-.583.53-.298.254-.609.508c-.23.22-.464.437-.693.645-.234.207-.473.42-.72.627-.287.234-.579.468-.866.702q-.433.352-.892.684c-.128.08-.273.181-.45.305q-.26.186-.552.37a35 35 0 0 1-.565.354c-.181.11-.336.208-.464.283a3.2 3.2 0 0 1-.901.34 2.9 2.9 0 0 1-.99.07.64.64 0 0 1-.397-.216.5.5 0 0 1-.097-.207 2 2 0 0 0-.053-.208l-.075-.12q-.059-.14-.124-.154c-.092-.066-.114-.141-.066-.234q.08-.118 0-.216-.178-.233.01-.41.039-.02.079-.098l.026-.194c.009-.067.027-.128.049-.195a.5.5 0 0 0-.128-.07c-.053-.018-.049-.062.022-.128q.04-.04.048-.071a.2.2 0 0 1 .049-.07.3.3 0 0 0 .026-.08q.008-.039.049-.058c.154-.08.212-.18.172-.313l.128-.057.022.017q.293.06.778.04.483-.02.768-.08h.022q.067 0 .194-.04.344-.098.694-.185.344-.086.635-.304.02-.02.067-.018.145-.098.282-.177a2 2 0 0 0 .26-.177c.072-.052.133-.105.195-.154q.094-.08.195-.155.124-.097.269-.194.147-.097.247-.194a2.6 2.6 0 0 0 .247-.323.74.74 0 0 1 .318-.265c.045-.013.076-.053.102-.119a.8.8 0 0 1 .132-.256c.067-.106.133-.194.208-.274a2 2 0 0 0 .208-.273 7 7 0 0 0 .234-.332l.234-.353a3.4 3.4 0 0 0 .371-.547 3 3 0 0 0 .207-.372c.013-.026.018-.052.013-.088-.004-.03.009-.062.036-.088.07-.053.106-.106.106-.168a.5.5 0 0 1 .039-.185q.036-.12.045-.226.013-.105.022-.225a.7.7 0 0 1 .115-.225q.079-.106-.133-.225.02-.04.04-.07a.1.1 0 0 0 .017-.05.56.56 0 0 1-.039-.428.5.5 0 0 0-.062-.428 2 2 0 0 1-.203-.393 2.4 2.4 0 0 0-.203-.41.8.8 0 0 1-.102-.275 1 1 0 0 0-.079-.256q-.027-.02-.027-.04a9 9 0 0 0-.256-.393 1.1 1.1 0 0 0-.384-.313 1.3 1.3 0 0 1-.186-.097 1 1 0 0 1-.168-.137.4.4 0 0 0-.167-.137 4 4 0 0 0-.208-.08.2.2 0 0 1-.044-.008.2.2 0 0 0-.044-.01l-.618-.233c-.031-.013-.076-.01-.133.017a1 1 0 0 1-.128.067.3.3 0 0 0-.106.07q-.29.218-.534.442-.245.225-.442.517a2 2 0 0 1-.393.459 4 4 0 0 0-.437.441q-.2.213-.406.411a2.5 2.5 0 0 0-.358.428.6.6 0 0 1-.172.177c-.053.036-.062.093-.053.16-.014.017-.04.026-.049.052-.004.018-.013.031-.017.044a.73.73 0 0 0-.336.195c-.11.106-.15.194-.128.273.004.018 0 .027 0 .045-.035.07-.08.128-.12.194a3 3 0 0 1-.225.132c-.08.04-.106.102-.101.168q-.172.218-.331.415c-.027.018-.058.022-.076.053-.022.035-.03.07-.048.102-.018.022-.04.048-.053.066l.013.018c-.03.084-.057.168-.084.265a1.1 1.1 0 0 1-.132.318c-.018.008-.031.013-.053.026-.013 0-.027.005-.031.009-.009.009-.018.009-.031.009a1 1 0 0 1-.084.176c-.03.053-.062.106-.084.155q-.078.1-.15.185c-.049.058-.102.12-.172.186.013.017 0 .026.004.04a.25.25 0 0 0-.132.035c-.195.128-.23.318-.217.521l-.008.018a.3.3 0 0 0-.062.057c-.044.058-.062.093-.044.106.008.009.008.013.013.027a2 2 0 0 1-.106.194c-.066.097-.11.19-.15.282a.1.1 0 0 0-.018.053.6.6 0 0 0-.03.239c-.01.009-.005.018-.014.026q-.326.1-.102.332c-.07.026-.115.057-.123.097a12 12 0 0 1-.195.556c-.07.19-.088.393-.053.619a.06.06 0 0 1-.017.057 5 5 0 0 1-.022.37c-.014.12-.018.244-.023.372-.013.18.01.362.062.538.053.177.12.354.195.54l.097.216a.7.7 0 0 0 .119.194q.073.1.163.194c.058.066.11.133.164.195q.052.1.093.185.038.086.136.146.239.197.385.547l.08.12v.017a.07.07 0 0 1 .026.04q.026.02.026.04.1.1.172.185.074.087.195.186a.6.6 0 0 1 0-.128l.004-.089q.021 0 .031-.009a.1.1 0 0 1 .03-.008c.023.106.072.172.142.207q.105.048.239.049c.088.013.176.017.256.017q.122.001.176-.137.1-.158.283-.04a.95.95 0 0 0 .548.177q.287 0 .574-.04.284-.04.543-.119a1.7 1.7 0 0 0 .486-.234l.318-.185q.208-.126.432-.265a9 9 0 0 1 .848-.473l.075-.04c.181-.14.358-.29.539-.44q.267-.226.512-.442.246-.233.526-.42a1.2 1.2 0 0 0 .433-.499q.06-.06.061-.04l.186-.176q.038-.04.07-.08t.071-.08a.16.16 0 0 1 .097-.048.2.2 0 0 0 .097-.049q.206-.193.398-.393c.128-.128.269-.269.415-.41l.177-.168c.119-.097.234-.199.357-.291a7 7 0 0 0 .393-.332q-.146.642-.234 1.303a6.6 6.6 0 0 0 .049 2.014q.08.391.247.764.166.37.464.706a.5.5 0 0 0 .274.195q.147.04.287.119.56.312.83-.137c.106-.141.216-.278.331-.402a1.5 1.5 0 0 0 .283-.442q.093-.211.238-.42a3 3 0 0 0 .261-.44q.246-.469.446-.95.199-.478.446-.95c.185-.38.375-.764.561-1.152.185-.389.388-.777.605-1.153q.384-.643.768-1.28.384-.635.795-1.263a4.4 4.4 0 0 1 .34-.517q.187-.243.366-.499a3 3 0 0 1 .151-.177 1 1 0 0 0 .128-.176c.066-.106.119-.208.172-.305q.072-.148.172-.283.22-.25.42-.49c.132-.154.273-.313.423-.468a.5.5 0 0 1 .115-.08.5.5 0 0 0 .115-.079l.071.058c-.036.119-.062.234-.089.353q-.04.18-.114.331a6.15 6.15 0 0 0-.42 2.72q.08.86.477 1.594c.397.734.693.906 1.29 1.241q.396.233.755 0a10 10 0 0 1-.199-.344q-.094-.164-.194-.323a.7.7 0 0 1 0-.145 1 1 0 0 0 0-.128 1.4 1.4 0 0 0-.049-.393q-.052-.193.027-.314a.56.56 0 0 0 .088-.477.6.6 0 0 1 .048-.459 1.3 1.3 0 0 0 .076-.283.6.6 0 0 1 .119-.282 4 4 0 0 1 .154-.265 1.4 1.4 0 0 0 .128-.283.6.6 0 0 0 .08-.225.26.26 0 0 1 .106-.186.5.5 0 0 0 .221-.234q.052-.139.106-.291a.7.7 0 0 0 .053-.168.4.4 0 0 1 .075-.168c.181-.26.366-.52.547-.781.014-.018.027-.04.04-.058.071.01.137.036.212.036q.277.001.468-.071a1.2 1.2 0 0 1 .393-.08c.088.005.177.058.256.15q.107-.038.225-.07.119-.028.23-.049a.37.37 0 0 1 .278.137c.018.014.018.04.009.08a.24.24 0 0 1-.057.097c-.067.106-.124.207-.181.305q-.088.145-.181.304-.345.61-.663 1.25a8 8 0 0 0-.468.958 1.3 1.3 0 0 0-.146.323 3 3 0 0 1-.123.322c-.049.106-.102.212-.15.322-.049.11-.089.226-.124.34-.133.354-.243.725-.34 1.113a.2.2 0 0 0 0 .12q.019.06.004.154 0 .02-.039.049a.08.08 0 0 0-.04.07 10 10 0 0 0-.115.566 6 6 0 0 0-.071.565q-.02.272.018.539.034.262.062.538l.066.243c.022.084.053.168.088.243.093.181.186.353.292.517.101.163.207.322.309.481.106.181.23.34.375.468.128.106.252.208.371.314.12.106.239.207.349.313q.12.118.265.128a.56.56 0 0 1 .265.089c.155.092.331.167.53.234q.113.038.238.057a.4.4 0 0 0 .208-.018q.23-.136.508-.167a.87.87 0 0 0 .499-.226q.204-.192.455-.344.25-.145.481-.322a3 3 0 0 0 .269-.203q.124-.108.248-.208.167-.12.3-.243.133-.126.274-.265.178-.217.357-.442.18-.224.358-.441.223-.234.433-.46.212-.226.437-.459a2 2 0 0 0-.194-.176q.17-.078.19-.097a.4.4 0 0 0 .044-.137.15.15 0 0 1 .044-.098q.12-.156.247-.313a4.3 4.3 0 0 0 .499-.707 6 6 0 0 1 .252-.393 1 1 0 0 0 .071-.08c.017-.026.044-.052.07-.079q.092-.193.177-.393.078-.193.177-.393a1.1 1.1 0 0 1 .194-.291c.079-.093.079-.203-.009-.331-.071-.12-.084-.221-.04-.314a3 3 0 0 0 .12-.291 1.1 1.1 0 0 0 .092-.323c.014-.11.027-.216.049-.322a.25.25 0 0 0 0-.128c-.013.035-.022-.009-.027-.049m-30.271 3.992.04-.04a.74.74 0 0 0 .242-.353q.061-.193.155-.393a.5.5 0 0 1 .097-.137 1 1 0 0 0 .102-.119l.101-.097c.027-.053.049-.101.075-.146.027-.044.049-.092.075-.145a.5.5 0 0 0 .027-.177c.009-.053.022-.093.03-.128.014-.031.054-.044.133-.031q.027.02.067 0a.3.3 0 0 0 .061-.04 5 5 0 0 0 .257-.362q.114-.184.256-.362.019-.037.004-.088a1 1 0 0 1-.022-.106.73.73 0 0 0 .42-.274c.092-.128.19-.256.3-.371l.256-.243a1.8 1.8 0 0 0 .393-.539c.044-.092.097-.18.163-.273a.5.5 0 0 1 .102-.12 1 1 0 0 0 .168-.088.8.8 0 0 0 .145-.106q.14-.14.261-.291.12-.155.287-.257.145-.078.252-.176.101-.098.229-.177c.058-.04.106-.08.155-.119a2 2 0 0 0 .154-.137.8.8 0 0 0 .164-.137c.084-.08.137-.128.163-.154a.27.27 0 0 1 .195-.08q.044-.001.083.058.039.058.045.097c.013.128.026.26.048.393a1.4 1.4 0 0 1 0 .388 3.4 3.4 0 0 1-.234 1.056 6.3 6.3 0 0 1-.49.958.13.13 0 0 0-.044.097.5.5 0 0 1-.022.097.11.11 0 0 1-.036.098q-.159.193-.318.392-.16.194-.317.393c-.08.107-.164.208-.248.314a14 14 0 0 1-.27.314l-.083.08a2.6 2.6 0 0 1-.41.498q-.234.226-.526.42c-.07.053-.137.092-.212.128-.07.03-.141.07-.212.106l-.627.41q-.039.04-.084.04-.086.039-.16.058a.4.4 0 0 0-.136.057.5.5 0 0 1-.15.048q-.066.013-.199.031-.107.04-.194.058t-.195.057a.7.7 0 0 1-.375.018 2 2 0 0 0-.38-.04zm16.547-7.335a.2.2 0 0 0-.036.031l.053-.053-.017.023Zm1.002-.967c-.004 0-.004 0-.009.005q.008-.006.009-.005m4.712 1.157c-.013 0-.027.005-.044.005.022-.005.039-.014.061-.018q-.005.013-.017.013m6.615 4.023c-.035.089-.062.186-.088.278l-.499.848c.039-.106.066-.185.061-.234-.128.208-.26.415-.388.614-.062.097-.133.199-.199.3-.34.438-.684.87-1.002 1.316-.053.005-.111.018-.155.005q-.112-.027-.093.185.006.06-.101.106a.7.7 0 0 0-.168.106c-.057.04-.106.08-.155.12l-.114.097.044.106c.009.03.026.07.044.106h-.221a.22.22 0 0 0-.194.057q-.081.08-.075.155-.1.118-.181.203t-.181.185q-.204.16-.415.331-.207.18-.433.332l-.482.33a8 8 0 0 1-.503.332q-.212.121-.437.194-.227.078-.459.177c-.128.04-.217-.013-.257-.155a10 10 0 0 1-.128-.936.8.8 0 0 1 .014-.207c.017-.071.026-.142.035-.204.018-.145.031-.291.049-.45q.02-.232.048-.45l-.004-.058c.198-.106.278-.234.243-.393a1.4 1.4 0 0 1-.031-.468c.163.027.251-.009.256-.097a.5.5 0 0 1 .066-.234q.091-.212.15-.41.058-.194.155-.394.13-.27.247-.556c.08-.19.168-.38.269-.579.036-.08.08-.154.124-.225q.066-.106.146-.225.153-.271.287-.517.133-.243.287-.499c.062-.119.128-.23.203-.344a6 6 0 0 0 .203-.345 2 2 0 0 0 .146-.207 1 1 0 0 1 .172-.203c.133-.168.261-.34.384-.508q.186-.254.384-.508.157-.212.341-.41c.119-.129.242-.27.362-.411a.12.12 0 0 1 .079-.08.9.9 0 0 1 .362-.049c.142.01.287.031.442.08.15.044.296.102.424.168q.198.098.318.216a.9.9 0 0 1 .198.265c.204.552.314 1.073.38 1.616 0 .049 0 .102.009.15h.013c.014.129.04.243.044.376 0 .389.018.689-.026 1.002M55 7.503q.002-1.066-.375-1.788a3.14 3.14 0 0 0-1.03-1.17A4.5 4.5 0 0 0 52.06 3.9a8.6 8.6 0 0 0-1.894-.199h-4.54v12.36h2.985v-4.667h1.484q.961 0 1.85-.208a4.9 4.9 0 0 0 1.572-.662 3.3 3.3 0 0 0 1.082-1.197q.404-.742.402-1.824Zm-3.157.742a1.35 1.35 0 0 1-.482.464 2.1 2.1 0 0 1-.688.243q-.386.071-.804.07H48.61V6.108h1.307c.27 0 .526.018.778.053q.375.054.67.207c.2.106.354.252.473.438.115.185.177.424.177.715s-.057.53-.172.724m7.92-4.549-5.185 12.36h3.246l.91-2.424h4.782l.958 2.425h3.317l-5.132-12.36zm-.173 7.543 1.572-4.244 1.537 4.244zm18.347-1.696q.681-.857.68-2.11.001-1.066-.402-1.78A3.3 3.3 0 0 0 77.142 4.5a4.4 4.4 0 0 0-1.519-.618 8 8 0 0 0-1.735-.186h-4.712v12.36h2.914V11.15h1.016l2.685 4.907h3.493l-3.228-5.29c.8-.244 1.43-.654 1.881-1.224m-2.468-1.29a1.3 1.3 0 0 1-.517.455 2.4 2.4 0 0 1-.702.217q-.384.061-.755.062h-1.422v-2.88h1.594c.22 0 .455.018.693.053q.358.054.65.2c.194.096.348.238.472.419q.185.27.185.706 0 .47-.198.769Zm7.723 7.804h2.985V6.244h3.493V3.696h-9.967v2.548h3.489zM94.21 7.975h.048l4.977 8.082h3.387V3.697h-2.897l.066 8.063h-.048l-4.96-8.064H91.38v12.36h2.897l-.066-8.08Zm19.934 5.534h-5.745v-2.566h5.131V8.549h-5.131V6.21h5.431V3.696h-8.31v12.36h8.624zm5.235-2.359h1.016l2.684 4.907h3.494l-3.229-5.29q1.205-.367 1.886-1.224t.68-2.11q.001-1.066-.402-1.78a3.3 3.3 0 0 0-1.073-1.153 4.4 4.4 0 0 0-1.519-.618 8.4 8.4 0 0 0-1.735-.186h-4.712v12.36h2.914V11.15zm-.018-5.043h1.594q.334 0 .694.053.357.054.649.2.29.146.472.419.186.27.186.706.001.47-.203.769a1.3 1.3 0 0 1-.517.454 2.4 2.4 0 0 1-.702.217q-.384.061-.755.062h-1.422v-2.88zM20.083.636C9.387.636.719 9.304.719 20c0 10.695 8.668 19.364 19.364 19.364 10.695 0 19.364-8.669 19.364-19.364S30.774.636 20.083.636M31.25 14.294q.006.094-.013.168c-.014.053-.014.11-.014.168a4.3 4.3 0 0 1-.481 1.802 1 1 0 0 1-.08.185.7.7 0 0 0-.079.186q-.138.33-.283.653a4 4 0 0 1-.348.619l-.036.008c-.159.203-.313.402-.463.61q-.227.306-.473.574a30 30 0 0 1-.866.914 18 18 0 0 1-.94.9 2.7 2.7 0 0 1-.437.345q-.232.146-.504.305l-.287.185a3 3 0 0 0-.265.2c-.07.056-.132.105-.18.158a3 3 0 0 0-.16.172.2.2 0 0 0-.066.062.2.2 0 0 1-.066.062.06.06 0 0 1-.031.026.06.06 0 0 0-.031.027c-.203.115-.415.234-.627.366l-.777.393a13 13 0 0 1-.8.38q-.004-.001-.008.005c-.005.013-.005.022-.01.035-.066.256 0 .314-.017.362q-.027.074 0 .102c.031.08.04.137.018.172a.4.4 0 0 0-.049.132q-.033.16-.053.3-.02.148-.022.274a28 28 0 0 0-.075 1.749q-.001.206.004.41.006.207.005.412.013.053 0 .075a.85.85 0 0 0-.07.49c.026.172.03.344.008.508l-.013.123a1 1 0 0 0-.014.124q-.032.233-.057.473c-.018.158-.013.322.005.49.026.194.057.384.092.582q.055.291.097.601a1 1 0 0 1 .023.155c0 .057.008.11.026.172a.17.17 0 0 0 .018.097q.024.06.035.093.133.153-.057.22-.033.009-.053.05a.12.12 0 0 0-.01.074q.076.146.124.305c.031.102.076.203.124.305a.2.2 0 0 0 .049.044q.02.012.048.044l.075.044.075.044c.022.031.04.066.053.097.014.036.04.076.08.129a.3.3 0 0 0-.12.013.3.3 0 0 1-.101.009 1.36 1.36 0 0 1-.927-.358 9 9 0 0 1-.376-.331 5 5 0 0 0-.375-.331c-.04-.053-.07-.102-.102-.142q-.046-.064.027-.154a.17.17 0 0 0-.018-.098q-.026-.06-.066-.066a2 2 0 0 1-.234-.22.7.7 0 0 1-.141-.3v-.005a2.5 2.5 0 0 1-.115-.362q-.034-.092-.075-.19a2 2 0 0 1-.15-.548 16 16 0 0 1-.133-.923q-.045-.396-.097-.786l-.013-.07v-.027c0-.009-.005-.022-.005-.03a3.5 3.5 0 0 1-.04-.659l-.026-.393a1.6 1.6 0 0 1 .027-.406 20 20 0 0 1-.018-.508l-.018-.508a5 5 0 0 0 .031-.499q.002-.145.009-.282-.694.286-1.435.578a4 4 0 0 1-.645.22c-.146.036-.305.072-.46.107.014.137.023.278.036.349.027.119.022.256-.075.454a1 1 0 0 0-.053.12q-.027.073 0 .106c.031.08.04.141.018.176a.4.4 0 0 0-.049.137q-.033.161-.053.31a2 2 0 0 0-.022.282c-.022.31-.07.631-.075.923 0 .141 0 .278.004.42q.006.206.005.419.014.054 0 .075a.86.86 0 0 0-.07.503q.04.265.008.521l-.013.129a1 1 0 0 0-.014.128q-.032.238-.057.481c-.018.163-.013.331.005.503.026.2.057.393.097.592s.07.402.101.614a.6.6 0 0 1 .022.155c0 .33-.128.67-.044.724s.093.203.128.309q.05.157.128.309c.018.022.354.358.393.415-.04-.004-.198.027-.225.018q-.53.002-.95-.367c-.127-.106-.127-.093-.256-.212-.048-.044-.198-.035-.198-.19 0-.084-.26-.251-.287-.296-.031-.044-.358-.605-.42-.68a.8.8 0 0 1-.145-.304v-.005a3 3 0 0 1-.115-.37c-.022-.067-.049-.129-.075-.195a2 2 0 0 1-.155-.56 17 17 0 0 1-.137-.941c-.03-.27-.066-.535-.097-.8-.004-.022-.013-.044-.013-.07v-.027c0-.009-.005-.022-.005-.03a3.6 3.6 0 0 1-.04-.672l-.026-.402c-.009-.132.018-.927.022-1.1q0-.257.013-.507c.01-.217.018-.433.036-.645.004-.053.004-.11.009-.163l-.11.026q-.518.122-1.034.256a4.6 4.6 0 0 1-.715.164c-.239.035-.469.066-.698.088l-.795.15q-.41.051-.808.097c-.398.046-.526.067-.786.11a5 5 0 0 1-.234.023q-.107.007-.234.022-.068.019-.208.053c-.093.022-.534-.022-.61-.066q-.356-.24-.626-.782l-.133-.37-.132-.372a8 8 0 0 1-.128-.384 8 8 0 0 0-.128-.384 1.6 1.6 0 0 0-.005-.517l-.084-.477a2.5 2.5 0 0 1-.088-.645c-.005-.022-.005-.044.004-.057s.01-.035.005-.057q.013-.316.04-.566c.017-.163.057-.33.114-.49a.5.5 0 0 0 .11-.212c.018-.08.027-.154.036-.23a1 1 0 0 1 .004-.158 1 1 0 0 0 .014-.124q.12-.196.225-.38.11-.184.26-.388a.4.4 0 0 1 .067-.137q.05-.06.101-.146c.062-.04.097-.088.093-.137q-.001-.075.004-.128c-.013-.106.04-.203.168-.283q.061-.053.115-.092a.5.5 0 0 0 .106-.128l.013-.023a1 1 0 0 0 .115-.123.4.4 0 0 0 .075-.203.12.12 0 0 1 .018-.08.44.44 0 0 0 .318-.062 4 4 0 0 0 .234-.172.1.1 0 0 0 .04-.017q.006-.014.04-.018.12-.107.269-.208.15-.105.282-.23a7 7 0 0 0 .455-.348q.204-.173.442-.327a1 1 0 0 1 .19-.093 2 2 0 0 0 .176-.07q.06.007.08-.014a.2.2 0 0 1 .08-.013c.25.208.556.19.909-.049q.013-.02.106-.052c.093-.032.15 0 .27.07a.14.14 0 0 1 .039.053q.02.042.049.088c-.385.38-.751.751-1.113 1.109q-.536.535-1.038 1.183c-.177.23-.358.5-.552.809-.19.309-.627.772-.715 1.046a2.4 2.4 0 0 0-.128.318 2 2 0 0 1-.129.318c-.048.159-.057.287-.066.375.005.062.01.115.005.16q-.009.066-.022.145.01.032.101.11a.4.4 0 0 1 .102.11l.004.261.225.005q.047.027.08.013.16.025.247.018c.062-.005.12-.014.181-.018.062-.004.12-.013.181-.018q.59-.032 1.069-.123c.362-.075.742-.155 1.14-.23q.59-.12 1.24-.265c.42-.101.84-.23 1.272-.353q.001-.28.022-.548.033-.544.08-1.055c.03-.345.053-.693.061-1.051q.018-.517.075-1.047a3.7 3.7 0 0 0-.044-1.055c-.013-.199.04-.345.155-.428a.9.9 0 0 1 .252-.12.7.7 0 0 0-.12-.145 3 3 0 0 1-.212-.203l-.062-.098q0-.37-.048-.715a4 4 0 0 1-.027-.729 2 2 0 0 1 .062-.618c.053-.216.106-.428.15-.64q-.014-.027.031-.053l.022-.013q.238-.054.442-.319a.2.2 0 0 1 .093-.04q.044-.012.075-.066.085-.292.309-.313.224-.025.428-.124a.6.6 0 0 1 .53.036q.086.079.19.084a1 1 0 0 1 .22.026l.08.018q.252.178.384.516.131.34.071.614a.12.12 0 0 0-.013.11.16.16 0 0 1 .009.098c.088.282.106.587.044.918a.6.6 0 0 0 .04.146.3.3 0 0 1 .017.159 3.4 3.4 0 0 1-.114.512 4 4 0 0 0-.106.473c-.036.159-.137.225-.314.199.203.14.225.265.066.366-.044.04-.097.066-.145.102.07.04.145.08.212.137l.242.203c.08.057.137.119.181.19q.066.105.031.269a.08.08 0 0 0 .018.07.2.2 0 0 0 .049.045q.172.073.172.22-.032.24-.058.45a5 5 0 0 0-.022.425.3.3 0 0 1-.066.11q-.044.125-.062.243a.7.7 0 0 1-.084.23.6.6 0 0 0-.11.388 1 1 0 0 1-.04.371c-.04.089-.084.177-.12.27a.7.7 0 0 0-.056.291q-.001.08-.01.155l.036-.014c.331-.097.658-.207.972-.322q.47-.179.962-.358l.07-.017c.019-.005.04-.018.058-.027.014-.194.027-.388.044-.574q.047-.504.062-1.029.02-.509.07-1.024a3.7 3.7 0 0 0-.039-1.034q-.019-.292.155-.42a.7.7 0 0 1 .185-.096c-.009-.018-.017-.027-.026-.044a.3.3 0 0 0-.133-.133q-.084-.047-.19-.102-.06-.04-.123-.079c-.04-.026-.058-.057-.049-.084q.114-.33-.11-.521a.77.77 0 0 1-.27-.473 1 1 0 0 0 .084-.048q.06-.033.053-.106-.033-.323.12-.521.15-.198.375-.402a.5.5 0 0 0 .18-.177 3 3 0 0 1 .151-.234c.146-.234.256-.432.336-.605q.206-.497.658-.3a1 1 0 0 0 .251.044c.248-.093.42-.123.508-.101q.133.04.384.344.16.213.265.433c.071.146.142.305.208.464q.184.386.27.772.087.385.14.809.045.277.023.534a17 17 0 0 0-.036.565c.018.115-.022.203-.119.256a9 9 0 0 0-.468.208l-.035.013c.035.03.075.062.11.093a.6.6 0 0 1 .177.185c.044.07.273.146.265.592q-.033.235-.053.442a4 4 0 0 0-.022.415.3.3 0 0 1-.067.11 2 2 0 0 0-.048.19.6.6 0 0 1 .128-.049c.048-.013.101-.03.168-.061q.099-.047.132-.2.066-.11.252-.176l.19-.124a.5.5 0 0 0 .159-.172q.021.016.044-.004a.2.2 0 0 1 .08-.013.2.2 0 0 0 .11-.067.26.26 0 0 1 .11-.066c.07-.057.133-.106.177-.146l.141-.136c.062-.04.146-.11.243-.212a2 2 0 0 1 .22-.15 6 6 0 0 0 .208-.129.4.4 0 0 0 .115-.048c.031-.022.062-.04.097-.062q.246-.121.477-.26c.155-.098.3-.24.433-.438q.114-.198.393-.415c.07-.057.137-.11.186-.168l.167-.18a34 34 0 0 0 1.51-1.758c.071-.115.124-.292.164-.521a2.3 2.3 0 0 1 .141-.535.6.6 0 0 1 .067-.212q.044-.078.097-.163c.141-.31.092-.583-.16-.83q-.489-.466-1.02-.91a3 3 0 0 0-1.223-.618 1.6 1.6 0 0 1-.309-.097 1.3 1.3 0 0 0-.291-.084 10 10 0 0 1-.429-.15 2.3 2.3 0 0 0-.42-.115 1.5 1.5 0 0 1-.277-.075 2 2 0 0 0-.3-.089c-.274-.066-.561-.128-.857-.194a2.8 2.8 0 0 0-.875-.062q-.145 0-.291-.026a5 5 0 0 1-.322-.075 2 2 0 0 1-.221-.027 2 2 0 0 0-.221-.026l-.137-.022a16 16 0 0 0-1.038-.11l-1.029-.08a28 28 0 0 0-1.29-.058l-1.17-.013a2 2 0 0 0-.22 0 1 1 0 0 0-.177.027q-.013-.33-.066-.363t-.252 0a.2.2 0 0 1-.119.005.2.2 0 0 0-.12.004.8.8 0 0 1-.211-.04.6.6 0 0 0-.19-.026c-.186.049-.362.07-.539.066a12 12 0 0 1-.543-.026 4 4 0 0 0-.8-.044q-.39.02-.78.08a.4.4 0 0 0-.111.14q-.166-.364-.579-.313c-.062.004-.115.009-.15.009-.035.004-.009.026-.018-.022q.278-.072.557-.071.278 0 .539.009a1 1 0 0 1 .159.004.6.6 0 0 0 .159.005c.172.004.33-.177.56-.221.098.009.186-.08.265-.084s.01-.22-.185-.22l-.097-.098-.371-.04-.172-.172c-.15-.088-.601-.044-.429-.062.172-.017.075-.159-.278-.168l-.084.018c-.03-.018-.278.062-.34.049a.5.5 0 0 0-.181-.018 1 1 0 0 1-.159.022 1 1 0 0 1-.203-.004l.07-.018a1 1 0 0 0-.463-.084.6.6 0 0 0-.402.16 1 1 0 0 0-.146 0l-.017-.072c-.133-.075-.354-.04-.204-.075q.06-.014.146-.048.232-.089.636-.3.326-.102.777-.071c.062-.005.124-.005.195-.005q.104 0 .23-.013l.021.013q.073-.019.15-.03a.3.3 0 0 0 .168-.107q.127-.159.446-.207.08-.04.292-.093.061-.054.154-.115l.014-.022.132-.128-.009-.035.036-.009a1 1 0 0 0 .194-.03q.103-.026.194-.032c.133-.022.256-.04.384-.053q.193-.019.385-.053c.048-.013.083-.017.114-.022a.4.4 0 0 0 .115-.022 1 1 0 0 0 .177-.026 1 1 0 0 1 .176-.027q.24-.005.513.009.272.014.512.009.159-.021.331-.009.172.014.318.009a.4.4 0 0 1 .097-.018.4.4 0 0 0 .097-.018l.115.01a5 5 0 0 1 .26-.023 4 4 0 0 0 .261-.022q.317.012.6.005.287-.008.606-.053.106-.026.225-.031c.08 0 .168-.005.265-.005a6 6 0 0 0 .437-.022c.133-.009.283-.035.442-.075.198-.04.46-.013.777.075q.132.019.225.044a1 1 0 0 0 .203.031l.045.027.15.017a.19.19 0 0 0 .168-.061.5.5 0 0 1 .313-.08c.115.009.243.035.393.084a1 1 0 0 1 .12.026.5.5 0 0 0 .119.027.12.12 0 0 1 .079.018c.04.004.084.008.137.022s.11.013.168.013a.94.94 0 0 1 .865.278.4.4 0 0 0 .16.155q.117.07.282.048a.5.5 0 0 1 .287.036 3 3 0 0 1 .3.163l.23.137q.119.072.278.106.29.053.68.344l.239.142.088.053.044.026c.093.11.181.22.265.318q.132.152.278.296.325.345.645.702.271.338.543.702c.181.243.322.504.433.786a.6.6 0 0 1 .115.23c.022.08.044.181.075.296.013.044.022.088.03.119q.013.053.032.12l.008.035c.005.022.014.057.018.097.005.04.027.084.057.123a.94.94 0 0 1 .212.389q.053.206.08.46c.009.18.062.379.15.591q-.012.021.009.035a.73.73 0 0 0-.075.424q.032.193.097.38l.009.035a.4.4 0 0 1 .004.164.7.7 0 0 1-.035.23Z"/></svg>