<svg xmlns="http://www.w3.org/2000/svg" width="257" height="73" fill="none"><path fill="#000" fill-rule="evenodd" d="M83.408 1.134c-.107.13-.115.235-.022.292.202.125 40.743.132 41.06.007.141-.055.572-.055.959 0 .386.056 1.897.149 3.358.207l2.655.104-2.729.035c-1.501.02-12.304.031-24.006.026l-21.276-.01-.21.485-.21.484.083-.59c.08-.582.077-.587-.215-.328-.193.17-.387.687-.555 1.475-.142.667-.379 1.346-.526 1.508a1.9 1.9 0 0 0-.37.738c-.275 1.192-1.327 4.69-1.686 5.605a57 57 0 0 0-.967 2.796c-.363 1.14-.683 1.876-.906 2.082-.189.175-.343.424-.343.551s-.067.274-.148.324-.148.27-.148.488c0 .416-2.441 7.45-3.336 9.617-.864 2.09-2.353 6.157-4.132 11.285-.282.81-.698 1.74-.926 2.065s-.56 1.088-.739 1.696c-.782 2.667-2.822 8.536-4.178 12.023a196 196 0 0 0-1.518 4.056 455 455 0 0 1-3.17 8.482c-.864 2.24-2.08 5.845-2.027 6.006.05.151 50.79.194 51.175.043.246-.096.671-.97 1.007-2.066.205-.67 1.878-5.482 2.964-8.524.4-1.118.726-2.13.726-2.25 0-.188-2.251-.216-17.837-.216-9.81 0-17.942-.04-18.07-.09-.963-.369.5-.395 17.726-.315 9.878.046 18.056.106 18.173.134.117.027.236-.056.264-.186.047-.21-.419-.246-4.269-.332-2.377-.053-10.478-.103-18.003-.11s-13.715-.068-13.755-.133c-.084-.134 1.528-4.728 3.986-11.359l1.668-4.499 16.099-.015c9.283-.01 16.152-.072 16.225-.148.069-.072.523-1.327 1.008-2.787 1.017-3.06 2.763-7.98 3.314-9.34.257-.634.323-.949.207-.984-.094-.029-6.876-.092-15.07-.141-8.195-.049-15.238-.128-15.652-.176l-.752-.087.277-1.053c.413-1.57 1.222-3.971 2.366-7.027a146 146 0 0 0 1.537-4.293l.514-1.563 2.529-.103c1.39-.057 5.651-.064 9.468-.018 3.818.047 10.753.034 15.411-.03l8.47-.115.138-.443c.076-.243.76-2.106 1.52-4.14a404 404 0 0 0 2.317-6.362l.935-2.665-.82-.109c-.451-.06-11.751-.131-25.111-.159-20.41-.041-24.316-.017-24.457.152m66.302-.07c-4.042.06-5.155.118-5.126.263.055.276-3.809 11.765-8.495 25.26a1304 1304 0 0 0-4.796 14.014c-2.437 7.299-4.765 14.103-5.628 16.448-.538 1.46-1.808 5.21-2.823 8.334-1.581 4.867-2.08 6.325-2.511 7.33-.058.135 1.621.166 7.22.131 4.013-.024 7.366-.087 7.451-.14.086-.053.236-.345.333-.648s1.553-4.567 3.235-9.475c1.682-4.909 3.641-10.65 4.354-12.76a360 360 0 0 1 1.581-4.61l.284-.775h10.735l.352.38c.194.209.512.64.707.96s1.129 1.77 2.076 3.222c1.709 2.623 2.099 3.253 2.109 3.415.003.046.123.202.268.347s.403.538.575.875.6 1.034.954 1.55c.353.517.647.981.653 1.033.071.585.469 1.347.703 1.347.153 0 1.714 2.283 2.017 2.95.129.284.627 1.048 1.107 1.697s1.053 1.512 1.275 1.917c.221.406.871 1.378 1.443 2.161s1.701 2.5 2.508 3.814 1.537 2.413 1.622 2.44c.414.132 16.102.317 16.235.192.231-.217-.421-1.246-5.548-8.754a1178 1178 0 0 1-3.701-5.458c-.983-1.46-2.262-3.32-2.843-4.13-.581-.812-1.772-2.604-2.648-3.983s-2.041-3.139-2.588-3.91c-.548-.77-1.197-1.799-1.443-2.285l-.446-.884 2.454-.387c3.09-.487 5.904-1.304 7.223-2.098 2.544-1.53 5.141-3.842 6.821-6.073.994-1.32 1.131-1.57 1.854-3.365.778-1.934 1.3-3.851 1.539-5.643.246-1.846.105-6.845-.241-8.546-.148-.73-.307-1.36-.354-1.401s-.243-.539-.437-1.107c-.377-1.103-1.382-3.246-1.694-3.613a3.5 3.5 0 0 1-.314-.443c-.107-.191-.09-.194.125-.02.763.62-.579-1.416-1.71-2.594-1.148-1.196-1.4-1.199-.379-.005.677.793.569.715-.771-.553-1.889-1.788-3.098-2.617-5.478-3.755-1.665-.797-3.81-1.482-4.643-1.482-.187 0-.34-.074-.34-.165 0-.108.169-.135.479-.077.302.057.398.043.258-.038-.121-.07-1.084-.274-2.139-.453-3.127-.53-9.632-.655-23.454-.45m49.97-.036c-.604.054-.791.215-.477.41.082.05.104.166.048.257-.107.172-.076 70.94.03 71.047.125.125 31.232.001 34.143-.136 6.521-.306 9.806-.905 12.538-2.285 1.603-.809 4.955-3.373 5.909-4.52 1.835-2.204 3.434-5.145 3.97-7.298 1.405-5.644 1.073-11.48-.845-14.878-.788-1.395-1.249-2.014-2.507-3.367-1.236-1.329-3.566-3.197-3.987-3.197-.075 0-.342-.197-.593-.438-.252-.24-.925-.672-1.497-.96s-1.04-.584-1.04-.658.482-.363 1.07-.644c3.096-1.475 6.019-6.293 6.591-10.864.235-1.883-.299-6.771-.975-8.914-1.021-3.239-3.348-6.489-6.169-8.619-.877-.661-1.799-1.167-4.057-2.224-.366-.17-.365-.172.074-.105.243.037.575.115.737.174.175.064.245.053.173-.026-.258-.282-4.488-1.525-5.216-1.532-.178-.002-.364-.069-.413-.149-.056-.09.092-.11.397-.052.267.05.448.05.401-.002-.046-.051-.909-.262-1.917-.467-1.509-.308-2.524-.399-5.742-.514-3.655-.13-29.268-.163-30.646-.04ZM.794 1.198c0 .072.1.32.22.553.122.233.222.532.222.666.001.322 1.372 4.218 3.315 9.419.863 2.312 1.926 5.167 2.361 6.343 1.973 5.333 4.777 12.87 5.789 15.563 1.76 4.682 3.547 9.55 4.387 11.948a123 123 0 0 0 1.329 3.614c.304.771.706 1.866.892 2.434.32.976.705 2.025 3.086 8.409 2.371 6.355 3.07 8.246 3.843 10.393.451 1.254.88 2.316.95 2.36.072.044 3.879.063 8.46.041l8.33-.04.765-2.173a302 302 0 0 1 1.366-3.796c.33-.892.851-2.353 1.157-3.245.305-.892.899-2.552 1.319-3.688a705 705 0 0 0 1.403-3.835c.352-.974 1.084-2.932 1.625-4.352.542-1.42 1.603-4.274 2.358-6.343.754-2.069 2.202-5.985 3.217-8.703 3.334-8.933 3.978-10.683 4.316-11.728.692-2.136 3.575-10.006 4.837-13.202.208-.527 1.12-3.017 2.026-5.532s1.715-4.657 1.798-4.76c.083-.104.102-.237.043-.296s-3.52-.13-7.691-.156l-7.585-.05v.325c0 .325.003.326 2.545.272 3.221-.068 10.656-.005 10.562.09-.04.039-3.068.074-6.732.079-3.913.005-6.694.064-6.744.145-.046.075-.373 1.284-.727 2.686-.863 3.428-1.444 5.175-1.56 4.69-.069-.294-.162-.132-.485.845-.22.665-.4 1.344-.4 1.508 0 .363-1.632 5.415-3.338 10.332a2791 2791 0 0 0-3.37 9.81c-4.118 12.052-7.126 20.816-7.595 22.127-.261.73-.574 1.61-.695 1.955-.215.615-.49.842-.49.405 0-.121-.057-.221-.127-.221s-.096.166-.057.369.012.368-.06.368c-.186 0-.542-.881-1.069-2.655-.253-.852-.899-2.777-1.434-4.278a419 419 0 0 1-1.677-4.794 618 618 0 0 0-2.288-6.49 517 517 0 0 1-2.303-6.555 209 209 0 0 0-1.825-5.09 411 411 0 0 1-2.347-6.5c-1.791-5.11-3.781-10.663-4.917-13.718-.542-1.46-1.131-3.153-1.308-3.762l-.322-1.106-6.25-.074c-5.21-.062-5.91-.093-4.213-.189 1.118-.063 3.923-.069 6.232-.013 3.739.09 4.198.076 4.198-.128 0-.126-.105-.269-.233-.318-.376-.144-15.109-.104-15.109.041m147.883.452c-.73.054 4.116.112 10.768.128s12.462.06 12.908.096l.811.066-.664-.15c-.764-.173-21.734-.296-23.823-.14m51.046.129c.057.136.155.446.218.69.114.44.114.44.129-.11l.016-.554 17.369-.022c9.554-.013 16.939-.07 16.411-.13-.527-.058-8.448-.11-17.602-.114-15.526-.007-16.638.009-16.541.24m-44.87 13.878c-.194.454-.419.925-.5 1.047-.195.296-.09.005-1.641 4.499-.756 2.19-1.356 4.066-1.334 4.167.023.102-.032.185-.122.185-.089 0-.121.067-.07.148.135.22-.071.757-.249.647-.098-.061-.115.023-.047.237.061.194.048.297-.032.248-.075-.047-.418.89-.761 2.083l-.707 2.447c-.08.271.163.276 9.855.188 7.419-.068 10.179-.14 10.895-.288.912-.187.935-.202.461-.299a5.6 5.6 0 0 0-.922-.1c-.587 0-.536-.292.056-.314 2.254-.085 2.705-.225 2.697-.835-.004-.33.067-.41.4-.447.224-.026.406-.13.406-.23 0-.295.798-.978 1.141-.978.245 0 .38-.178.62-.82.466-1.247.591-1.909.694-3.688.189-3.256-.427-5.377-1.907-6.567-.423-.34-1.236-.842-1.807-1.116-1.845-.885-2.456-.946-9.992-.995l-6.782-.045zm59.689 7.03v7.766l8.888-.069c8.986-.069 10.584-.165 10.584-.639 0-.17.444-.378.885-.415.983-.083 2.953-2.44 3.029-3.624.019-.286.092-.985.162-1.553s.125-1.829.122-2.802c-.005-1.7-.024-1.807-.481-2.693-.262-.507-.542-.922-.622-.922s-.145-.08-.145-.178c0-.176-.231-.395-1.401-1.327-.521-.415-.549-.423-.233-.072.468.52.372.502-.749-.136-1.892-1.076-1.167-1.007-11.078-1.057l-8.961-.045zm-121.21 7.256c1.201.025 3.126.025 4.277 0s.168-.045-2.184-.045-3.295.02-2.094.045ZM219.53 31.27c1.811.023 4.732.023 6.491 0 1.759-.024.278-.043-3.292-.043s-5.009.02-3.199.043m-3.845 11.653-1.291.049v3.215c0 1.769.044 5.318.098 7.886l.098 4.671h11.054c9.011 0 11.14-.037 11.519-.201l.834-.359c.359-.153.36-.158.036-.167-.203-.007-.331-.103-.331-.25 0-.186.096-.22.426-.154.37.074.417.046.352-.203-.066-.251.002-.288.52-.288.818 0 1.062-.12 1.062-.525 0-.19.162-.52.359-.733.198-.214.323-.485.278-.604-.046-.118.016-.328.137-.467.121-.14.265-.452.319-.695.332-1.48.393-1.885.444-2.95.116-2.4-.648-4.437-2.122-5.664-1.532-1.275-3.043-1.9-5.747-2.375-1.559-.274-2.251-.294-9.22-.266-4.144.017-8.115.053-8.825.08m-1.291 16.465c0 .34 1.07.39 8.392.383 7.431-.007 12.387-.165 12.998-.415.256-.105-2.952-.153-10.511-.16-9.094-.008-10.879.024-10.879.192" clip-rule="evenodd"/></svg>