<svg xmlns="http://www.w3.org/2000/svg" width="315" height="98" fill="none"><path fill="#000" fill-rule="evenodd" d="M26.314.309h-.001l-.2.028c-3.9.535-8.813 2.81-12.579 5.85l-1.3 1.032V1.465H0V98h12.234V61.087l1.3 1.032c3.861 3.078 8.143 5.104 12.464 5.888 2.16.402 7.053.306 9.749-.191 6.06-1.09 10.934-3.651 15.044-7.933 4.607-4.779 7.34-10.762 8.602-18.848.478-3.097.478-10.667 0-13.764-.86-5.563-2.39-9.978-4.817-13.974C50.313 6.282 43.699 1.848 35.364.433 33.682.146 29.21-.084 28.196.05c-.28.035-1.102.15-1.87.257zm5.418 3.832c3.135.497 5.659 1.778 7.761 3.919 1.453 1.49 2.141 2.466 3.231 4.664 2.485 4.99 3.728 12.139 3.728 21.429 0 18.428-4.856 28.425-14.586 30.012-6.289 1.013-14.547-2.447-18.886-7.895l-.746-.937v-42.38l.937-1.108c1.988-2.37 4.205-4.072 7.168-5.506 4.034-1.969 7.99-2.733 11.393-2.198" clip-rule="evenodd"/><path fill="#000" d="M97.988.127c-2.141.554-4.683 2.427-8.086 6.002-1.912 2.007-4.97 5.64-5.161 6.155-.344.899-.44-.325-.44-5.276V1.465H72.067V66.84H84.3V18.325l1.376-1.797c.746-.975 2.16-2.561 3.116-3.498 2.753-2.715 5.085-3.862 7.475-3.67 2.045.153 2.676.592 7.914 5.467 5.352 4.97 5.983 5.429 8.009 5.658.994.115 1.3.057 2.218-.363 1.185-.535 2.886-2.065 4.358-3.919.879-1.109 3.383-5.085 3.383-5.352 0-.058-.344-.344-.745-.65-.612-.42-.803-.478-1.013-.268-1.931 1.854-3.69 1.835-6.098-.095-.688-.555-2.332-2.027-3.632-3.25-3.575-3.365-5.467-4.856-7.169-5.716-1.376-.688-1.739-.784-3.154-.86-.88-.038-1.93.02-2.351.115Z"/><path fill="#000" fill-rule="evenodd" d="M128.956 12.973C133.964 5.25 141.802.796 151.685.05c1.835-.134 6.136.096 8.219.459 3.671.63 6.691 1.701 9.769 3.48 8.239 4.72 13.419 13.342 14.814 24.716.287 2.37.287 8.602 0 10.896-1.089 8.66-4.071 15.274-9.194 20.358-2.371 2.37-4.378 3.824-7.207 5.238-4.817 2.409-10.877 3.498-16.765 3.02-4.396-.363-7.627-1.223-11.297-3-10.59-5.105-16.727-16.517-16.727-31.064 0-8.22 1.931-15.427 5.659-21.18m42.341 14.375c-1.108-13.668-5.409-21.353-13.113-23.436-1.51-.42-5.18-.612-6.691-.364-8.296 1.377-12.941 8.201-14.662 21.62-.401 3.155-.344 15.427.096 18.639 1.74 12.769 6.232 19.421 14.088 20.855 3.728.669 7.742.038 10.667-1.682 1.529-.88 3.995-3.403 5.104-5.18 1.931-3.136 3.403-7.82 4.129-13.21.516-3.708.707-13.075.382-17.242" clip-rule="evenodd"/><path fill="#000" d="M214.404.127c-8.01.994-14.624 5.658-17.185 12.08-.899 2.2-1.166 3.671-1.166 6.366 0 5.143 1.643 8.985 5.371 12.54 3.67 3.499 6.863 5.028 16.096 7.647 6.442 1.835 8.353 2.504 10.896 3.804 5.62 2.886 7.933 7.283 6.499 12.425-.631 2.275-1.395 3.518-3.422 5.544-2.045 2.064-3.765 3.097-6.423 3.861-1.969.574-6.155.612-8.105.077-3.88-1.052-7.168-3.69-9.271-7.475-1.281-2.274-2.695-6.748-3.078-9.615-.076-.535-.21-.994-.325-.994-.248 0-10.896 2.715-11.01 2.791-.134.115.516 2.466 1.108 4.014 1.778 4.607 5.659 8.87 10.399 11.432 6.404 3.46 15.809 4.645 23.035 2.886 8.965-2.16 15.599-8.698 16.86-16.592.306-1.835.153-6.156-.267-7.685-1.166-4.282-4.435-7.99-9.252-10.475-3.46-1.797-6.442-2.849-14.758-5.18-7.149-2.008-9.864-3.308-12.559-6.041-2.562-2.6-3.441-5.773-2.542-9.253.688-2.714 2.179-4.874 4.492-6.518 2.963-2.122 6.251-2.81 10.055-2.084 4.817.899 8.2 3.995 10.112 9.214.65 1.797 1.262 4.13 1.453 5.505.057.536.172 1.09.248 1.205.115.153 1.606-.153 5.372-1.109 2.867-.745 5.238-1.376 5.295-1.415.134-.133-.516-2.427-1.032-3.67-2.868-6.882-9.845-11.68-18.848-12.98-2.524-.363-6.385-.516-8.048-.305"/><path fill="#000" fill-rule="evenodd" d="M258.676 15.228c4.817-8.831 13.056-14.203 23.188-15.101 1.051-.077 3.077-.115 4.492-.058 7.914.287 14.26 2.83 19.116 7.704 4.358 4.34 7.245 10.4 8.487 17.778.344 2.064.688 5.677.688 7.302v1.109h-47.082l.134 3.383c.363 10.055 2.217 17.186 5.601 21.773 1.835 2.466 3.785 3.938 6.499 4.913 3.766 1.357 8.717 1.109 12.062-.63 1.568-.804 2.084-1.186 3.441-2.524 2.753-2.715 4.645-6.633 5.869-12.12.286-1.261.535-2.313.592-2.35.039-.039 2.466.535 5.372 1.28 2.925.745 5.543 1.415 5.83 1.491l.516.115-.305.784c-1.53 4.033-3.728 7.474-6.538 10.265-4.76 4.721-10.38 7.13-18.275 7.856-6.174.555-12.1-.478-17.204-2.963-9.118-4.473-14.911-13.285-16.44-25.022-.382-3.02-.382-9.119.019-12.215.574-4.416 2.103-9.405 3.938-12.77m39.742-2.198c-1.854-4.836-5.18-8.124-9.29-9.176-1.415-.363-5.142-.516-6.691-.286-6.939 1.108-11.565 6.786-13.553 16.65-.573 2.829-1.07 6.824-1.07 8.62v1.3h16.611c9.157 0 16.669-.076 16.727-.152.153-.268-.249-5.334-.669-8.354-.459-3.23-1.205-6.327-2.065-8.602" clip-rule="evenodd"/></svg>