<svg xmlns="http://www.w3.org/2000/svg" width="460" height="121" fill="none"><g fill="#000" fill-rule="evenodd" clip-path="url(#a)" clip-rule="evenodd"><path d="M14.768 55.176v27.83l36.8 22.264 36.8-22.264V46.464L56.895 65.34c-3.39 2.178-7.506 2.178-10.895 0L3.39 39.688c-4.6-2.662-4.6-9.68 0-12.342L46 1.452c3.39-2.178 7.505-2.178 10.895 0l31.473 18.876-14.526 8.712-22.274-13.552-10.41 6.292-18.884 11.374 9.926 6.05 19.368 11.858 39.706-23.958c2.179-1.21 5.326-1.21 7.505 0 2.421 1.21 4.358 3.872 4.358 7.018v50.82c0 3.872-1.937 7.502-5.326 9.438l-40.916 25.168c-3.39 2.178-7.506 2.178-10.895 0L5.326 94.864C1.936 92.686 0 89.298 0 85.426V46.464zm183.758 20.086c0-9.438-5.084-15.246-15.979-17.424l-9.2-1.694c-6.294-1.21-8.716-3.388-8.716-7.26 0-4.356 3.874-7.018 10.169-7.018 6.537 0 11.379 2.42 11.379 8.47h11.379c0-13.068-11.137-18.15-22.516-18.15-14.042 0-22.274 7.744-22.274 17.908 0 8.954 5.811 14.762 16.221 16.698l9.2 1.694c5.811 1.21 8.232 3.146 8.232 7.26 0 4.84-4.358 7.744-10.895 7.744-8.231 0-12.347-3.388-12.347-8.228h-11.863c0 10.89 9.2 18.15 24.21 18.15 12.832-.242 23-6.776 23-18.15m241.379-26.62c-6.295 0-11.379 2.42-13.558 6.292V30.25h-11.379v62.194h10.653l.726-5.808c2.179 3.63 7.263 6.534 13.8 6.534 11.621 0 20.095-7.986 20.095-22.264-.242-13.794-8.232-22.264-20.337-22.264m-2.421 34.122c-6.295 0-10.895-4.356-10.895-12.1 0-7.502 4.6-12.1 10.895-12.1s10.895 4.598 10.895 12.1c-.242 7.744-4.6 12.1-10.895 12.1m-71.421-11.858c0 13.31 9.2 22.264 22.274 22.264 13.073 0 22.273-8.954 22.273-22.264S401.41 48.4 388.337 48.4s-22.274 9.196-22.274 22.506m11.621 0c0-7.744 4.116-12.584 10.411-12.584 6.294 0 10.41 4.84 10.41 12.584 0 7.502-4.116 12.584-10.41 12.584-6.053-.242-10.411-5.082-10.411-12.584M354.2 61.468c5.81-2.42 7.505-7.986 7.505-12.584 0-9.922-6.779-15.972-19.852-15.972h-24.937v59.532h26.631c12.348 0 20.095-6.292 20.095-16.698 0-6.534-3.147-12.1-9.442-14.278m-4.358-11.132c0 4.114-2.663 7.502-8.232 7.502h-12.831V43.076h12.347c6.053 0 8.716 3.146 8.716 7.26m-7.263 31.944h-13.8V67.276h14.042c5.326 0 8.716 2.904 8.716 7.744 0 4.598-3.39 7.26-8.958 7.26m-51.084-33.638c-6.537 0-11.621 2.904-13.8 6.776l-.727-5.808h-10.652v59.29h11.379V86.878c2.179 3.872 7.505 6.292 13.558 6.292 12.347 0 20.094-8.712 20.094-22.264.242-14.278-8.231-22.264-19.852-22.264m-2.664 34.364c-6.294 0-10.894-4.356-10.894-11.858s4.6-12.1 10.894-12.1 10.895 4.598 10.895 12.1c0 7.26-4.6 11.858-10.895 11.858m-39.947-40.172h11.621V31.46h-11.621zm.242 49.61h11.379V49.368h-11.379zm-22.758-43.802c-6.052 0-10.168 2.178-12.589 5.566V30.25H202.4v62.194h11.379v-22.99c0-6.292 3.389-10.406 9.442-10.406 5.81-.242 8.958 3.388 8.958 10.648v22.506h11.379v-24.2c.242-15.246-9.2-19.36-17.19-19.36"/></g><defs><clipPath id="a"><path fill="#fff" d="M0 0h460v121H0z"/></clipPath></defs></svg>