<svg xmlns="http://www.w3.org/2000/svg" width="1100" height="176" fill="none"><mask id="b" width="1100" height="176" x="0" y="0" maskUnits="userSpaceOnUse" style="mask-type:alpha"><g fill="#fff" clip-path="url(#a)"><path d="M1078.91 55.138c-10.67 0-20.15-7.367-20.15-20.05s9.48-20.049 20.15-20.049c10.6 0 20.11 7.367 20.11 20.05s-9.51 20.049-20.11 20.049m0-35.423c-7.95 0-14.38 6.15-14.38 15.373 0 9.224 6.4 15.438 14.38 15.374v.064c7.75 0 14.31-6.214 14.31-15.438s-6.59-15.373-14.31-15.373m-3.37 26.135h-4.61V24.263h8.07c5.58 0 8.87 1.601 8.87 6.534 0 3.971-2.33 5.412-5.18 5.637l5.5 9.448h-5.47l-5-9.096h-2.18zm4.1-12.747c2.09 0 3.3-.417 3.3-2.819 0-2.242-2.4-2.37-4.13-2.37h-3.23v5.189zM365.948 135.86c-4.773 7.174-10.698 15.823-19.473 18.865-23.733 6.246-50.284 17.616-75.745 10.89-10.281-.993-15.79-11.179-22.964-18.737-1.922-1.474-4.036-2.274-6.278-2.979-11.562-3.395-23.476-12.875-35.903-14.829-13.932-1.313-9.8 21.747-18.992 27.192-8.263 5.348-17.775-1.345-15.661-11.69 10.633-28.665 20.305-58.29 19.568-89.165.609-7.846-4.58-15.18-.736-22.483 2.946-5.861 8.231-7.046 14.22-7.527 18.16-2.466 34.846-11.273 53.166-9.288 8.295.577 15.789 4.356 20.53 11.338 8.07 13.356-6.118 31.163-12.779 42.885-7.591 11.402-16.783 23.573-26.872 31.163-8.935 5.188-13.323 12.458-1.761 18.543 6.021 3.331 14.284 3.171 17.167-4.259 4.323-11.21 10.313-22.195 17.967-31.643 15.021-19.697 33.885-39.01 55.344-50.22 9-4.099 19.569-12.074 29.209-6.084 10.313 6.117 13.131 21.202 8.84 31.547-2.05 4.932-7.271 9.416-12.875 8.263-5.605-1.025-11.627-6.117-17.135-3.683-7.367 2.818-13.868 7.654-20.626 11.85-7.719 6.085-21.683 10.537-21.587 21.49.897 3.651 7.207 3.523 11.274 2.37 10.601-2.914 38.625-14.796 43.686-1.024 2.818 8.326-5.829 15.918-14.028 15.501-10.762.801-21.843 5.06-32.765 6.181-7.142 1.313-15.149.993-21.522 4.708-4.676 2.914-5.413 8.936-1.634 13.132 7.207 7.463 18.929 6.918 28.249 5.06 10.697-3.843 22.803-3.556 32.476-9.769 22.483-19.697 37.568-49.29 52.877-74.784 3.94-7.174 7.719-13.868 7.943-21.843.128-8.007 2.114-16.27 9.833-19.729 6.373-4.067 18.704-1.89 21.458 5.189.929 2.434.769 5.508-.064 8.135-3.651 8.775-3.139 20.05-2.242 29.625 1.505 11.498.705 24.47 3.459 36.704 1.057 5.124 4.804 7.974 5.381 12.298.384 3.427.32 7.11.352 10.729-.288 11.594.993 16.143-6.469 23.734-4.644 4.291-12.299 3.266-15.214-2.564-2.209-3.555-1.473-8.455-2.882-11.914-1.601-5.124-7.911-6.629-12.811-4.868-9.737 3.235-25.462 3.812-33.565 11.115zM209.172 99.477c9.128 3.875 19.313-13.451 24.822-19.312 5.701-7.367 21.907-21.01 9.512-29.338-1.601-1.024-6.502-2.338-8.039-2.53-3.171-.064-8.327-.672-11.081.993-3.908.8-7.111 2.85-8.36 6.854-1.089 10.793-2.786 22.996-7.718 32.86-1.377 2.947-.513 7.59.416 9.993zM400.409 86.73c-1.281 1.346-3.331 1.217-4.58 3.075-2.306 2.37-3.491 6.181-4.932 7.815-.48 1.761-.16 4.899.128 6.757 1.986 3.075 8.423 4.035 11.466 2.53 1.313-1.121 3.427-1.601 4.548-2.722 4.676-5.636 2.818-19.408-6.181-17.647zM829.315 6.374c4.324 4.42 1.921 12.235.448 17.872-3.107 17.519-.256 37.376.16 54.286-.224 6.982 3.587 12.235 5.797 18.448 1.217 7.622.513 15.277.545 22.515-.769 7.655-9.865 16.751-17.391 11.658-5.765-3.875-3.075-14.316-8.68-18.191-3.683-2.755-8.231-2.05-12.234-.321-8.135 3.555-19.185 3.812-27.736 8.391-5.957 3.171-8.744 9.16-13.484 13.965-20.978 17.294-52.781 23.027-80.485 22.515-50.444-7.783-23.22-61.012-4.26-87.05 12.683-18.32 28.12-31.228 47.017-43.046 10.024-6.213 21.907-16.462 33.981-10.985 14.444 7.334 18.096 33.277 2.498 40.483-4.067 1.57-8.583-.609-12.362-2.434-7.687-3.331-12.331-.16-18.673 4.26a466 466 0 0 1-19.729 12.298c-7.75 3.843-23.284 19.249-4.676 18.928 9.417-.96 18.192-5.669 27.544-7.654 4.996-.865 11.402-.93 14.381.928 6.437 3.427 6.309 12.812.288 17.135-2.146 1.761-4.228 2.049-6.95 2.466-15.886 2.242-32.989 7.046-49.002 9.352-19.121 1.345-14.285 22.579 2.498 22.067 8.967.704 16.942-2.37 25.622-3.555 5.733-.929 11.978-1.57 17.103-4.356 24.949-17.903 40.514-46.728 56.464-73.567 6.918-12.266 10.505-27 13.644-40.483 3.555-10.44 19.088-12.234 27.031-6.501zm-27.128 67.739c-2.274 1.697-6.886 2.85-7.494 6.213-1.057 1.697-4.58 4.164-4.548 6.566-.32 2.37.096 7.174 1.826 7.718 2.434.545 7.846.257 9.832.16.737-.032 1.185-.704 1.826-1.024.64-.32 1.089-.065 1.729-.673 1.89-1.858 4.132-3.107 3.459-6.15-.096-1.152 1.345-1.633 1.153-3.298-.128-1.281-.897-1.634-1.057-2.306-.352-1.121.449-2.979-.608-3.972-1.121-1.377-4.901-3.459-5.669-3.362zM1024.21 24.66c14.38-3.459 30.68 7.046 32.32 22.003 1.34 10.953-10.93 16.334-20.12 16.206-9.19.897-15.76-9.64-25.62-6.245-8.07 1.505-19.217 5.893-23.412 14.284-.993 2.018-.865 4.676 1.377 5.797 5.829 2.466 11.305-1.602 17.745-1.473 16.4-.641 38.3-2.37 49.58 11.69 3.81 5.669 3.2 12.426.64 18.671-6.86 24.822-28.35 42.885-50.73 54.864-17.972 9.384-59.159 16.942-63.515-10.666-.481-3.17-.032-6.854 1.954-10.024 10.537-16.334 22.835 7.494 35.935 4.868 14.476-.673 52.816-18.576 48.846-36.64-6.86-15.917-28.77-6.053-41.864-5.156-9.641 1.793-19.185 13.131-28.825 5.989-10.698-10.28.768-35.838 6.758-48.073 10.697-22.9 33.981-33.597 58.101-35.903zm-498.614-1.44c15.502-1.602 33.917 3.683 37.601 20.657 1.089 3.715.192 7.238-.897 11.178-1.505 8.263-3.427 16.27-7.751 23.636-21.618 40.067-60.916 65.945-99.894 85.866-7.238 1.858-15.213-.416-15.565-8.967-.801-5.894 3.427-10.57 5.733-15.566 8.231-18.64 9.063-39.458 12.939-59.219.192-6.694.865-12.203-3.363-17.359-3.843-3.747-4.996-10.825-2.498-14.893 2.914-5.444 10.601-8.52 16.686-10.024 17.487-5.477 37.12-13.388 56.08-15.214l.929-.096Zm-52.525 108.797c6.277 2.114 11.818-5.412 16.43-9 12.491-12.074 25.366-23.412 35.07-38.945 2.819-4.932 5.733-8.936 6.63-14.38.48-7.207-6.694-12.587-13.548-13.1-3.907-.64-8.615-.48-12.17.769-3.94.064-7.719 1.025-11.562 1.665-13.9 3.844-9.256 18.576-9.865 29.402-1.056 13.035-14.284 28.6-11.369 43.141z"/><path d="M914.606 26.547c17.166-1.986 39.201.096 40.835 22.227-1.313 9.448-3.651 20.05-7.879 28.92-19.665 42.438-57.522 70.526-98.997 89.422-21.171 5.893-18.448-13.933-10.185-26.039 7.526-16.014 11.466-34.461 13.516-51.756.576-6.278-.321-12.971-1.538-18.768-2.242-5.573-6.854-11.21-4.516-17.2 2.37-6.661 11.338-9.928 17.968-11.657 15.565-5.189 33.244-13.42 49.931-15.053zm-15.598 33.82c-2.434 1.346-6.598.353-9.16.898-4.195 1.088-8.359 2.37-10.665 6.213-2.114 3.427-1.377 7.654-2.754 11.53 1.409 17.103-5.765 32.765-11.434 48.49-2.018 14.573 13.74 3.94 18.512-1.217 9.512-13.996 47.689-43.238 39.842-61.11-4.388-7.27-16.654-5.7-23.732-5.06l-.609.257ZM595.741 78.01c6.022 3.427 12.876-1.441 19.665-1.954 7.719-1.921 14.765-1.665 16.815-9.8.993-11.946 2.21-24.63 2.434-36.864-.897-10.729-5.156-22.387 7.526-27.447 48.362-15.63 10.506 67.482 6.342 87.595-4.932 14.605-4.26 34.654-18.128 44.294-5.156 2.755-12.17.481-13.9-4.644-3.683-9.64 5.637-17.519 7.591-26.358 1.569-14.637-18.128-4.068-25.686-3.14-8.359 1.506-15.79 6.951-17.455 15.566-2.178 8.552-2.819 19.153-9.16 25.686-6.117 8.071-20.466 4.772-20.786-6.309-.416-5.765 2.434-10.345 4.548-15.565 7.719-21.299 16.462-44.84 15.821-66.906 1.538-10.505-4.387-23.604.705-33.309 8.167-10.857 32.412-11.498 31.932 6.502-1.602 13.804-5.637 27.383-8.968 40.931-1.025 3.491-2.306 8.071.096 11.114zm-434.587-49.1c15.053-.416 17.584 12.075 15.021 25.142-3.074 35.295-16.526 68.604-24.309 102.905-5.637 11.082-18.448 12.779-23.668 1.057-1.569-6.149.961-11.914 4.003-17.295 3.235-5.284 6.662-10.761 3.299-15.085-2.114-2.21-5.701-2.145-8.615-1.377-6.758 2.146-13.996 4.068-20.466 6.31-14.124 3.106-13.516 19.857-17.807 30.938-2.594 9.128-10.954 17.615-20.306 12.107-10.569-7.11-2.786-20.562.961-29.818 5.605-14.893 9.769-30.074 12.747-45.896 2.562-12.523 2.178-25.974 1.153-39.298.064-3.94.865-6.694 3.555-9.384 5.765-6.277 11.722-9.64 19.601-7.43 5.157 1.825 10.857 8.871 9.961 14.892-2.242 13.804-4.516 29.786-10.217 42.661-.545 2.467-.769 5.381 1.121 7.271 2.658 2.626 7.046 1.601 10.313.673 6.181-2.082 14.348-3.011 19.152-3.876 8.007-2.946 9.384-9.769 9.256-19.057.993-11.273 2.178-26.07-.384-37.28-1.73-9.128 6.469-16.75 14.893-18.095z"/><path d="M94.89 3.616c18.897-3.299 27 18.448 12.523 29.498-6.277 4.355-19.76-.096-27.255 2.145-16.847 2.563-12.107 16.559-13.1 28.665-4.131 20.85-14.572 40.995-18.447 62.005-1.41 9.768-6.854 22.644-18.897 20.498-15.213-4.388-6.18-21.459-2.978-31.483 6.662-20.85 15.885-46.728 14.668-68.315-1.505-2.978-4.708-5.605-8.199-3.94-3.65 1.442-10.088 4.357-12.682 5.285C16.294 49.16 8.608 49.32 5.47 45.412-.2 40.32-.52 31.16 2.94 24.754c2.946-4.516 9.48-7.654 14.988-8.743C42.141 13 68.596 6.05 93.994 3.712l.897-.096Z"/></g></mask><g mask="url(#b)"><path fill="#000" d="M-96-123h1304v584H-96z"/></g><defs><clipPath id="a"><path fill="#fff" d="M0 0h1100v176H0z"/></clipPath></defs></svg>