<svg xmlns="http://www.w3.org/2000/svg" width="211" height="33" fill="none"><path fill="#122023" fill-rule="evenodd" d="M26.698 9.277 21.632.5h-6.078L7.84 13.858v.017L.13 27.234 3.166 32.5H34.02l3.043-5.266-7.716-13.359v-.017l-.008-.008h-7.365l-4.07 7.039h7.406l2.633 4.572h-18.7l4.665-8.083h.008l4.681-8.1h8.1ZM60.132 8.1l7.097 16.677h-3.812l-1.513-3.711H54.9l-1.513 3.711h-3.712L56.771 8.1zm-3.92 9.748h4.396L58.41 12.48l-2.199 5.367Zm23.84 1.02 4.046 5.91h-4.263l-3.544-5.3h-2.86v5.3h-3.644V8.216h7.565c1.965 0 3.503.484 4.598 1.446 1.095.96 1.647 2.298 1.647 4.02v.05q0 2.009-.978 3.278c-.652.844-1.513 1.463-2.567 1.855Zm-.86-3.244c.476-.426.718-.995.718-1.705h.009v-.05c0-.786-.26-1.38-.761-1.773-.51-.393-1.204-.593-2.107-.593h-3.62v4.756h3.687c.903 0 1.589-.209 2.073-.635ZM99.12 19.76l2.316 2.34h.017c-.418.46-.861.87-1.321 1.23a7.75 7.75 0 0 1-3.294 1.529c-.643.134-1.37.2-2.173.2-1.22 0-2.35-.217-3.386-.66a8.3 8.3 0 0 1-2.7-1.805 8.4 8.4 0 0 1-1.772-2.709 8.7 8.7 0 0 1-.635-3.335v-.05c0-1.187.209-2.29.635-3.327a8.5 8.5 0 0 1 1.772-2.717c.752-.786 1.664-1.396 2.717-1.848 1.062-.451 2.224-.677 3.503-.677.769 0 1.48.067 2.114.192a9 9 0 0 1 1.74.519 7 7 0 0 1 1.445.802c.443.31.853.66 1.229 1.037l-2.315 2.675a8.8 8.8 0 0 0-1.973-1.371c-.669-.326-1.421-.493-2.257-.493a4.65 4.65 0 0 0-1.931.4 4.6 4.6 0 0 0-1.522 1.113 5.2 5.2 0 0 0-.994 1.647 5.6 5.6 0 0 0-.351 1.998v.05c0 .702.116 1.379.35 2.006q.352.94.979 1.655c.418.468.92.844 1.513 1.12a4.5 4.5 0 0 0 1.948.418c.944 0 1.746-.167 2.399-.518a9.4 9.4 0 0 0 1.947-1.421m17.764-11.545v3.36h-5.032v13.2h-3.645v-13.2h-5.041v-3.36zm6.596 0v16.56h-3.645V8.216h3.645Zm16.368 11.545 2.316 2.34h.016q-.629.69-1.321 1.23a7.7 7.7 0 0 1-1.505.936 7.8 7.8 0 0 1-1.788.593q-.968.2-2.174.2a8.7 8.7 0 0 1-3.385-.66 8.3 8.3 0 0 1-2.701-1.805 8.4 8.4 0 0 1-1.772-2.709 8.8 8.8 0 0 1-.635-3.335v-.05c0-1.187.209-2.29.635-3.327a8.5 8.5 0 0 1 1.772-2.717c.753-.786 1.664-1.396 2.718-1.848 1.061-.451 2.223-.677 3.502-.677a11 11 0 0 1 2.114.192 9 9 0 0 1 1.74.519 7.2 7.2 0 0 1 1.446.802c.443.31.853.66 1.229 1.037l-2.316 2.675a8.8 8.8 0 0 0-1.973-1.371c-.669-.326-1.421-.493-2.257-.493a4.65 4.65 0 0 0-1.932.4 4.55 4.55 0 0 0-1.52 1.113 5.2 5.2 0 0 0-.995 1.647 5.6 5.6 0 0 0-.352 1.998v.05c0 .702.118 1.379.352 2.006q.351.94.978 1.655a4.6 4.6 0 0 0 3.461 1.538c.945 0 1.746-.167 2.399-.518a9.4 9.4 0 0 0 1.948-1.421m19.912 2.767.009-.008zm0-6.596v6.595c-.768.69-1.718 1.29-2.842 1.781-1.129.494-2.391.744-3.795.744-1.304 0-2.475-.217-3.511-.66a7.9 7.9 0 0 1-2.651-1.822 7.75 7.75 0 0 1-1.679-2.717 9.8 9.8 0 0 1-.578-3.336 9 9 0 0 1 .602-3.26 8.5 8.5 0 0 1 1.688-2.742 8.2 8.2 0 0 1 2.618-1.88q1.527-.692 3.393-.694c.694 0 1.33.05 1.906.142a8 8 0 0 1 1.605.426c.493.184.962.418 1.397.694.434.276.852.593 1.262.936l-1.205 1.421a8.5 8.5 0 0 0-.994-.769 6.2 6.2 0 0 0-1.12-.593 6.6 6.6 0 0 0-1.321-.393 8.5 8.5 0 0 0-1.596-.142q-1.38.001-2.533.543a6 6 0 0 0-1.99 1.463 7 7 0 0 0-1.304 2.165 7.3 7.3 0 0 0-.476 2.633c0 .995.15 1.915.46 2.759a6.5 6.5 0 0 0 1.312 2.19 6 6 0 0 0 2.056 1.446c.803.343 1.705.519 2.717.519.944 0 1.839-.16 2.675-.485.836-.326 1.538-.71 2.107-1.17v-4.114h-5.041v-1.68zm12.823 2.082 5.083 6.762v.009h-2.29l-4.799-6.437h-4.732v6.437h-1.871V8.225h7.122c.919 0 1.738.117 2.474.35q1.103.353 1.88 1.004c.518.435.92.953 1.205 1.563.284.61.426 1.28.426 2.023a5 5 0 0 1-.334 1.856 4.4 4.4 0 0 1-.937 1.421 5.2 5.2 0 0 1-1.43 1.003 6.6 6.6 0 0 1-1.797.569Zm2.282-3.336c.209-.426.318-.91.318-1.446q.002-1.557-1.111-2.424c-.736-.577-1.781-.861-3.119-.861h-5.108v6.72h5.083q.928.002 1.705-.233c.518-.159.97-.385 1.346-.677s.677-.652.886-1.079m6.203-6.462h11.971v1.706h-10.098v5.65h9.036v1.706h-9.036v5.793h10.215v1.705h-12.088V8.216Zm29.801 0-6.879 9.982h-.009v6.578h-1.889v-6.553l-6.88-10.007h2.275l5.583 8.276 5.626-8.276z" clip-rule="evenodd"/></svg>