<svg xmlns="http://www.w3.org/2000/svg" width="241" height="24" fill="none"><path fill="#122023" d="M160.521 4.322c.699.008 1.398-.003 2.097.019.526.016.592.113.483.635-.176.827-.363 1.652-.544 2.476l-1.112 5.017c-.006.026.007.061.023.168.197-.232.363-.413.515-.608.923-1.16 2.055-1.996 3.573-2.218.592-.085 1.179-.037 1.731.19.862.352 1.233 1.06 1.369 1.924.182 1.155-.061 2.276-.306 3.394-.283 1.286-.587 2.57-.843 3.86a3.1 3.1 0 0 0 0 1.146c.174.904 1.152 1.285 1.929.768.619-.414 1.078-.98 1.435-1.622.846-1.51 1.378-3.143 1.781-4.811.333-1.374.589-2.77.872-4.157.088-.435.104-.462.554-.462h8.062c.501.019.611.187.427.648-.697 1.745-1.446 3.472-2.063 5.243-.397 1.145-.63 2.352-.873 3.544-.074.369.009.79.1 1.168.133.56.538.78 1.112.655.526-.112.947-.412 1.331-.775 1.139-1.072 1.767-2.435 2.213-3.89.4-1.312.878-2.585 1.694-3.704 1.017-1.395 2.268-2.505 3.987-2.977 1.104-.304 2.201-.259 3.247.23 1.054.49 1.563 1.365 1.654 2.486.211 2.567-1.542 5.073-4.219 5.93-1.139.365-2.308.405-3.487.328-.064-.006-.128-.006-.192-.011-.08 1.115.825 2.105 2.009 2.284 1.791.267 3.347-.337 4.827-1.223 1.983-1.184 3.269-2.919 4.083-5.046.573-1.496 1.42-2.833 2.69-3.866.99-.805 2.115-1.28 3.412-1.289 1.225-.005 2.217.468 2.94 1.463.051.07.113.13.228.264.072-.342.136-.614.189-.889.091-.485.19-.57.68-.573h1.665c.529 0 .644.125.531.63-.237 1.072-.493 2.14-.722 3.213a446 446 0 0 0-1.132 5.383 3.7 3.7 0 0 0-.045.983c.061.774.56 1.153 1.345 1.038.757-.112 1.35-.534 1.902-1.023 1.139-1.008 1.721-2.302 2.044-3.76.443-1.992 1.34-3.772 2.877-5.173 1.08-.984 2.35-1.571 3.85-1.553 1.091.014 1.998.443 2.695 1.286.059.07.125.134.237.26.142-.652.267-1.225.39-1.799.339-1.59.68-3.178 1.009-4.771.061-.302.208-.435.514-.43.699.01 1.399 0 2.098.019.528.013.581.098.475.597-.267 1.257-.531 2.514-.8 3.77-.646 3.008-1.308 6.01-1.935 9.02-.181.867-.467 1.724-.385 2.631.054.592.292.873.884.915.299.021.645 0 .899-.136.523-.277 1.044-.595 1.481-.987 1.58-1.422 2.656-3.213 3.555-5.097.715-1.496 1.314-3.047 1.944-4.582.126-.306.276-.45.628-.44.787.024 1.576.009 2.363.009.099 0 .201 0 .299.01.534.051.614.118.524.635-.259 1.481.154 2.823.795 4.133.552 1.123 1.131 2.242 1.587 3.405.43 1.092.457 2.242-.04 3.344-.667 1.48-1.921 2.18-3.476 2.37-1.569.191-3.018-.193-4.32-1.092-.414-.286-.427-.398-.128-.795.346-.46.685-.918 1.035-1.374.293-.384.301-.388.704-.126.662.434 1.364.723 2.175.71 1.19-.02 1.847-.817 1.5-1.954-.203-.664-.564-1.283-.87-1.913-.502-1.027-1.017-2.046-1.53-3.068-.012-.025-.037-.043-.088-.098-.067.13-.129.237-.178.349-.95 2.079-2.002 4.096-3.448 5.889-.979 1.214-2.092 2.284-3.541 2.94-1.299.587-2.649.798-4.042.345-.739-.24-1.26-.727-1.532-1.452-.093-.248-.179-.264-.36-.067-.806.878-1.759 1.518-2.97 1.689-1.991.28-3.72-.478-4.605-2.26-.048-.093-.105-.184-.185-.32-.096.104-.16.17-.219.243-1.027 1.24-2.27 2.126-3.919 2.34-.763.098-1.527.096-2.271-.158q-1.18-.404-1.596-1.566a.9.9 0 0 0-.211-.342c-.077.118-.146.244-.237.348-1.449 1.667-3.677 2.23-5.567 1.414-1.291-.56-1.987-1.601-2.39-2.882-.03-.096-.077-.187-.133-.323-.227.208-.412.376-.596.547-1.534 1.414-3.297 2.413-5.368 2.818-1.294.254-2.599.339-3.888-.043-1.182-.35-2.082-1.056-2.65-2.153-.037-.075-.09-.142-.165-.256-.101.112-.187.192-.256.282-1.046 1.356-2.383 2.236-4.131 2.364a5.3 5.3 0 0 1-1.646-.13c-1.11-.27-1.745-1.116-1.895-2.325-.17-1.366.101-2.681.515-3.957.483-1.491 1.084-2.948 1.631-4.419.053-.14.109-.283.186-.477h-.73c-.777 0-1.557.008-2.333-.005-.235-.005-.318.075-.379.296-.448 1.64-.867 3.293-1.385 4.915-.507 1.587-1.203 3.1-2.355 4.354-1.313 1.43-2.955 1.986-4.87 1.676-1.516-.245-2.375-1.24-2.548-2.756-.142-1.24.141-2.425.379-3.62q.336-1.698.658-3.395a1.4 1.4 0 0 0-.005-.456c-.099-.62-.55-.89-1.161-.692-.619.2-1.107.596-1.553 1.047-1.531 1.556-2.342 3.466-2.777 5.56-.256 1.225-.499 2.456-.747 3.68-.056.278-.174.438-.51.427-.742-.024-1.49 0-2.232-.005-.399-.003-.469-.1-.383-.49q1.597-7.44 3.191-14.883c.254-1.182.513-2.361.742-3.546.062-.323.205-.46.523-.454M87.737.114c.35.104.77.163 1.129.345 1.235.632 1.645 1.724 1.579 3.028-.1 1.924-.857 3.613-1.898 5.206-.608.937-1.382 1.716-2.206 2.458-.365.328-.381.325-.736.002-.403-.363-.8-.73-1.199-1.097-.368-.338-.374-.418-.035-.776 1.07-1.131 2.015-2.353 2.626-3.786.233-.544.352-1.155.427-1.745.077-.6-.32-.9-.934-.83-1.19.133-2.207.66-3.106 1.401-2.79 2.3-4.618 5.206-5.51 8.698a10.5 10.5 0 0 0-.184 4.449c.496 2.828 2.596 3.917 5.209 3.693 1.646-.141 3.07-.862 4.346-1.847 2.81-2.166 4.692-4.952 5.497-8.408.443-1.902.817-3.824 1.236-5.731.197-.897.05-.854 1.064-.86.545 0 1.09-.005 1.631.025.515.026.563.104.456.619-.144.699-.298 1.396-.445 2.095q-1.13 5.284-2.255 10.569c-.133.632-.27 1.267-.358 1.907-.042.31-.019.64.043.95.138.702.78.99 1.561.745.525-.166.939-.488 1.299-.888 1.032-1.148 1.636-2.53 2.13-3.958.49-1.422 1.064-2.796 2.049-3.965.965-1.145 2.1-2.049 3.581-2.457a4.8 4.8 0 0 1 2.338-.067c1.747.381 2.665 1.58 2.572 3.351-.147 2.772-2.223 5.068-5.041 5.57-.953.17-1.908.274-2.93.055.059.713.278 1.3.782 1.759.51.461 1.142.606 1.812.638 1.66.08 3.112-.513 4.462-1.391 1.782-1.155 3.036-2.746 3.818-4.704.547-1.372 1.254-2.647 2.332-3.688 1.073-1.035 2.332-1.67 3.856-1.697 1.2-.021 2.171.456 2.919 1.385.074.09.152.181.266.317.091-.405.172-.752.249-1.101.054-.24.195-.347.448-.342.601.01 1.201-.008 1.798.008.555.013.678.163.561.696-.483 2.21-.977 4.42-1.46 6.629a52 52 0 0 0-.398 2.004c-.045.259-.055.526-.045.787.035.808.526 1.216 1.337 1.134.529-.054.971-.302 1.379-.612 1.489-1.139 2.44-2.646 2.888-4.431.459-1.82.813-3.667 1.211-5.502.008-.032.009-.068.017-.1.12-.594.144-.61.757-.61.611 0 1.222-.006 1.833.002.561.008.67.147.55.694-.123.566-.262 1.129-.334 1.732.08-.091.163-.182.237-.278.684-.88 1.437-1.681 2.501-2.119.886-.363 1.791-.416 2.698-.099 1.038.363 1.502 1.172 1.657 2.2.187 1.235-.104 2.425-.36 3.618a1505 1505 0 0 0-1.57 7.413c-.09.424-.149.48-.589.48-.709 0-1.423.007-2.132 0-.446-.006-.501-.094-.411-.518.577-2.695 1.156-5.39 1.724-8.088.08-.376.131-.76.149-1.142.041-.795-.451-1.179-1.238-.976-.707.181-1.233.643-1.716 1.15-1.203 1.265-1.913 2.797-2.31 4.467-.366 1.526-.67 3.068-1.001 4.603-.102.47-.139.503-.611.503-.721 0-1.444.008-2.165 0-.341-.005-.41-.093-.349-.431.064-.358.149-.71.219-1.065.01-.058 0-.12 0-.24-.291.256-.539.483-.8.696-.734.603-1.521 1.116-2.485 1.268-.755.12-1.505.08-2.228-.198a2.37 2.37 0 0 1-1.379-1.307c-.069-.16-.147-.315-.243-.517-.104.111-.187.194-.264.282-1.361 1.494-3.019 2.148-5.025 1.641-1.548-.392-2.441-1.479-2.921-2.941q-.06-.186-.129-.373c-.008-.019-.029-.032-.066-.072a5 5 0 0 0-.184.163c-1.734 1.694-3.744 2.884-6.181 3.263-1.214.19-2.428.226-3.621-.169-1.179-.39-2.035-1.133-2.566-2.249a7 7 0 0 0-.165-.323c-.014-.024-.05-.04-.1-.077-.272.32-.528.648-.808.955-.857.942-1.838 1.692-3.135 1.924a4.7 4.7 0 0 1-2.269-.14c-1.222-.396-1.905-1.34-1.964-2.733-.026-.622-.005-1.246-.005-1.905-.058.053-.127.109-.186.172-1.326 1.455-2.784 2.752-4.571 3.632-2.714 1.337-5.451 1.446-8.192.096-1.649-.811-2.601-2.217-3.173-3.898-.72-2.122-.632-4.262-.072-6.402 1.116-4.258 3.322-7.837 6.799-10.606 1.035-.825 2.183-1.476 3.477-1.823.357-.096.74-.104 1.127-.155-.136-.05-.276-.1-.412-.151h2.257c-.094.047-.184.093-.223.111M59.653 4.312c.59.003 1.176.003 1.763.027.483.018.56.13.456.602-.376 1.727-.76 3.454-1.132 5.183-.16.75-.3 1.502-.391 2.295.112-.139.22-.276.333-.414.643-.798 1.356-1.518 2.327-1.921.998-.414 2.014-.454 3 .013 1.002.477 1.329 1.39 1.422 2.412.093 1.021-.131 2.012-.342 3.002l-1.662 7.797c-.05.242-.184.365-.433.368-.776.008-1.555.024-2.332.016-.376-.002-.43-.101-.35-.474.566-2.642 1.137-5.285 1.692-7.926a9 9 0 0 0 .182-1.368c.037-.79-.494-1.18-1.26-.948-.806.246-1.414.782-1.94 1.398-1.067 1.251-1.702 2.722-2.073 4.302-.341 1.454-.632 2.919-.947 4.379-.128.597-.144.615-.76.62-.678.009-1.356.017-2.031.01-.368-.006-.43-.097-.357-.449.117-.566.237-1.132.376-1.802-.195.134-.324.204-.433.297-1.385 1.188-2.96 1.958-4.792 2.185-1.753.219-3.322-.195-4.696-1.302-.353-.285-.358-.347-.051-.678.413-.445.84-.878 1.246-1.329.224-.25.414-.282.702-.074.651.47 1.38.734 2.201.726 1.18-.014 1.822-.796 1.502-1.92-.15-.522-.408-1.015-.651-1.509-.563-1.142-1.147-2.276-1.724-3.413-.013-.027-.042-.048-.098-.107-.08.155-.16.291-.224.435-1.011 2.233-2.245 4.326-4.024 6.05-1.655 1.603-3.603 2.703-5.921 3.057-1.479.227-2.94.224-4.328-.454-.79-.384-1.34-.997-1.745-1.753-.056-.104-.12-.2-.206-.341-.194.237-.355.44-.526.637-1.14 1.305-2.553 2.066-4.322 2.053a4.6 4.6 0 0 1-1.371-.21c-1.012-.33-1.51-1.1-1.668-2.112-.216-1.372.027-2.706.45-3.994.513-1.564 1.134-3.093 1.708-4.635.04-.11.089-.22.158-.385h-.868c-.71 0-1.422.016-2.132-.008-.299-.01-.392.108-.47.367-.384 1.304-.746 2.62-1.2 3.903-.6 1.697-1.38 3.317-2.623 4.662-1.15 1.243-2.583 1.953-4.28 2.097-.592.05-1.195.018-1.79.018-.283 0-.371-.162-.32-.416.109-.528.234-1.05.332-1.579.056-.31.22-.41.529-.4.782.026 1.548-.057 2.268-.404 1.313-.635 2.21-1.665 2.858-2.932.8-1.561 1.206-3.253 1.639-4.931.208-.808.373-1.628.552-2.441.11-.497.173-.556.683-.556h7.997c.435.024.566.198.4.598-.277.67-.593 1.326-.862 1.999-.76 1.897-1.507 3.802-1.937 5.808-.146.678-.272 1.361-.107 2.058.165.691.588.939 1.284.765.539-.136.947-.469 1.328-.842 1.046-1.028 1.65-2.31 2.069-3.678.44-1.438.98-2.822 1.879-4.05 1.136-1.553 2.609-2.599 4.551-2.882.988-.144 1.957-.005 2.826.518.948.568 1.356 1.47 1.393 2.524.093 2.57-1.668 4.923-4.262 5.74a8.3 8.3 0 0 1-3.353.328c-.107-.011-.214-.014-.32-.019-.051 1.017.712 2.11 2.03 2.29 1.82.247 3.405-.345 4.838-1.367 2.465-1.758 4.048-4.186 5.14-6.95.314-.795.543-1.626.791-2.444.088-.291.24-.406.55-.4.878.012 1.756.001 2.631.004.606 0 .702.062.611.63-.258 1.59.187 3.015.918 4.4.491.934.963 1.881 1.36 2.855.238.579.319 1.22.476 1.863v.005c.064-.045.147-.094.216-.152 1.331-1.153 2.167-2.57 2.517-4.307.685-3.391 1.432-6.77 2.155-10.15.008-.032.02-.064.027-.096.16-.774.16-.776.948-.774M23.464.34c.736 0 .741 0 .592.718-.11.514-.243 1.024-.347 1.542-.048.245-.17.304-.41.301-2.843-.008-5.687-.002-8.528-.01-.254 0-.374.064-.43.325-.296 1.406-.61 2.81-.915 4.217q-.241 1.109-.476 2.222c-.023.115-.02.235-.034.387h5.627c-.04.31-.058.579-.111.843-.09.44-.216.875-.299 1.318-.061.336-.211.475-.579.47-1.577-.019-3.154-.01-4.731-.008-.636 0-.502-.064-.627.507-.606 2.802-1.199 5.606-1.796 8.408-.118.547-.243 1.094-.347 1.643-.061.323-.217.47-.564.464-.73-.013-1.464.014-2.198.006-.448-.002-.505-.085-.414-.512.651-3.029 1.305-6.055 1.953-9.083.1-.46.187-.921.291-1.436H7.478c-.811 0-.81 0-.672-.78.085-.474.184-.95.267-1.424.053-.299.173-.446.528-.43.696.035 1.396.011 2.105.011.46-2.172.918-4.318 1.364-6.463.152-.73.216-.69-.587-.675-1.414.03-2.813.142-4.125.737-2.474 1.118-3.44 3.18-3.2 5.734.09.985.4 1.908.819 2.802.21.453.2.467-.245.71-.563.31-1.134.603-1.687.928-.261.152-.43.11-.568-.141-.58-1.036-1.07-2.1-1.063-3.32v-.87H.332l-.192 1.08V6.93l.176.92c.018 0 .038.005.056.005.011-.112.032-.222.027-.334-.078-1.686.689-3.04 1.77-4.239 1.323-1.467 3.065-2.2 4.965-2.618C8.324.403 9.527.339 10.738.339h12.726Zm120.941 0h19.187c.406.021.473.085.393.48-.123.603-.275 1.198-.412 1.798-.045.2-.162.286-.375.29-1.078.007-2.154.033-3.232.033q-2.448 0-4.896-.04c-.294-.005-.409.091-.467.368-.854 4.019-1.718 8.032-2.58 12.048-.563 2.631-1.132 5.26-1.679 7.896-.075.352-.24.477-.582.474-.734-.005-1.465.008-2.198 0-.398-.005-.473-.109-.39-.49.648-3.018 1.303-6.034 1.948-9.052q1.16-5.428 2.316-10.857c.077-.357.048-.386-.339-.384-1.777.014-3.554.032-5.328.037-.766 0-1.532-.037-2.298-.037-.269 0-.371-.093-.323-.346.13-.657.256-1.316.411-1.967.021-.094.173-.2.28-.225.182-.04.377-.026.564-.026M120.48 14.004c-.374-1.286-1.553-1.81-2.781-1.252a3.9 3.9 0 0 0-1.59 1.315c-.649.897-.963 1.922-1.179 2.984-.176.861-.23 1.723.071 2.569.363 1.017 1.142 1.558 2.084 1.435.651-.085 1.183-.42 1.65-.86 1.366-1.287 1.812-2.947 1.988-4.855-.064-.368-.107-.867-.243-1.336m99.438-1.468c-.744.059-1.302.478-1.785.995-1.225 1.324-1.654 2.946-1.785 4.624h-.003c.032.358.048.654.091.947.136.958.819 1.788 1.62 1.935.779.141 1.443-.16 2.027-.635 1.076-.872 1.656-2.039 1.965-3.357.232-.995.373-1.99.074-2.993-.307-1.03-1.128-1.599-2.204-1.516m-15.917.002a2.8 2.8 0 0 0-2.102.99c-1.449 1.67-2.01 3.618-1.647 5.79.192 1.137 1.132 1.855 2.156 1.735.689-.08 1.247-.438 1.73-.913a6.2 6.2 0 0 0 1.867-4.197c.059-1.043-.037-1.774-.413-2.452-.344-.616-.87-.974-1.591-.953m-97.271 1.27c.25-.981-.379-1.576-1.359-1.293a2.3 2.3 0 0 0-.491.194c-1.355.768-2.267 1.903-2.785 3.357-.133.376-.091.432.328.446h.4l.019.09c.544-.125 1.112-.192 1.63-.386 1.137-.427 1.948-1.201 2.258-2.408m-67.256-.522c-.021-.56-.485-.942-1.04-.844-.291.051-.59.136-.844.28-1.217.689-2.078 1.698-2.614 2.973-.347.83-.331.835.56.832l.002-.002c1.022 0 1.954-.286 2.746-.924.734-.592 1.227-1.33 1.19-2.315m152.63.282c.098-.792-.465-1.31-1.244-1.115a3.4 3.4 0 0 0-1.083.467 5.85 5.85 0 0 0-2.151 2.738c-.296.754-.332.848.317.859h.598c.64-.027 1.272-.235 1.858-.574.923-.53 1.571-1.284 1.705-2.375M87.969.003h-.009L87.966 0z"/></svg>