<svg xmlns="http://www.w3.org/2000/svg" width="631" height="182" fill="none"><path fill="#000" d="M93.477 44.959A2.484 2.484 0 0 0 91 42.467a2.484 2.484 0 0 0-2.477 2.492V59.91A2.484 2.484 0 0 0 91 62.403a2.484 2.484 0 0 0 2.477-2.492zM54.85 87.2a2.5 2.5 0 0 0-.907-3.405l-12.87-7.476a2.47 2.47 0 0 0-3.383.912 2.5 2.5 0 0 0 .907 3.404l12.869 7.476c1.184.688 2.7.28 3.383-.912ZM123.871 54a2.5 2.5 0 0 0-.907-3.404 2.47 2.47 0 0 0-3.384.913l-7.43 12.948a2.5 2.5 0 0 0 .907 3.405 2.47 2.47 0 0 0 3.383-.912zM68.943 67.862a2.5 2.5 0 0 0 .907-3.405L62.42 51.51a2.47 2.47 0 0 0-3.384-.913A2.5 2.5 0 0 0 58.13 54l7.43 12.95a2.47 2.47 0 0 0 3.384.912Zm74.46 12.773a2.5 2.5 0 0 0 .907-3.404 2.47 2.47 0 0 0-3.383-.912l-12.87 7.476a2.5 2.5 0 0 0-.906 3.404 2.47 2.47 0 0 0 3.383.912zm-29.413 56.344c0 1.533-1.022 2.554-2.555 2.554h-17.88v-22.989h20.435zm-43.425 2.554c-1.533 0-2.555-1.021-2.555-2.554v-20.435h20.435v22.989z"/><path fill="#000" fill-rule="evenodd" d="M62.902 101.218c0-1.533 1.021-2.555 2.554-2.555h9.153a7.8 7.8 0 0 1-1.745-2.554l-.256-1.022c-1.022-2.81-.766-5.62.767-7.919 1.532-2.554 4.342-3.831 7.152-3.831 3.32 0 6.641 2.043 7.918 5.364l2.49 6.42 2.62-6.42c1.276-3.32 4.342-5.364 7.918-5.364 2.81 0 5.62 1.277 7.152 3.576s1.788 5.364.766 7.919l-.255 1.021a8.1 8.1 0 0 1-1.826 2.81h9.234c1.532 0 2.554 1.022 2.554 2.555v7.662c0 1.533-1.022 2.555-2.554 2.555h-22.99v-10.217h-5.109v10.217H65.456c-1.533 0-2.554-1.022-2.554-2.555zm35.506-10.73c.51-1.276 1.788-2.043 3.065-2.043 1.022 0 2.043.512 2.81 1.533.51 1.022.766 2.044.255 3.066l-.255 1.021c-.511 1.277-1.788 2.044-3.065 2.044h-5.11zm-14.816 0 2.3 5.62h-5.11c-1.277 0-2.554-.766-3.065-2.043l-.51-1.022c-.256-1.021-.256-2.298.51-3.065.511-1.021 1.533-1.533 2.81-1.533s2.554.767 3.065 2.044Z" clip-rule="evenodd"/><path fill="#000" fill-rule="evenodd" d="M0 40.444C0 18.108 18.108 0 40.444 0h101.112C163.892 0 182 18.108 182 40.444v101.112C182 163.892 163.892 182 141.556 182H40.444C18.108 182 0 163.892 0 141.556zM40.444 5.056C20.9 5.056 5.056 20.9 5.056 40.444v101.112c0 19.544 15.844 35.388 35.388 35.388h101.112c19.544 0 35.388-15.844 35.388-35.388V40.444c0-19.544-15.844-35.388-35.388-35.388zm288.167 77.612v-11.89h8.008v58.24c0 18.442-14.803 28.149-30.455 28.149-13.953 0-24.024-5.339-28.756-14.803l7.038-4.004c3.033 6.188 8.614 11.042 21.718 11.042 14.075 0 22.447-8.008 22.447-20.384v-9.464c-5.096 8.129-13.711 13.346-24.509 13.346-17.108 0-31.304-13.832-31.304-31.789s14.196-31.79 31.304-31.79c10.798 0 19.413 5.218 24.509 13.347m-47.805 18.443c0 13.468 10.434 24.024 23.902 24.024s23.903-10.556 23.903-24.024-10.435-24.024-23.903-24.024-23.902 10.556-23.902 24.024m132.95 0c0 17.957-14.196 31.789-31.911 31.789s-31.911-13.832-31.911-31.789 14.196-31.79 31.911-31.79 31.911 13.833 31.911 31.79m-55.814 0c0 13.468 10.435 24.024 23.903 24.024s23.903-10.556 23.903-24.024-10.435-24.024-23.903-24.024-23.903 10.556-23.903 24.024m129.396 0c0 17.957-14.196 31.789-31.911 31.789s-31.911-13.832-31.911-31.789 14.196-31.79 31.911-31.79 31.911 13.833 31.911 31.79m-55.814 0c0 13.468 10.435 24.024 23.903 24.024s23.903-10.556 23.903-24.024-10.435-24.024-23.903-24.024-23.903 10.556-23.903 24.024m121.387-18.443V46.511h8.008v84.933h-8.008v-11.89c-5.096 8.129-13.711 13.346-24.51 13.346-17.108 0-31.303-13.832-31.303-31.789s14.195-31.79 31.303-31.79c10.799 0 19.414 5.218 24.51 13.347m-47.805 18.443c0 13.468 10.434 24.024 23.902 24.024s23.903-10.556 23.903-24.024-10.435-24.024-23.903-24.024-23.902 10.556-23.902 24.024" clip-rule="evenodd"/><path fill="#000" d="m601.899 121.616 19.656-50.838h8.493l-25.965 66.248c-4.611 11.648-13.589 19.534-24.509 18.685v-7.523c7.886.85 13.346-4.732 16.622-12.618l1.578-3.762-27.179-61.03h8.493z"/></svg>