<svg xmlns="http://www.w3.org/2000/svg" width="209" height="32" fill="none"><g fill="#122023" clip-path="url(#a)"><path d="M.21 5.079c2.326.208 5.105-.274 7.375-.01.25.03.437.02.584.264v2.453c.681-.614 1.123-1.356 1.91-1.9 3.134-2.168 9.306-1.742 11.048 2.073.203 0 1.35-1.417 1.696-1.691 3.104-2.49 9.93-2.403 11.855 1.513.209.422.757 2.083.757 2.464v15.07l-.254.254h-7.619l-.254-.254V12.45c0-1.813-2.687-2.443-4.048-1.681-.533.3-1.366 1.61-1.366 2.19v12.357l-.254.254h-7.873V12.617c0-.092-.33-.96-.412-1.113-.731-1.346-3.032-1.31-4.083-.335-.336.315-.925 1.372-.925 1.783V25.31c-.147.244-.335.234-.584.264-2.321.274-5.166-.218-7.543-.01V5.08H.21ZM85.037 0l-.254 25.564h-7.706v-2.031c-.29-.066-.34.096-.503.259-3.84 3.91-11.641 2.742-13.866-2.398-3.109-7.182-.219-18.306 9.524-16.635 1.904.325 3.332 1.184 4.673 2.52v-7.28h8.132ZM73.15 9.864c-.97.086-1.864.498-2.372 1.361-1.016 1.727-1.031 6.619.06 8.305 1.093 1.686 4.191 1.63 5.258.061 1.133-1.666 1.224-7.33-.203-8.838-.625-.66-1.864-.965-2.738-.889zM95.87 0v7.446c.326.082.326-.122.478-.284 2.55-2.799 7.391-3.55 10.647-1.443 1.092.706 2.59 2.89 2.59 4.18v15.406l-.254.254h-7.619l-.254-.254V12.267c0-.346-.609-1.22-.955-1.417-1.27-.722-3.215-.432-4.033.832-.218.34-.6 1.59-.6 1.94V25.56h-7.872L87.744-.005h8.127zm48.763 23.705v8.294h-8.127V5.333l.254-.254h7.619c.518.589.147 1.62.254 2.372 1.274-1.519 2.88-2.372 4.845-2.687 9.732-1.565 12.328 8.93 9.504 16.274-2.215 5.76-10.088 6.517-14.349 2.667m1.076-12.978c-1.381 1.478-1.351 6.68-.482 8.406.975 1.95 4.145 2.215 5.409.493 1.184-1.61 1.23-6.949.097-8.538-1.046-1.473-3.815-1.646-5.019-.366zm24.153 12.978v8.294h-7.959V5.333l.254-.254h7.705V7.45c.508-.061.686-.666 1.102-1.011 3.286-2.717 9.488-2.413 12.191 1.006 2.844 3.601 2.803 12.399-.173 15.923-2.479 2.931-7.172 3.256-10.58 1.94l-2.545-1.604zm3.352-13.847c-2.219.148-3.002 1.738-3.184 3.774s-.254 6.055 1.935 6.863c2.753 1.015 4.581-.539 4.83-3.312.249-2.774.407-7.584-3.586-7.325zM60.147 25.397h-8.04c-.402-.35-.306-.986-.428-1.443-.198-.731-.41.132-.665.346-3.87 3.24-13.14 1.686-13.724-4.074-.854-8.411 7.182-6.319 12.256-7.38.99-.209 1.956-.595 1.935-1.763-.03-1.717-2.143-1.773-3.428-1.59-1.377.198-1.448 1.148-1.88 2.184h-7.619l-.259-.421c.315-6.095 7.106-6.923 11.942-6.69 5.384.264 9.062 1.423 9.407 7.355.259 4.445-.554 9.128.503 13.466zm-8.635-9.651c-.64.264-1.01.676-1.727.899-1.504.467-4.2.086-4.216 2.403-.02 2.93 4.698 3.032 5.638.716.05-.132.3-.996.3-1.052v-2.96zm74.667 9.651-.421-1.691c-3.998 4.271-13.963 2.422-14.314-4.14-.401-7.472 7.629-5.826 12.262-6.715 1.285-.249 2.499-.94 1.838-2.479-.66-1.539-5.47-1.295-4.952 1.31h-7.959c-.265-6.414 6.826-7.35 11.763-7.11 4.11.203 8.894 1.173 9.377 6.029.432 4.317-.478 9.138.264 13.45.056.32.432 1.199.427 1.265-.016.406-.396.081-.417.081h-7.873zm-.508-6.181c.178-1.057-.127-2.53 0-3.642-1.701 2.184-6.379.269-5.744 4.14.386 2.361 5.308 2.143 5.744-.498M193.313 5.08l3.723 10.498 3.723-10.499h8.213L198.138 32h-8.635l3.347-7.507-8.066-19.017.229-.397z"/></g><defs><clipPath id="a"><path fill="#fff" d="M.209 0h208.762v32H.209z"/></clipPath></defs></svg>