<svg xmlns="http://www.w3.org/2000/svg" width="29" height="20" fill="none"><g fill="#122023" clip-path="url(#a)"><path d="m22.769 5.142.025-.025c.207-.192.768-.378 1.056-.397.627-.04 1.128.058 1.527.56.135.17.256.5.274.72.068.837-.055 1.757.006 2.603.018.083.212.338.283.388.072.05.17.039.235.138.045.069-.002.078-.002.1v.498a.3.3 0 0 1-.037.037h-2.323c-.01-.142-.066-.502-.012-.62.026-.059.128-.084.18-.117.023-.015.028-.046.037-.051.027-.016.075.002.09-.01.01-.009-.003-.05.008-.065.015-.022.065-.015.088-.037a1 1 0 0 0 .131-.255c.084-.7-.062-1.566-.002-2.285l-.129-.28-.217-.131c-.007-.01-.019-.016-.025-.025a.8.8 0 0 0-.2-.184c-.142-.08-.355-.051-.49.027-.146.085-.332.159-.467.305-.03.031-.028.08-.043.094s-.053-.001-.07.021c-.085.12-.191.46-.225.615-.055.25-.057 1.471-.019 1.741.011.074.11.28.159.339.107.126.303.207.424.322-.042.122.023.466-.026.546a.3.3 0 0 1-.074.05H20.62a.3.3 0 0 1-.038-.037v-.609c0-.007.092-.01.131-.03.151-.08.334-.274.38-.44.003-.017-.014-.025-.013-.027.002-.015-.002-.033 0-.05.17-1.598-.076-3.407.025-5.032-.01-.085-.007-.155-.075-.21-.009-.007-.015-.018-.025-.025l-.05-.074c-.02-.047-.053-.05-.074-.075-.073-.082-.154-.172-.273-.174l-.025-.024c.025-.216-.043-.442 0-.646h.025c.54.029 1.085.032 1.628.026.072-.001.132-.055.187.01.076.089.022.177.022.273l.002 2.61c.025.14.185.077.26.013.037-.03.047-.086.063-.1zM.48 9.118a.44.44 0 0 0-.192-.194c-.1-.057-.231-.043-.231-.191v-.51c0-.004.057-.008.066-.05.049.006.094.027.144.027.5 0 1.194-.058 1.667-.003.025.003.086.012.086.039v2.51c0 .057.168.083.224.049.024-.015.038-.072.074-.1.291-.22.846-.29 1.205-.26.828.072 1.437.697 1.72 1.435.048.124.062.247.114.384.189.494-.034 1.52-.263 1.988-.1.206-.36.536-.516.677-.96.867-2.343.855-3.537.508-.066-.02-.33-.102-.362-.135-.04-.042-.048-.116-.051-.172L.63 9.403c-.007-.077-.026-.227-.126-.235q-.01-.026-.024-.05m3.225 5.163c.013-.016 0-.064.017-.093s.074-.035.099-.077c.113-.19.141-.557.165-.779.061-.585.006-1.167-.462-1.58a.93.93 0 0 0-.673-.225c-.246.007-.454.069-.634.236a.7.7 0 0 0-.22.401c.038.7-.059 1.468-.003 2.16a1 1 0 0 0 .038.211c.027.039.24.139.3.146.246.03.572.036.816 0 .033-.004.294-.14.306-.153.033-.035.135-.193.167-.22.023-.019.073-.015.083-.027Zm6.961-7.474c-.012.062.03.053.068.068.317.126.433.037.402-.301a1.24 1.24 0 0 0-.235-.66c-.217-.29-.333-.345-.674-.42-.097-.02-.15-.096-.281-.04-.168.07-.13.267-.15.396-.038.236-.237.562-.449.67-.251.127-.773.112-.993-.072-.287-.24-.264-.784-.09-1.086.098-.17.45-.424.634-.485.769-.251 1.713-.31 2.495-.001.373.147.61.48.864.763.015.018.016.034.024.05l-.024.013c-.018.092.029.05.05.062.01.006.015.017.024.024.019.267.108.541.125.807.041.624-.07 1.359-.001 1.964.01.089.058.215.125.273.015.013.042.008.05.013.005.004.012.016.024.025-.002.128.167.131.194.153.035.029.043.556.029.629-.005.027-.043.087-.062.087h-1.59c-.144 0-.015-.427-.089-.532-.057-.081-.164-.037-.172.06q-.012-.002-.025 0c-.104.02-.068.056-.1.1-.019.027-.039.036-.049.049-.143.006-.314.201-.421.237-.419.142-1.15.169-1.557-.01l-.182-.117c-.66-.435-.712-1.234-.36-1.897.109-.204.435-.438.65-.542.523-.253 1.053-.259 1.621-.28q.063-.003.125 0m-.303.728c-.1.007-.404.05-.485.086-.048.022-.073.077-.107.092-.04.018-.087.006-.123.026A4 4 0 0 0 9.412 8c-.047.106-.045.393-.007.503.011.032.176.197.209.214.05.026.307.08.37.08.388 0 .83-.28 1.041-.6.07-.108.166-.47.052-.57-.066-.058-.603-.1-.714-.092m-2.802 8.689c.115 0 .204.076.29.121 1.067.564 2.055 1.202 3.325 1.296 2.393.179 5.441-.288 7.282-1.914.063-.056.417-.398.447-.398.044 0 .056.026.062.063.022.123-.058.542.067.579l3.028.004c.252.03-.08.333-.138.41-3.473 4.663-10.52 4.888-14.14.249-.042-.056-.269-.361-.223-.41m14.247.157c.016-.021.11-.137.118-.143.037-.032.125-.026.123-.127s-.123-.037-.185-.035c-.356.01-.747-.029-1.096-.002-.288.022-.271.14-.458.312-1.451 1.332-3.388 2.113-5.33 2.348-.117.014-.223-.033-.321-.024-.085.007-.17.065-.276.075a9 9 0 0 1-1.194 0c-.116-.01-.204-.068-.297-.077-.219-.022-.498.008-.743-.026-1.43-.2-2.979-.975-4.054-1.936-.066-.06-.165-.22-.248-.224-.037-.002-.045-.004-.038.038.005.03.343.384.398.446.447.507 1.098 1.127 1.717 1.514a10 10 0 0 0 1.185.654c.118.053.152.076.247.126.152.078.4.125.565.156.176.032.503.18.684.236.11.033.265.014.356.04.112.033.17.104.354.12.941.08 1.788.085 2.73-.004.053-.005.162-.021.21-.038.302-.102.616-.16.93-.238.79-.198 1.854-.72 2.516-1.162a9.7 9.7 0 0 0 1.662-1.444c.17-.187.293-.395.445-.586Zm-11.662-1.449c-.137-.264-.366-.47-.49-.791-.283-.735-.268-1.493.016-2.23.36-.938 1.339-1.504 2.351-1.453.64.033 1.204.291 1.588.773.283.357.403 1.029.412 1.477 0 .06.052.121.002.176l-.415.107c-.672.037-1.314.247-1.966.395-.216.05-.646-.083-.601.264.013.101.26.422.347.497.625.542 1.337.473 2.009.1.219-.123.19-.227.37.056.062.097.114.274.168.353.039.056.108.042.11.164.004.152-.077.09-.125.123-.025.018-.02.072-.05.1-.332.3-1.279.554-1.725.56a3.5 3.5 0 0 1-1.437-.305c-.13-.06-.258-.164-.39-.217q-.014-.012-.025-.025c-.036-.046-.022-.1-.124-.1-.005-.008-.02-.016-.025-.024m1.508-3.573c-.158.036-.465.363-.533.51-.044.095-.15.496-.153.594-.003.176.104.201.257.181.263-.035.52-.126.779-.19.196-.049.54-.001.528-.29-.018-.434-.407-.911-.878-.805M3.708 9.143c-.004-.006.008-.065-.012-.099-.023-.038-.195-.197-.252-.271-.242-.317-.29-.56-.414-.928-.021-.062-.078-.104-.09-.183-.02-.124-.017-.797.02-.895.218-.571.318-1.012.8-1.461.457-.426 1.222-.688 1.846-.633.748.066 1.296.304 1.701.933.048.074.046.198.153.207.002.008-.002.017 0 .025.06.234.128.527.148.759.008.086.017.373-.003.44-.033.11-.38.078-.468.167-.024.003-.05-.003-.074 0-.21.024-.356.08-.541.117-.217.043-.445.046-.652.131-.025.002-.05-.002-.074 0-.28.022-.839.102-1.1.18-.203.06-.145.255-.065.4.143.263.596.57.891.588.025.001.05-.002.075 0 .05.054.166.068.236.074.239.02.597-.033.832-.086.046-.01.352-.17.375-.199.017-.022.016-.052.023-.062.019-.027.036-.034.05-.05l.173.05c.006.013.018.028.025.05.047.135.099.248.164.37.057.106.179.2.118.344-.013.031-.261.21-.309.24-.14.088-.303.135-.444.202-.237.113-.17.075-.43.117-.502.081-.936.171-1.43.02-.136-.04-.322 0-.41-.03-.046-.016-.075-.148-.216-.096-.012-.012-.033-.025-.05-.024a.4.4 0 0 0-.1-.136c-.065-.039-.288-.12-.337-.16-.035-.03-.028-.09-.038-.098-.02-.018-.115.005-.121-.004ZM5.863 5.67c-.01-.01-.203-.13-.225-.136-.107-.032-.502-.038-.595.01-.042.022-.044.062-.069.08-.21.16-.279.239-.39.479-.019.039-.06.061-.074.1-.032.088-.054.432-.057.542-.002.086.03.16.118.18.12.027.226-.093.374-.113.237-.032.369-.054.596-.1.163-.032.591-.005.627-.193a2 2 0 0 0-.023-.468c-.008-.028-.062-.01-.088-.04-.021-.025-.03-.1-.057-.142a7 7 0 0 0-.137-.199"/><path d="M16.482 13.416c-.384.04-.654.015-.383.47.134.225.699.615.945.645.305.038.59.022.866-.098.182-.08.339-.158.498-.272a1 1 0 0 1 .124-.074.7.7 0 0 1 .126.173c.06.11.104.268.174.373.054.08.171.096.098.275-.122.073-.23.17-.326.269-.99.49-1.956.54-2.973.12-.367-.15-.93-.792-1.054-1.156-.286-.837-.286-1.806.2-2.566.45-.704 1.06-1.054 1.917-1.116.52-.037 1.18.144 1.578.484.294.252.597.855.67 1.23.003.016-.002.034 0 .05.01.064-.033.143.05.124v.1c0 .003-.023.007-.026.06-.005.086.022.396-.049.437-.018.01-.355.062-.413.072-.332.054-.673.09-1.004.163-.046.01-.165.018-.148.088-.025.003-.05-.002-.075 0l-.037-.025-.013.025h-.05c-.219.014-.457-.042-.62.15-.025.002-.05-.003-.075 0Zm.018-2.082c-.046.014-.31.265-.354.317a7 7 0 0 0-.155.217c-.025.05-.017.134-.037.187-.062.165-.12.246-.12.454 0 .186.147.244.313.21.051-.01.069-.056.126-.072.212-.059.374-.073.602-.143.21-.066.445.014.623-.172a.92.92 0 0 0-.294-.818 4 4 0 0 0-.242-.18 2.5 2.5 0 0 0-.462 0m3.215 2.579c.013-.006.048.009.074-.011.04-.03.207-.323.26-.387.205-.248.463-.488.673-.744.14-.168.309-.372.408-.53.07-.111.31-.352.412-.488.071-.094.217-.183.023-.274h-1.017c-.188.096-.32.182-.422.373-.026.05-.001.13-.064.162-.015.008-.259-.013-.311-.015-.099-.003-.233.062-.304-.064l-.005-1.341c-.005-.02.026-.06.037-.06h3.938c.004.055.022.105.026.16.01.144.026.76 0 .866-.006.025-.056.03-.075.054-.148.188-.328.406-.41.584-.019.043-.113.13-.162.225-.005.01.006.038 0 .05-.12-.007-.1.053-.124.124-.003.007.003.017 0 .024-.085-.012-.114.05-.124.124l-.025.025q-.075-.002-.074.075c-.03.032-.036.06-.05.1-.044-.01-.057.005-.05.049-.053.033-.207.239-.248.298-.05-.007-.057-.001-.05.05-.006.008-.009.03-.025.05-.082 0-.075.052-.1.099l-.024.05c-.083 0-.075.053-.1.099-.008.016-.017.039-.024.05-.067-.012-.05.015-.05.074-.044.063-.106.117-.149.174-.115 0-.149.114-.206.166-.027.024-.075.027-.105.057-.092.091-.216.238-.149.374.055.109.22.048.298.048.22 0 1.102.038 1.23-.063.024-.02.25-.245.26-.26.03-.046.033-.19.04-.197.017-.016.393.002.46 0 .035 0 .16-.045.16.012v1.292c0 .014.035.112-.037.112h-4.1c-.081 0-.036-.148-.036-.185.001-.26-.039-.685 0-.92.008-.049.137-.244.173-.287l.024-.024c.053-.06.056-.004.124-.15M15.687 4.87c.012-.011.204-.14.217-.144.126-.027.393-.074.514-.054.042.007.403.107.42.12.024.02.015.057.03.075.062.072.167.088.233.24.084.197.104.714.008.9-.01.018-.258.274-.28.29-.44.292-1.052.089-1.526.164-.061.01-.106.037-.127.096.01.595-.052 1.238-.012 1.829.004.065.03.272.055.317.02.033.056.042.08.07.069.08.157.182.27.226.147.056.16-.01.279.119.014.016.052.02.058.029.008.013-.022.25-.022.307 0 .065.07.235-.06.235h-2.535a.3.3 0 0 1-.038-.037V9.13c.085-.023.116-.096.158-.128.018-.015.056-.014.078-.033.093-.076.121-.091.162-.2.003-.006-.003-.017 0-.024.086 0 .118-.173.125-.236.087-.815-.067-1.779 0-2.61a.54.54 0 0 0-.073-.22c-.021-.025-.05-.013-.052-.015l-.025-.025c-.035-.035.015-.045-.1-.099-.01-.021 0-.046-.035-.076-.063-.053-.262-.068-.262-.21v-.472a.3.3 0 0 1 .037-.037h1.764c.104 0 .038.12.036.185-.005.259-.02.594.002.846.008.091.033.337.174.25.06-.038.08-.266.105-.343.052-.158.145-.312.21-.46.044-.098.018-.233.107-.33l.024-.024Zm2.46-4.126c.008.002.017-.002.025 0-.004.089.16.1.224.124.017.006.032.018.05.025-.007.079.117.082.171.114.049.029.074.098.151.085.01.117-.113.012-.143.006-.508-.1-.957-.357-1.465-.448a11 11 0 0 0-.668-.104c-.086-.009-.15.03-.219.024-.1-.01-.234-.124-.424-.126-.574-.007-1.062.068-1.622.17-1.839.334-3.8 1.573-5 3-.087.104-.268.312-.325.422-.084.164-.037.176-.21.311-.173.136-.297.178-.46.348l-.025.025c-.052-.006-.086-.01-.074.05-.011.007-.018.02-.025.024-.044.031-.113.053-.161.1-.072.07-.15.277-.268.244-.049-.013-.267-.31-.329-.369-.138-.128-.268-.195-.419-.276-.201-.108-.085-.16-.015-.258.343-.48.614-.873 1.03-1.303.842-.868 1.464-1.29 2.513-1.887A6.5 6.5 0 0 1 11.73.503c1.766-.578 3.893-.572 5.666-.015.252.079.5.174.75.256Z"/><path d="M8.233 4.695c.163-.17.284-.21.46-.348s.126-.147.21-.312c.057-.11.238-.317.325-.42 1.2-1.428 3.161-2.667 5-3.002.56-.101 1.048-.176 1.622-.17.19.003.325.118.424.126.069.007.133-.032.219-.023.183.02.479.07.668.104.508.09.957.347 1.465.448.03.006.153.11.143-.006-.077.012-.102-.057-.151-.086-.054-.031-.178-.035-.172-.114.121.05.24.091.356.155.036.02.102.04.091.094-.021 0-.096-.016-.074.037.027.064.164.095.222.127.032.018.006.071.088.06.032-.004-.01-.077-.012-.1.172.09.559.357.684.496.052.057.108.152-.001.177l-1.17-.397c-2.548-.741-5.343.003-7.205 1.836-.204.2-.411.42-.6.604-.032.03-.073.165-.158.204-.11.05-.75 0-.932.012a3.7 3.7 0 0 0-.931.187c-.186.07-.38.24-.572.31h.001Zm19.971 10.477c-1.09.783-3.053.691-3.928-.391-.63-.779-.823-1.773-.444-2.726.193-.488.411-.845.829-1.208.312-.272 1.101-.498 1.526-.511.878-.029 1.735.456 2.084 1.27.136.317.278.94.214 1.276-.023.122-.305.155-.417.18-.8.172-1.672.25-2.466.465-.189.051-.048.231.03.345.402.587 1.272.688 1.89.407.17-.077.338-.284.517-.254.11.096.141.239.214.357.054.088.247.336.257.416.023.184-.158.236-.272.323-.015.012-.021.042-.034.051m-.024-3.587c-.225-.399-.44-.66-.86-.89-.54-.298-1.645-.29-2.171.012-.591.339-.795.602-1.092 1.2-.02.042-.065.063-.08.094-.02.041-.08.356-.093.43-.135.746-.062 1.458.352 2.092.176.269.31.379.57.572.03.023.037.073.078.097.293.176.656.232.96.356.122.049.985.05 1.118.01.177-.054.263-.068.437-.11.085-.02.13-.093.186-.112.36-.124.384-.11.664-.354.13-.113.207-.134.084-.331-.048-.076-.177-.192-.213-.247-.062-.094-.002-.312-.239-.237-.053.016-.051.074-.073.088-.064.042-.562.26-.632.274-.097.02-.667.022-.76 0-.06-.014-.086-.066-.136-.087-.416-.174-.587-.257-.8-.666-.028-.055-.069-.027-.077-.147-.022-.33.367-.207.58-.243.083-.015.135-.07.207-.091.233-.07.636-.116.886-.158.35-.06.764-.16 1.104-.237.055-.013.146.009.183-.016.051-.034 0-.14-.002-.2-.006-.186.033-.53-.03-.69-.018-.045-.064-.068-.081-.117-.026-.074-.035-.232-.07-.292m-18.034 3.347c-.081.008-.149-.104-.199-.162-1.26-1.48-.444-4.113 1.556-4.382 1.472-.198 2.573.716 2.62 2.195.004.13.018.274-.065.385l-2.85.572c-.145.173.17.474.306.582.535.421 1.264.368 1.838.053.085-.048.2-.184.298-.153.104.033.359.603.458.711.056.109-.033.24-.113.309-.828.711-2.534.84-3.45.248-.113-.073-.147-.118-.226-.21.133.054.26.157.391.218.424.198.966.312 1.437.306.446-.007 1.393-.262 1.725-.562.03-.027.025-.08.05-.099.047-.033.128.029.126-.123-.003-.122-.072-.108-.11-.164-.056-.079-.107-.256-.169-.353-.18-.283-.152-.179-.37-.057-.672.374-1.384.443-2.01-.099-.086-.075-.333-.396-.347-.497-.045-.347.385-.215.602-.264.652-.148 1.293-.358 1.965-.395l.415-.107c.05-.055 0-.117-.001-.176-.009-.448-.13-1.12-.412-1.477-.383-.482-.949-.74-1.588-.773-1.012-.05-1.99.515-2.352 1.453-.283.737-.298 1.495-.014 2.23.123.32.352.527.488.79v.001Z"/><path d="M7.4 10.46c.025.007.057.058.062.087.028.144-.034.818.026.882.056.01.077-.05.096-.09.15-.312.112-.487.413-.755.747-.664 1.948.323 1.472 1.223-.308.58-1.103.53-1.672.518-.111-.003-.207-.083-.279.066l-.006 1.81c.017.204.075.334.25.444.147.092.495.149.553.295.016.04-.008.258-.008.329 0 .048.049.31-.061.31H5.537c-.085 0-.07-.57-.05-.647.035-.135.175-.152.274-.224.134-.098.249-.232.262-.408-.074-.81.096-1.793-.004-2.583-.025-.197-.12-.29-.274-.397-.072-.05-.2-.076-.239-.159-.04-.088-.064-.701.032-.701zm.833 5.007c.023-.083 0-.407 0-.522 0-.045-.122-.033-.156-.043a4 4 0 0 1-.488-.258c-.12-.09-.143-.175-.152-.32-.043-.65.03-1.352.007-2.008.011-.044.03-.088.081-.092.325-.018.673.024.995 0 .167-.011.61-.133.731-.237.172-.147.26-.546.219-.764-.076-.4-.351-.693-.758-.757-.139-.022-.468.016-.584.093-.04.027-.026.07-.05.094l-.143.142c-.026.025-.07.02-.1.055a1.3 1.3 0 0 0-.11.232c-.034.104-.114.646-.25.646a.1.1 0 0 1-.064-.036c-.072-.095.026-.872.003-1.072-.011-.104-.072-.104-.161-.112a12 12 0 0 0-1.543 0c-.242.02-.163.051-.16.211.003.102-.023.426.053.484.008.005.105-.022.183.026.026.016.193.162.211.187.051.07.042.15.136.187l.012 2.77c-.088.154-.16.292-.298.397-.046.035-.286.153-.297.201-.006.025.043.061.048.099.007.05.008.149.003.2-.017.15-.132.188.134.21.732.061 1.587-.019 2.338-.003.047.002.144.049.16-.01"/><path d="M.504 9.167c.1.008.118.16.125.235L.627 15.12c.004.056.01.13.052.172.031.033.296.116.362.135 1.194.348 2.576.359 3.537-.508.156-.14.415-.47.516-.677.229-.468.451-1.493.263-1.987-.053-.137-.066-.26-.114-.384-.284-.739-.892-1.364-1.72-1.435-.36-.031-.914.04-1.205.26-.037.028-.05.085-.075.1-.056.033-.224.008-.224-.05v-2.51c0-.027-.06-.035-.085-.038C1.46 8.14.767 8.2.266 8.199c-.05 0-.095-.02-.144-.027-.009.042-.066.046-.066.05v.51c0 .149.131.134.232.191a.44.44 0 0 1 .19.194c-.089.02-.092-.065-.14-.096-.071-.047-.265-.09-.301-.17-.048-.106-.064-.687.044-.74l1.878-.014c.048-.017.135.083.135.113v2.46c0 .022.049.043.083.034.037-.01.076-.08.118-.106.596-.378 1.578-.315 2.157.075 1.014.682 1.22 2.133.884 3.24-.22.727-.954 1.377-1.67 1.608-.828.265-1.691.219-2.521 0-.18-.048-.574-.106-.568-.327L.58 9.477a1.1 1.1 0 0 0-.075-.31Zm17.96-5.734a3 3 0 0 1 .543-.006c.028.003.055-.003.074.025.11.155-.033 1.113.072 1.196.078.061.862-.001 1.044.024.25.036.14.22.138.382-.004.163-.001.333 0 .5 0 .15.093.357-.135.384-.294.034-.723-.052-.994 0-.159.03-.087.193-.087.284.002.609-.054 1.35-.002 1.94.01.104.052.222.126.297.227.233.567.017.695.126.028.024.22.4.253.467.082.173.193.297.02.45-.799.695-2.451.383-2.558-.82-.106-1.186.077-2.525 0-3.727-.077-.405.354-.762.557-1.107.063-.108.145-.39.256-.415zm.554.07h-.46c-.135 0-.134.15-.175.221-.05.088-.164.199-.211.268-.13.189-.212.435-.393.594a64 64 0 0 0 .004 4.364c.346.915 1.541 1.02 2.303.552.24-.147.109-.21.032-.378-.052-.115-.083-.159-.129-.25-.022-.042-.025-.156-.064-.202-.069-.08-.31-.02-.423-.025a1 1 0 0 1-.234-.039 1.5 1.5 0 0 1-.189-.234 2 2 0 0 1-.037-.286c-.044-.68.026-1.417.013-2.102.032-.09.112-.113.2-.123.312-.035.641.034.954.022.056-.104.024-.165.026-.257.004-.21.035-.638.001-.821-.004-.02-.02-.062-.037-.062h-1.093c-.03 0-.06-.103-.063-.136-.018-.158.032-1.059-.024-1.107Zm3.776 8.919c.048-.094.143-.182.162-.224.081-.178.262-.396.41-.584.019-.024.068-.029.074-.054.026-.106.011-.723 0-.866-.003-.055-.021-.105-.025-.16h-3.939c-.01 0-.042.039-.036.06l.005 1.34c.071.127.205.062.303.065.053.001.297.022.312.015.062-.032.038-.113.064-.162.101-.192.234-.278.421-.374h1.018c.193.092.048.18-.023.274-.102.136-.343.377-.413.489-.099.158-.268.361-.407.53-.21.255-.468.496-.673.743-.053.064-.221.357-.26.387-.026.02-.061.006-.075.012-.068.145-.071.089-.124.149-.006-.1.05-.117.124-.15.175-.373.53-.684.75-1.047.035-.06.027-.091.03-.096.02-.026.091-.025.118-.059.027-.035.012-.089.027-.11.012-.016.063-.013.087-.036.082-.08.15-.227.22-.315.074-.092.481-.526.457-.607-.011-.039-.052-.037-.085-.041-.224-.026-.763-.017-.931.14-.03.027-.095.153-.14.206a3 3 0 0 1-.177.172c-.053.017-.612.012-.654-.007-.047-.023-.07-.1-.075-.149a9.4 9.4 0 0 1 0-1.344c.006-.07.01-.106.076-.147h4.025c.051.037.068.088.075.148.034.288-.022.644-.006.94-.2.249-.388.555-.603.788-.032.034-.06.072-.112.074m.001-7.305c.005-.113.188-.209.276-.258 1.072-.59 2.587-.133 2.682 1.214.057.804-.046 1.672.001 2.483a.6.6 0 0 0 .155.305c.058.06.19.112.254.157.148.104.126.367.112.535-.01.138-.015.273-.186.261-.714-.05-1.51.063-2.214 0-.089-.008-.15-.008-.162-.111-.01-.093-.011-.514.013-.587.03-.09.278-.18.362-.26a.48.48 0 0 0 .148-.298c.07-.68-.05-1.47 0-2.161-.017-.168-.147-.353-.248-.485l.218.13.129.282c-.06.718.085 1.584.002 2.285a1 1 0 0 1-.131.254c-.023.022-.073.016-.089.038-.01.015.002.056-.008.064-.015.013-.062-.005-.09.01-.009.005-.014.037-.036.051-.052.033-.155.059-.18.117-.054.118.002.479.011.62h2.324a.3.3 0 0 0 .037-.037V9.23c0-.022.047-.032.002-.1-.066-.1-.165-.09-.235-.139-.071-.048-.265-.304-.284-.387-.06-.846.063-1.767-.005-2.604a1.6 1.6 0 0 0-.274-.72c-.4-.502-.9-.6-1.527-.56-.289.02-.85.206-1.057.398Zm-3.852 7.057c-.074-.375-.377-.979-.67-1.23-.398-.34-1.059-.521-1.578-.484-.857.061-1.467.412-1.917 1.115-.486.76-.486 1.73-.2 2.567.124.363.687 1.005 1.054 1.157 1.017.418 1.983.368 2.973-.121.096-.1.204-.197.326-.27.073-.178-.044-.194-.098-.274-.07-.105-.113-.264-.174-.373a.7.7 0 0 0-.126-.173 1 1 0 0 0-.124.074 2.6 2.6 0 0 1-.498.272c-.275.12-.561.136-.866.098-.246-.03-.81-.42-.945-.645-.271-.455-.001-.43.383-.47.015.074-.036.045-.082.053-.345.065-.482.064-.226.417.53.727 1.545.688 2.24.243.045-.03.075-.179.203-.052.087.214.335.483.406.687.037.108-.053.206-.132.278-.802.73-2.553.806-3.45.223-1.66-1.077-1.492-3.793.274-4.641 1.324-.636 2.922-.07 3.236 1.43.008.036.039.095-.008.12Zm2.635 1.764c-.006.008-.007.039-.024.062-.06.078-.37.384-.313.461.018.025.048.022.075.025.22.026.893.024 1.108-.012a.46.46 0 0 0 .343-.23c.134-.21.04-.281.363-.306.28-.022.552-.062.56.288.008.292-.028.635-.026.943.001.13.094.383-.11.41l-4.17-.005c-.138-.08-.066-.212-.066-.33 0-.257-.03-.552-.024-.794.004-.148.136-.309.27-.362-.035.042-.163.238-.172.287-.04.234.002.66 0 .919 0 .038-.045.185.036.185h4.1c.072 0 .038-.097.038-.112v-1.292c0-.057-.126-.012-.16-.011-.068.001-.444-.016-.46 0-.008.007-.01.15-.04.196-.01.015-.237.241-.262.26-.127.101-1.01.063-1.229.063-.077 0-.243.061-.297-.048-.068-.136.057-.282.148-.374.03-.03.079-.032.105-.056.058-.053.09-.167.206-.167ZM8.107 4.794l-.284.35c-.137.304-.239-.023-.337-.139a2 2 0 0 0-.174-.174c-.111-.102-.554-.353-.568-.453-.003-.02-.003-.037.009-.054.182-.21.31-.476.474-.696C9.672.344 14.273-.898 18.075.681c.038.016.087-.002.072.063-.25-.081-.499-.177-.75-.256-1.773-.557-3.9-.563-5.666.015a6.5 6.5 0 0 0-1.273.542c-1.048.597-1.67 1.02-2.511 1.887-.417.43-.689.824-1.032 1.303-.07.098-.186.15.016.258.15.081.28.148.419.277.062.057.28.355.329.369.118.032.196-.175.268-.245.048-.047.117-.069.161-.1Z"/><path d="M12.258 5.64c-.253-.285-.49-.617-.863-.765-.782-.309-1.727-.25-2.496.002-.184.06-.535.314-.633.485-.174.302-.197.846.09 1.086.22.184.741.199.993.071.212-.107.411-.434.449-.669.02-.13-.018-.325.15-.397.13-.055.184.02.28.041.342.075.458.13.675.42.147.197.211.412.234.66.032.338-.085.427-.401.3-.04-.015-.08-.006-.068-.067.057.002.373.08.373-.013v-.373c0-.301-.36-.727-.642-.824-.577-.2-.435.03-.558.395-.04.12-.148.296-.229.393-.461.55-1.486.357-1.553-.411-.108-1.254 1.71-1.472 2.615-1.347.657.09 1.314.367 1.585 1.012Zm3.429-.771c-.004-.082.11-.15.177-.184 1.055-.535 1.92.914 1.104 1.576-.495.402-1.028.182-1.592.247-.065.008-.127.029-.156.093l.006 1.872a.57.57 0 0 0 .24.358c.094.06.48.182.497.204.072.094.079.69-.027.742l-2.693.009c-.088-.03-.079-.57-.054-.668.034-.128.092-.103.17-.153.1-.063.189-.138.29-.195-.04.108-.068.123-.161.2-.022.018-.06.017-.079.032-.041.033-.072.106-.157.129v.522a.3.3 0 0 0 .037.037h2.535c.13 0 .061-.17.06-.235 0-.058.03-.294.023-.308-.007-.01-.044-.013-.059-.029-.118-.129-.131-.062-.278-.119-.114-.043-.202-.146-.27-.226-.024-.028-.06-.036-.08-.07-.027-.044-.051-.251-.056-.317-.039-.59.022-1.233.012-1.828.021-.06.066-.087.128-.097.473-.075 1.086.129 1.525-.164.022-.015.27-.272.28-.29.097-.185.076-.703-.008-.899-.065-.152-.17-.168-.232-.24-.015-.018-.006-.056-.03-.075a5 5 0 0 0-.42-.12c-.122-.02-.389.026-.515.054a4 4 0 0 0-.217.143zM21.08 8.62s.017.011.013.027c-.046.167-.228.361-.38.44-.038.02-.13.024-.13.03v.61a.3.3 0 0 0 .037.037h2.311a.3.3 0 0 0 .075-.05c.048-.08-.016-.425.026-.546-.122-.116-.318-.196-.425-.323a1.1 1.1 0 0 1-.158-.338c-.039-.27-.036-1.492.018-1.742.034-.154.14-.494.226-.614.016-.023.056-.008.07-.02.015-.015.013-.065.042-.096.135-.145.321-.22.468-.304.134-.078.348-.108.489-.028a.8.8 0 0 1 .2.185c-.105-.016-.188-.093-.296-.113-.433-.081-.868.289-1.025.667s-.163 1.578-.116 2.014c.022.206.13.381.298.498.079.054.226.082.259.187.024.077.018.587-.018.643l-2.48.017c-.141-.063-.053-.314-.05-.424.002-.054-.025-.1-.026-.149-.008-.22.241-.224.362-.358zM7.461 5.813c-.107-.009-.105-.133-.153-.207-.406-.629-.954-.867-1.701-.933-.624-.055-1.389.208-1.846.633-.483.449-.582.89-.8 1.461-.037.098-.04.771-.02.895.011.08.068.12.09.184.124.368.171.61.414.927.057.074.229.233.252.271.02.034.008.093.012.099.006.009.1-.015.121.003.01.009.003.07.038.098.05.04.272.121.337.16a.36.36 0 0 1 .1.136c-.22.007-.438-.25-.596-.397-1.857-1.742-.414-4.91 2.168-4.516.616.094 1.43.534 1.584 1.186"/><path d="M10.793 9.416c-.771.963-3.007.402-2.826-1.173.14-1.216 1.464-1.52 2.492-1.486.048.002.1-.025.086.05-.569.021-1.098.027-1.621.28-.215.104-.542.338-.65.542-.352.663-.3 1.462.36 1.897.024.016.17.112.181.117.408.18 1.138.152 1.557.01.107-.036.278-.23.421-.237m2.733-3.876c-.125-.06-.299-.086-.337-.247-.028-.116-.049-.604.08-.643l1.797.008a.15.15 0 0 1 .077.122c.02.163-.04 1.025.023 1.082.044.04.077-.075.086-.1.099-.279.134-.574.324-.82.026-.034.005-.067.087-.049-.088.096-.063.232-.106.33-.066.147-.159.302-.21.46-.025.076-.046.305-.106.342-.14.088-.166-.159-.174-.25-.022-.252-.007-.587-.001-.846.001-.064.067-.185-.036-.185h-1.765a.3.3 0 0 0-.037.037v.473c0 .142.2.156.263.21.035.03.024.054.036.075.113.055.064.064.099.1-.084-.001-.076-.056-.1-.1ZM7.312 8.397c.054-.006.095.079.12.117.049.074.276.462.276.517-.003.164-.53.466-.677.538-.34.167-.742.268-1.123.294-.376.025-1.31-.028-1.553-.298.141-.053.17.08.216.096.089.03.275-.011.411.03.494.15.928.06 1.43-.02.26-.042.193-.004.43-.117.14-.068.303-.115.444-.202.047-.03.296-.21.309-.24.06-.145-.062-.239-.118-.345a2.5 2.5 0 0 1-.164-.37ZM20.608 2.31c-.015-.071.04-.054.087-.05.477.035.961.03 1.442.026.197-.002.4-.111.404.186.011.838-.085 1.777-.02 2.608.005.055.03.107.025.162.101.02.117-.114.224-.1-.016.014-.026.07-.062.1-.075.064-.235.127-.26-.013-.002-.87 0-1.74-.003-2.61 0-.096.053-.184-.022-.273-.055-.065-.114-.01-.186-.01a25 25 0 0 1-1.63-.026Zm7.597 8.031a.25.25 0 0 1 .155.007c.02.01.188.182.194.204.122.411-.672.607-.589.022.018-.127.115-.21.24-.233m-7.124-1.77-.05-5.243c.069.056.065.126.076.21-.102 1.625.143 3.434-.026 5.033m-8.425.299c.099.071.276.15.294.291.006.046-.022.093-.021.142.002.132.064.45-.09.48h-1.63c-.202-.044-.09-.364-.118-.516-.04.002-.083-.003-.124 0 .008-.097.115-.14.172-.06.074.105-.055.532.089.532h1.59c.02 0 .057-.06.062-.087.014-.073.006-.6-.029-.629-.027-.021-.196-.025-.194-.153Zm-.026-.026c-.007-.005-.034 0-.049-.013a.47.47 0 0 1-.125-.273c-.068-.605.042-1.34.001-1.964-.017-.266-.106-.54-.125-.806.127.104.166.56.175.731.025.48-.094 1.868.056 2.206.018.042.065.067.067.119"/><path d="M13.65 5.664c.002.002.031-.01.052.015a.5.5 0 0 1 .074.22c-.067.83.086 1.795 0 2.61-.008.062-.039.236-.125.236.03-.084.07-.168.075-.26-.063-.827.082-1.774 0-2.587-.01-.1-.052-.145-.076-.235ZM5.797 7.453c.014.079-.04.042-.085.05-.285.052-.727.1-.984.186-.128.042-.157.087-.093.218.15.313.493.543.81.658.04.014.094-.019.079.056-.296-.018-.749-.325-.892-.587-.08-.146-.138-.34.065-.4.262-.079.82-.16 1.1-.18Zm1.665-1.615c.067-.015.047.034.061.073.128.356.144.75.157 1.127-.035.12-.371.174-.488.187-.037.003-.05-.02-.053-.02.087-.09.434-.057.467-.167.02-.068.011-.355.003-.44a5 5 0 0 0-.147-.76m-.398 2.51c-.007.01-.006.04-.024.062a2.2 2.2 0 0 1-.374.199c-.236.053-.593.106-.832.086-.07-.006-.186-.02-.236-.074.24.023.474.034.726-.007.252-.04.506-.14.74-.266m11.855 4.596c-.003.002.01.045-.018.05-.51.056-1.044.212-1.548.274-.016-.071.103-.078.148-.088.332-.073.673-.11 1.005-.164.058-.01.395-.061.413-.072.07-.04.044-.35.049-.436.002-.053.025-.057.025-.06.037.084.046.403.002.462-.021.029-.063.025-.076.034M7.064 7.205c.014.075-.037.043-.082.053-.387.08-.726.164-1.11.195.206-.085.434-.088.651-.13.185-.037.33-.094.54-.118Zm10.114 6.063c.014.078-.039.042-.085.05-.188.033-.356.081-.536.099.163-.192.402-.136.621-.15ZM20.584 2.31c-.043.204.024.43 0 .646-.006-.006-.048.001-.063-.024-.028-.044-.021-.587.017-.619.015-.01.03-.002.046-.003m-1.691-1.168h.025c-.005.09.095.075.149.1q.024.01.05.024c.001.022.044.095.012.1-.083.01-.057-.042-.088-.06-.058-.032-.196-.064-.223-.128-.022-.053.053-.036.075-.036m1.987 2.012a.6.6 0 0 1-.247-.113c-.028-.024-.022-.058-.026-.06.12.001.201.091.274.173ZM18.172.744c.065.02.227.059.224.124-.063-.024-.228-.035-.224-.124M7.289 8.347l-.174-.05c.004-.004-.014-.043.016-.05.147-.038.13.026.158.1m15.382 4.274c-.055.15-.044.08-.124.124.01-.073.038-.136.124-.124"/><path d="M19.067 1.241c-.054-.024-.154-.009-.149-.1.062.01.154.025.15.1Zm-8.895 13.716c.103 0 .089.053.124.1-.142.018-.097-.04-.124-.1m12.622-2.485c-.018.038-.081.137-.124.124.023-.07.004-.13.124-.124m-3.852-.248c.073-.02.051.058.05.124-.083.018-.04-.06-.05-.124m3.081 1.168c-.021.027-.013.105-.1.099.025-.046.017-.098.1-.1Zm-.123.148c-.024.047-.016.099-.1.1.025-.046.017-.099.1-.1M10.941 9.267c-.002.06-.041.093-.1.1.032-.044-.004-.08.1-.1m11.581 3.503c-.04.046-.055.055-.075.075q0-.077.075-.074ZM12.307 5.763c-.02-.012-.067.031-.05-.062l.026-.012c.012.024.034.038.024.074m9.47 7.927-.05.074c-.001-.059-.017-.086.05-.074M8.208 4.72c-.044.05-.05.032-.075.05-.012-.06.023-.056.075-.05m12.797-1.417c-.005-.004-.037.009-.046-.002-.014-.015.003-.059-.003-.072l.05.074Zm1.392 9.641c-.004.012.007.041 0 .05-.008.007-.041-.005-.05 0-.006-.043.006-.059.05-.05m-5.119.323c-.028.003-.044 0-.05 0l.013-.024zm4.822.025c-.042.06-.048.046-.05.05-.008-.05-.001-.057.05-.05m-18.395.988c-.01.013-.06.009-.084.029-.031.026-.133.184-.166.219a2.4 2.4 0 0 1-.307.154c-.243.035-.57.029-.815-.001-.06-.007-.274-.107-.301-.146a1 1 0 0 1-.038-.21c-.055-.693.041-1.46.004-2.16a.68.68 0 0 1 .22-.402c.18-.168.387-.23.633-.236a.93.93 0 0 1 .673.224c.468.414.524.997.462 1.581-.023.222-.051.59-.165.78-.024.04-.08.046-.098.076s-.004.077-.018.093Zm-.946-2.671c-.289.036-.62.257-.69.552l.006 2.232c.038.17.426.233.578.242 1.782.103 1.651-3.22.106-3.026m7.605-4.074c.11-.007.647.034.713.092.114.1.019.462-.052.57-.21.32-.653.6-1.041.6-.063 0-.319-.054-.37-.08a1.2 1.2 0 0 1-.209-.214c-.038-.11-.04-.398.008-.503.008-.018.22-.252.236-.26.035-.02.083-.01.122-.027.034-.016.06-.07.107-.092.08-.037.386-.08.485-.086Zm-.174.149c-.133.012-.424.084-.516.18-.024.023-.024.062-.041.083-.06.073-.115.095-.132.216-.06.41.245.541.604.504.26-.026.693-.277.8-.517.039-.087.138-.386.035-.436-.117-.058-.602-.044-.75-.03m11.618 8.696c-.151.192-.274.4-.445.587a9.7 9.7 0 0 1-1.662 1.444c-.662.441-1.727.964-2.516 1.161-.314.079-.628.136-.93.239a1.3 1.3 0 0 1-.21.038 15 15 0 0 1-2.73.003c-.184-.016-.242-.087-.354-.119-.091-.026-.247-.007-.357-.04-.18-.056-.507-.204-.683-.237-.166-.03-.413-.078-.565-.156-.095-.049-.129-.073-.247-.125a10 10 0 0 1-1.185-.655c-.62-.387-1.27-1.006-1.717-1.513-.054-.062-.393-.417-.398-.447-.007-.042.001-.04.038-.038.083.004.182.165.248.224 1.075.961 2.623 1.737 4.053 1.936.246.034.525.004.744.026.093.01.18.067.297.077.3.026.894.028 1.194 0 .107-.01.192-.067.276-.075.098-.009.204.039.32.025 1.943-.236 3.88-1.016 5.33-2.349.188-.171.171-.29.46-.311.348-.027.739.011 1.095.002.062-.002.183-.066.185.034s-.086.095-.123.127l-.118.143ZM5.866 5.671l.136.199c.028.042.036.117.058.142.026.03.08.013.088.04.022.074.037.394.022.469-.035.187-.463.16-.626.193a9 9 0 0 1-.597.1c-.147.02-.253.14-.373.112-.089-.02-.121-.094-.119-.18.003-.11.025-.453.057-.542.014-.039.056-.06.074-.1.111-.24.18-.318.39-.478.025-.02.028-.059.07-.08.093-.049.488-.043.595-.01.021.006.215.126.224.135Zm-.57-.024c-.374.046-.49.315-.598.619-.05.14-.18.33-.067.48.041.027.657-.133.765-.155.138-.027.552-.046.624-.146.053-.073-.07-.478-.123-.544a2 2 0 0 0-.322-.225.47.47 0 0 0-.28-.03h.001Zm11.206 5.687c.047-.014.414-.014.462 0 .014.005.223.162.242.18a.92.92 0 0 1 .294.819c-.178.186-.413.106-.624.171-.227.071-.389.085-.602.144-.057.016-.075.062-.126.072-.165.034-.312-.024-.312-.21 0-.208.058-.289.12-.454.02-.053.011-.138.036-.187.006-.012.136-.193.156-.217.043-.053.307-.303.354-.317Zm.87.983c.173-.16-.095-.658-.255-.789-.61-.498-1.19.358-1.178.93.003.127.034.172.16.164.215-.013.578-.14.801-.193.102-.024.4-.046.472-.112m10.807-.732c.034.06.043.218.069.291.017.05.063.073.08.118.065.16.026.504.031.69.002.06.053.166.002.2-.037.024-.128.003-.182.015-.34.079-.755.179-1.105.238-.25.042-.653.087-.886.157-.072.022-.124.077-.207.091-.213.037-.602-.085-.58.243.008.12.049.092.077.147.213.41.385.493.8.667.05.02.076.073.136.087.093.021.663.02.76 0 .07-.015.568-.233.633-.275.021-.014.02-.071.073-.088.236-.074.176.144.238.238.036.055.165.17.213.246.123.198.047.22-.084.332-.28.244-.304.23-.664.354-.055.018-.101.092-.186.112-.174.042-.26.056-.437.11-.132.04-.996.038-1.117-.01-.305-.124-.668-.18-.961-.356-.04-.025-.047-.074-.078-.097-.26-.194-.394-.303-.57-.572-.414-.634-.487-1.347-.352-2.093.014-.073.073-.388.093-.43.015-.03.06-.05.08-.093.297-.598.5-.862 1.092-1.2.527-.302 1.631-.31 2.17-.013.421.231.636.492.861.89Zm-2.796 1.08c.027.015.143.01.18.004.243-.038.547-.167.775-.194.162-.02.547.033.582-.213.036-.258-.106-.603-.3-.77-.515-.447-1.033 0-1.212.526-.027.08-.089.487-.073.56a.5.5 0 0 0 .048.088Zm-17.15 2.801c-.016.06-.113.013-.16.012-.75-.017-1.606.063-2.338.002-.266-.022-.151-.06-.134-.21a1 1 0 0 0-.003-.2c-.005-.038-.054-.074-.048-.098.01-.048.251-.167.297-.202.138-.105.21-.243.298-.397l-.012-2.77c-.094-.037-.085-.117-.136-.187a2 2 0 0 0-.211-.187c-.078-.047-.176-.02-.183-.026-.077-.058-.05-.382-.053-.483-.004-.16-.082-.191.16-.212a12 12 0 0 1 1.543 0c.089.008.15.009.161.112.023.2-.075.977-.003 1.072q.024.031.064.037c.136-.001.216-.542.25-.647.013-.044.084-.203.11-.232.03-.035.074-.03.1-.054l.143-.143c.024-.023.01-.066.05-.093.116-.078.445-.116.584-.094.407.065.682.357.758.758.041.218-.048.617-.219.763-.122.105-.564.226-.731.238-.322.024-.67-.02-.995 0-.051.004-.07.047-.082.092.023.656-.05 1.357-.006 2.008.009.144.032.23.152.32.065.049.418.235.488.257.034.01.156-.002.156.043 0 .116.023.439 0 .522ZM19.017 3.502c.057.048.006.95.025 1.107.004.033.032.136.062.136h1.094c.017 0 .033.041.037.062.033.183.003.611-.001.821-.002.092.03.154-.027.257-.312.012-.642-.057-.954-.022-.087.01-.167.033-.2.123.014.685-.056 1.422-.012 2.102.005.066.02.232.037.286.008.026.167.224.189.234.037.017.184.036.234.039.114.005.354-.055.422.025.04.046.043.16.065.202.046.091.077.135.13.25.076.168.206.231-.033.378-.762.468-1.957.362-2.304-.552a64 64 0 0 1-.003-4.364c.181-.159.263-.405.393-.594.047-.07.16-.18.21-.268.042-.072.041-.222.176-.222z"/><path d="M25.385 12.665a.5.5 0 0 1-.048-.087c-.017-.073.045-.48.073-.56.178-.526.697-.973 1.211-.527.194.168.337.513.3.771-.036.258-.42.194-.582.213-.228.027-.532.156-.774.194a.5.5 0 0 1-.18-.004m.684-1.28c-.153.03-.367.241-.45.37-.091.143-.285.652-.235.8.018.053.103.07.154.066.25-.019.763-.17 1.036-.235.145-.034.277-.036.273-.223-.008-.379-.36-.864-.778-.778"/></g><defs><clipPath id="a"><path fill="#fff" d="M0 0h28.567v20H0z"/></clipPath></defs></svg>