<svg xmlns="http://www.w3.org/2000/svg" width="610" height="122" fill="none"><path fill="#040404" fill-rule="evenodd" d="M42.696 4.522c-.837 2.494-10.786 29.162-22.11 59.263C9.264 93.885 0 118.903 0 119.38s.931.73 2.07.563c1.76-.259 3.246-3.45 9.915-21.277a36791 36791 0 0 1 22.194-59.07C42.072 18.644 48.441 1.43 48.335 1.346c-.107-.087-1.077-.426-2.155-.757-1.672-.512-2.186.067-3.484 3.933M57.197 1.43c0 1.134 1.377 1.43 6.673 1.43h6.673V116.3H63.87c-5.296 0-6.673.296-6.673 1.43 0 1.222 2.701 1.43 18.59 1.43s18.589-.208 18.589-1.43c0-1.08-1.165-1.43-4.767-1.43h-4.766V99.142c0-9.875.374-17.159.882-17.159.485 0 7.143 7.615 14.796 16.92l13.914 16.922-5.263.286c-3.832.208-5.263.661-5.263 1.668 0 1.161 3.045 1.382 19.065 1.382 16.312 0 19.066-.207 19.066-1.43 0-1.043-1.096-1.436-4.051-1.452l-4.052-.024-11.439-13.958c-6.292-7.677-14.337-17.41-17.877-21.628-5.045-6.008-6.18-7.904-5.243-8.76.656-.6 6.245-5.443 12.418-10.761l11.225-9.67H159.2V116.3h-6.674c-5.334 0-6.673.291-6.673 1.449 0 1.259 2.632 1.415 20.021 1.192 12.336-.158 20.111-.623 20.257-1.211.135-.545-2.52-1.074-6.197-1.235l-6.435-.281V51.478h32.412v28.629c0 31.397.216 32.847 5.58 37.361 5.887 4.953 20.547 5.873 27.28 1.711 5.019-3.102 9.952-14.317 6.298-14.317-.422 0-1.5 1.918-2.396 4.263-3.911 10.241-14.735 13.033-19.599 5.055-1.795-2.943-1.904-4.819-1.907-32.912l-.004-29.79h11.44c10.804 0 11.439-.106 11.439-1.907s-.635-1.907-11.439-1.907h-11.44V25.61l-2.145.78c-1.18.428-4.612.779-7.626.779h-5.482l.001 10.24v10.238l-49.333.247c-43.106.216-49.333.427-49.333 1.677 0 1.028 1.401 1.565 4.974 1.907l4.975.476-15.178 13.108c-8.347 7.21-15.625 13.108-16.174 13.108-.68 0-1-12.479-1-39.085V0H71.02C59.37 0 57.197.225 57.197 1.43m400.382 0c0 1.124 1.325 1.43 6.197 1.43h6.196V116.3h-6.196c-4.872 0-6.197.306-6.197 1.43 0 1.226 2.86 1.43 20.02 1.43 17.159 0 20.019-.204 20.019-1.43 0-1.124-1.325-1.43-6.197-1.43h-6.196l.011-20.734c.012-21.534.792-27.525 4.323-33.2 5.223-8.395 12.511-12.796 21.195-12.796 4.871 0 5.898.34 8.153 2.693 1.419 1.482 3.001 4.16 3.515 5.953.514 1.792.934 15.574.934 30.628v27.37l-6.358.281c-4.026.179-6.503.72-6.753 1.474-.307.928 4.147 1.191 20.182 1.191 17.653 0 20.575-.203 20.575-1.43 0-1.122-1.315-1.43-6.109-1.43h-6.108l-.343-26.93c-.321-25.201-.475-27.22-2.41-31.44-7.461-16.282-38.344-15.298-48.439 1.543l-2.35 3.92-.01-31.697L485.225 0h-13.823c-11.651 0-13.823.225-13.823 1.43m147.909 1.192c-.57 1.44-2.156 5.624-3.526 9.294s-10.8 28.805-20.955 55.855c-10.156 27.05-18.595 49.775-18.753 50.502-.16.725.585 1.456 1.655 1.62 1.748.271 4.18-5.648 24.214-58.935 17.993-47.856 22.015-59.4 20.936-60.083-2.038-1.29-2.451-1.089-3.571 1.747m-445.682.844c-3.757 3.758-3.565 9.779.42 13.132 1.613 1.357 3.994 2.468 5.29 2.468 6.088 0 10.704-5.564 9.429-11.365-1.446-6.584-10.311-9.063-15.139-4.235m171.939 43.757c-9.576 2.974-15.647 11.52-15.55 21.892.103 10.916 4.172 15.226 19.453 20.61 14.49 5.103 16.909 6.343 18.541 9.498 1.691 3.271 1.783 10.029.18 13.265-1.9 3.835-8.867 6.902-14.317 6.303-9.674-1.063-17.634-7.878-21.693-18.571-2.94-7.746-3.773-6.108-3.773 7.423 0 10.451.232 12.472 1.43 12.472.786 0 1.43-.429 1.43-.954 0-1.507 5.149-1.118 12.624.954 13.589 3.765 23.686 1.912 31.353-5.754 4.929-4.93 6.534-9.037 6.541-16.746.011-9.443-6.682-15.506-23.06-20.887-11.783-3.874-18.311-7.156-19.815-9.965-1.659-3.1-1.142-9.09 1.02-11.84 3.038-3.862 6.789-5.352 13.47-5.352 9.283 0 13.374 3.553 17.832 15.491.538 1.442 1.633 2.622 2.432 2.622 1.207 0 1.454-1.64 1.454-9.652V48.38l-2.982.596c-1.859.372-5.308-.122-9.156-1.31-7.131-2.204-11.397-2.311-17.414-.443m79.123.323c-6.694 2.153-9.047 3.406-14.171 7.548-4.981 4.027-9.711 11.182-12.012 18.17-2.497 7.58-1.743 20.698 1.605 27.972 6.368 13.833 21.731 21.892 39.031 20.476 7.342-.6 12.608-2.983 17.579-7.953 3.696-3.697 7.543-11.146 6.57-12.722-1.124-1.818-2.487-.908-3.949 2.633-3.438 8.332-8.794 12.557-18.581 14.656-11.387 2.442-20.578-2.865-24.222-13.988-2.537-7.74-2.659-31.59-.204-39.574 3.466-11.271 8.602-15.534 18.813-15.618 6.514-.053 10.923 1.713 12.131 4.86.309.804.017 4.352-.65 7.882-1.479 7.841-.573 10.192 4.281 11.103 9.394 1.762 15.004-6.094 10.529-14.746-5.161-9.98-22.912-15.148-36.75-10.699M272.714 72.058c-3.982 3.351-4.145 9.032-.371 12.97 6.634 6.925 18.289-.807 14.609-9.69-2.462-5.942-9.222-7.5-14.238-3.28" clip-rule="evenodd"/></svg>