<svg xmlns="http://www.w3.org/2000/svg" width="374" height="76" fill="none"><path fill="#000" d="M0 38.067C0 16.002 17.015 0 40.035 0 59.82 0 72.022 9.196 78.309 20.875L67.213 26.43c-5.083-10.024-14.79-15.905-26.579-15.905-18.674.042-28.52 14.018-28.52 27.537 0 15.956 12.294 27.313 28.335 27.313 11.742 0 21.448-4.97 26.443-14.44l10.539 5.38c-4.16 7.54-14.052 19.54-36.15 19.54C17.48 75.957 0 60.69 0 38.072zm112.331-16.365c17.337 0 29.311 11.4 29.311 27.216s-11.835 27.035-29.218 27.035-29.217-11.126-29.217-27.216c0-15.268 12.299-27.035 29.124-27.035m.093 44.595c10.26 0 18.122-7.448 18.122-17.1 0-10.344-7.858-17.75-18.122-17.75-10.26 0-18.121 7.448-18.121 17.104 0 10.302 7.857 17.746 18.121 17.746m42.066-43.218V5.745h11.742V22.99h20.617v9.648h-20.892v22.348c0 7.63 3.973 10.344 10.539 10.344 2.93 0 5.793-.866 8.229-2.483l5.962 9.057c-2.496 1.837-7.951 4.045-15.162 4.045-11.003 0-21.082-6.346-21.082-20.229v-22.8h-10.91l-.228-9.837h11.189zm66.014-1.377c16.745 0 27.655 12.32 27.655 28.597v.735l-44.573.185c1.152 9.103 7.397 15.078 18.303 15.078 2.936.02 5.831-.684 8.431-2.048a17.8 17.8 0 0 0 6.456-5.767l10.18 4.872c-2.229 3.77-9.796 12.506-24.974 12.645-17.332.093-29.399-11.036-29.399-27.402 0-16.597 12.109-26.895 27.921-26.895m15.453 21.238c-1.351-7.63-8.043-11.907-15.453-11.907-7.676 0-14.423 4.045-16.365 11.953zm20.697-19.861h11.105v8.047c4.716-6.346 12.713-8.048 19.139-8.048h1.385v11.586h-1.292c-12.388 0-19.232 6.253-19.232 15.542v24.366h-11.105zM303.077.92a6.83 6.83 0 0 1 5.164 1.905 6.75 6.75 0 0 1 2.048 5.084 6.73 6.73 0 0 1-2.031 5.112 6.8 6.8 0 0 1-5.181 1.921c-4.349 0-7.304-2.85-7.304-6.987a6.87 6.87 0 0 1 2.111-5.105 6.93 6.93 0 0 1 5.193-1.93m-5.641 22.158h11.13v51.494h-11.092zm48.361-1.376c16.733 0 27.643 12.32 27.643 28.597v.735l-44.565.185c1.157 9.103 7.397 15.078 18.307 15.078a17.9 17.9 0 0 0 8.428-2.048 17.8 17.8 0 0 0 6.46-5.767l10.167 4.872c-2.217 3.77-9.8 12.506-24.962 12.645-17.336.093-29.399-11.036-29.399-27.402 0-16.597 12.113-26.895 27.921-26.895m15.437 21.238c-1.292-7.63-8.09-11.95-15.441-11.95-7.672 0-14.419 4.046-16.361 11.95z"/></svg>